<svg width="24" height="24" viewBox="0 0 24 24" fill="none" xmlns="http://www.w3.org/2000/svg">
<path d="M16.8677 18.983C17.4012 19.1259 17.7178 19.6743 17.5748 20.2077L17.316 21.1737C17.1731 21.7071 16.6247 22.0237 16.0912 21.8808C15.5578 21.7378 15.2412 21.1895 15.3841 20.656L15.643 19.6901C15.7859 19.1566 16.3342 18.84 16.8677 18.983ZM9.86765 18.9831C10.4011 19.1261 10.7177 19.6744 10.5748 20.2079L10.316 21.1738C10.173 21.7072 9.62466 22.0238 9.0912 21.8809C8.55773 21.7379 8.24115 21.1896 8.38409 20.6561L8.64292 19.6902C8.78586 19.1567 9.33419 18.8402 9.86765 18.9831ZM14.0174 16.5681C14.5128 16.7009 14.8211 17.1831 14.7482 17.6785L14.7245 17.7929L14.2069 19.7247C14.064 20.2582 13.5156 20.5748 12.9822 20.4318C12.4868 20.2991 12.1784 19.8168 12.2514 19.3215L12.2751 19.2071L12.7927 17.2752C12.9356 16.7418 13.484 16.4252 14.0174 16.5681ZM7.01742 16.5681C7.55089 16.7111 7.86747 17.2594 7.72453 17.7929L7.20689 19.7247C7.06395 20.2582 6.51561 20.5748 5.98215 20.4318C5.44868 20.2889 5.1321 19.7405 5.27504 19.2071L5.79268 17.2752C5.93562 16.7418 6.48396 16.4252 7.01742 16.5681ZM10.903 15.1194C11.4364 15.2623 11.753 15.8107 11.6101 16.3442L11.3512 17.3101C11.2083 17.8435 10.66 18.1601 10.1265 18.0172C9.59301 17.8742 9.27642 17.3259 9.41937 16.7924L9.67819 15.8265C9.82113 15.293 10.3695 14.9765 10.903 15.1194ZM17.903 15.1193C18.4364 15.2622 18.753 15.8106 18.6101 16.344L18.3513 17.31C18.2083 17.8434 17.66 18.16 17.1265 18.0171C16.5931 17.8741 16.2765 17.3258 16.4194 16.7923L16.6782 15.8264C16.8212 15.2929 17.3695 14.9763 17.903 15.1193Z" fill="#60C6FF"/>
<path d="M11.5 2C14.2856 2 16.66 3.75154 17.5856 6.21198C20.13 6.90766 22 9.23462 22 12C22 13.4481 21.487 14.7764 20.6328 15.813C20.5219 14.5967 19.6694 13.522 18.4208 13.1874C17.0067 12.8085 15.5577 13.506 14.9438 14.7776C14.813 14.7215 14.6767 14.6742 14.5353 14.6363C14.0978 14.519 13.657 14.5048 13.2386 14.5788C12.8543 13.917 12.2184 13.4013 11.4208 13.1876C10.0067 12.8087 8.55779 13.506 7.94378 14.7776C7.81303 14.7215 7.6767 14.6742 7.53529 14.6363C5.93489 14.2074 4.28988 15.1572 3.86105 16.7576V16.8921C2.72597 15.9756 2 14.5726 2 13C2 10.9486 3.23468 9.18749 5.00053 8.41614C5.04543 4.86494 7.93814 2 11.5 2Z" fill="white"/>
</svg>
