<svg width="24" height="24" viewBox="0 0 24 24" fill="none" xmlns="http://www.w3.org/2000/svg">
<path d="M12.0001 13C12.5524 13 13.0001 13.4477 13.0001 14V15.2679L14.0982 14.634C14.5765 14.3578 15.1881 14.5217 15.4642 15C15.7403 15.4783 15.5765 16.0899 15.0982 16.366L14.0001 17L15.0982 17.634C15.5765 17.9101 15.7404 18.5217 15.4642 19C15.1881 19.4783 14.5765 19.6422 14.0982 19.366L13.0001 18.732V20C13.0001 20.5523 12.5524 21 12.0001 21C11.4478 21 11.0001 20.5523 11.0001 20V18.732L9.90202 19.366C9.42373 19.6422 8.81214 19.4783 8.536 19C8.25985 18.5217 8.42373 17.9101 8.90202 17.634L10.0001 17L8.90205 16.366C8.42376 16.0899 8.25989 15.4783 8.53603 15C8.81217 14.5217 9.42376 14.3578 9.90205 14.634L11.0001 15.2679V14C11.0001 13.4477 11.4478 13 12.0001 13ZM11.5 2C14.2856 2 16.66 3.75154 17.5856 6.21198C20.13 6.90766 22 9.23462 22 12C22 14.7897 20.0961 17.1347 17.5169 17.8066C17.4499 17.5247 17.3423 17.2527 17.1967 17C17.7137 16.1025 17.7512 14.9615 17.1961 14C16.641 13.0385 15.6341 12.5006 14.5984 12.4995C14.0796 11.6031 13.1102 11 12 11C10.8898 11 9.92042 11.6031 9.40164 12.4995C8.36592 12.5006 7.35898 13.0385 6.80387 14C6.24877 14.9615 6.28636 16.1025 6.80328 17C6.62977 17.3012 6.51026 17.6299 6.44904 17.97C3.94686 17.6957 2 15.5752 2 13C2 10.9486 3.23468 9.18749 5.00053 8.41614C5.04543 4.86494 7.93814 2 11.5 2Z" fill="white"/>
</svg>
