<svg width="24" height="24" viewBox="0 0 24 24" fill="none" xmlns="http://www.w3.org/2000/svg">
<path d="M11.5 2C14.2856 2 16.66 3.75154 17.5856 6.21198C20.13 6.90766 22 9.23462 22 12C22 14.4915 20.4814 16.6283 18.3193 17.5353C19.0657 16.6833 19.2485 15.5096 18.8677 14.5C19.2708 13.4311 19.0423 12.1783 18.182 11.318C17.3217 10.4577 16.0689 10.2291 15 10.6323C14.0043 10.2567 12.8489 10.4294 12 11.1502C11.151 10.4294 9.9957 10.2567 9 10.6323C7.93112 10.2291 6.67831 10.4577 5.81801 11.318C4.95771 12.1783 4.72914 13.4311 5.1323 14.5C4.93983 15.0103 4.89134 15.5625 4.98683 16.0939C4.63082 16.2127 4.29268 16.4002 3.99302 16.6562L3.79684 16.8394C2.69866 15.9222 2 14.5427 2 13C2 10.9486 3.23468 9.18749 5.00053 8.41614C5.04543 4.86494 7.93814 2 11.5 2ZM8.64644 12.7322L8.99999 13.0858L9.35354 12.7322C9.74407 12.3417 10.3772 12.3417 10.7678 12.7322C11.1583 13.1227 11.1583 13.7559 10.7678 14.1464L10.4142 14.5L10.7678 14.8535C11.1583 15.2441 11.1583 15.8772 10.7678 16.2678C10.3772 16.6583 9.74407 16.6583 9.35354 16.2678L8.99999 15.9142L8.64644 16.2678C8.25591 16.6583 7.62275 16.6583 7.23222 16.2678C6.8417 15.8772 6.8417 15.2441 7.23222 14.8535L7.58578 14.5L7.23222 14.1464C6.8417 13.7559 6.8417 13.1227 7.23222 12.7322C7.62275 12.3417 8.25591 12.3417 8.64644 12.7322ZM14.6464 12.7322L15 13.0858L15.3535 12.7322C15.7441 12.3417 16.3772 12.3417 16.7678 12.7322C17.1583 13.1227 17.1583 13.7559 16.7678 14.1464L16.4142 14.5L16.7678 14.8535C17.1583 15.2441 17.1583 15.8772 16.7678 16.2678C16.3772 16.6583 15.7441 16.6583 15.3535 16.2678L15 15.9142L14.6464 16.2678C14.2559 16.6583 13.6227 16.6583 13.2322 16.2678C12.8417 15.8772 12.8417 15.2441 13.2322 14.8535L13.5858 14.5L13.2322 14.1464C12.8417 13.7559 12.8417 13.1227 13.2322 12.7322C13.6227 12.3417 14.2559 12.3417 14.6464 12.7322ZM8.76776 18.2322C9.15828 18.6227 9.15828 19.2559 8.76776 19.6464L8.41421 20L8.76776 20.3535C9.15828 20.7441 9.15828 21.3772 8.76776 21.7678C8.37723 22.1583 7.74407 22.1583 7.35354 21.7678L6.99999 21.4142L6.64644 21.7678C6.25591 22.1583 5.62275 22.1583 5.23222 21.7678C4.8417 21.3772 4.8417 20.7441 5.23222 20.3535L5.58578 20L5.23222 19.6464C4.8417 19.2559 4.8417 18.6227 5.23222 18.2322C5.62275 17.8417 6.25591 17.8417 6.64644 18.2322L6.99999 18.5858L7.35354 18.2322C7.74407 17.8417 8.37723 17.8417 8.76776 18.2322ZM14.7678 19.6464C15.1583 19.2559 15.1583 18.6227 14.7678 18.2322C14.3772 17.8417 13.7441 17.8417 13.3535 18.2322L13 18.5858L12.6464 18.2322C12.2559 17.8417 11.6227 17.8417 11.2322 18.2322C10.8417 18.6227 10.8417 19.2559 11.2322 19.6464L11.5858 20L11.2322 20.3535C10.8417 20.7441 10.8417 21.3772 11.2322 21.7678C11.6227 22.1583 12.2559 22.1583 12.6464 21.7678L13 21.4142L13.3535 21.7678C13.7441 22.1583 14.3772 22.1583 14.7678 21.7678C15.1583 21.3772 15.1583 20.7441 14.7678 20.3535L14.4142 20L14.7678 19.6464Z" fill="white"/>
</svg>
