<svg width="24" height="24" viewBox="0 0 24 24" fill="none" xmlns="http://www.w3.org/2000/svg">
<path d="M11.5 2C14.2856 2 16.66 3.75154 17.5856 6.21198C20.13 6.90766 22 9.23462 22 12C22 13.8275 21.183 15.4641 19.8944 16.5646C19.6236 16.355 19.3253 16.1981 19.0132 16.0939C19.1086 15.5625 19.0602 15.0103 18.8677 14.5C19.2708 13.4311 19.0423 12.1783 18.182 11.318C17.3217 10.4577 16.0689 10.2291 15 10.6323C14.0043 10.2567 12.8489 10.4294 12 11.1502C11.151 10.4294 9.9957 10.2567 9 10.6323C7.93112 10.2291 6.67831 10.4577 5.81801 11.318C4.95771 12.1783 4.72914 13.4311 5.1323 14.5C4.93548 15.0218 4.88922 15.5875 4.99352 16.1299C4.37131 15.8968 3.68724 15.8776 3.05479 16.0721C2.39379 15.2244 2 14.1582 2 13C2 10.9486 3.23468 9.18749 5.00053 8.41614C5.04543 4.86494 7.93814 2 11.5 2ZM7.23222 12.7322C7.59271 12.3717 8.15994 12.344 8.55223 12.649L8.64644 12.7322L8.99999 13.0858L9.35354 12.7322C9.74407 12.3417 10.3772 12.3417 10.7678 12.7322C11.1283 13.0927 11.156 13.6599 10.851 14.0522L10.7678 14.1464L10.4142 14.5L10.7678 14.8535C11.1583 15.2441 11.1583 15.8772 10.7678 16.2678C10.4072 16.6283 9.84004 16.656 9.44775 16.351L9.35354 16.2678L8.99999 15.9142L8.64644 16.2678C8.25591 16.6583 7.62275 16.6583 7.23222 16.2678C6.87174 15.9072 6.84401 15.3401 7.14903 14.9477L7.23222 14.8535L7.58578 14.5L7.23222 14.1464C6.8417 13.7559 6.8417 13.1227 7.23222 12.7322ZM14.6464 12.7322L15 13.0858L15.3535 12.7322C15.7441 12.3417 16.3772 12.3417 16.7678 12.7322C17.1583 13.1227 17.1583 13.7559 16.7678 14.1464L16.4142 14.5L16.7678 14.8535C17.1583 15.2441 17.1583 15.8772 16.7678 16.2678C16.3772 16.6583 15.7441 16.6583 15.3535 16.2678L15 15.9142L14.6464 16.2678C14.2559 16.6583 13.6227 16.6583 13.2322 16.2678C12.8417 15.8772 12.8417 15.2441 13.2322 14.8535L13.5858 14.5L13.2322 14.1464C12.8417 13.7559 12.8417 13.1227 13.2322 12.7322C13.6227 12.3417 14.2559 12.3417 14.6464 12.7322ZM6.76776 19.6464C7.15828 19.2559 7.15828 18.6227 6.76776 18.2322C6.37723 17.8417 5.74407 17.8417 5.35354 18.2322L4.99999 18.5858L4.64644 18.2322C4.25591 17.8417 3.62275 17.8417 3.23222 18.2322C2.8417 18.6227 2.8417 19.2559 3.23222 19.6464L3.58578 20L3.23222 20.3535C2.8417 20.7441 2.8417 21.3772 3.23222 21.7678C3.62275 22.1583 4.25591 22.1583 4.64644 21.7678L4.99999 21.4142L5.35354 21.7678C5.74407 22.1583 6.37723 22.1583 6.76776 21.7678C7.15828 21.3772 7.15828 20.7441 6.76776 20.3535L6.4142 20L6.76776 19.6464ZM18.7678 18.2322C19.1583 18.6227 19.1583 19.2559 18.7678 19.6464L18.4142 20L18.7678 20.3535C19.1583 20.7441 19.1583 21.3772 18.7678 21.7678C18.3772 22.1583 17.7441 22.1583 17.3535 21.7678L17 21.4142L16.6464 21.7678C16.2559 22.1583 15.6227 22.1583 15.2322 21.7678C14.8417 21.3772 14.8417 20.7441 15.2322 20.3535L15.5858 20L15.2322 19.6464C14.8417 19.2559 14.8417 18.6227 15.2322 18.2322C15.6227 17.8417 16.2559 17.8417 16.6464 18.2322L17 18.5858L17.3535 18.2322C17.7441 17.8417 18.3772 17.8417 18.7678 18.2322ZM12.7678 19.6464C13.1583 19.2559 13.1583 18.6227 12.7678 18.2322C12.3772 17.8417 11.7441 17.8417 11.3535 18.2322L11 18.5858L10.6464 18.2322C10.2559 17.8417 9.62275 17.8417 9.23222 18.2322C8.8417 18.6227 8.8417 19.2559 9.23222 19.6464L9.58578 20L9.23222 20.3535C8.8417 20.7441 8.8417 21.3772 9.23222 21.7678C9.62275 22.1583 10.2559 22.1583 10.6464 21.7678L11 21.4142L11.3535 21.7678C11.7441 22.1583 12.3772 22.1583 12.7678 21.7678C13.1583 21.3772 13.1583 20.7441 12.7678 20.3535L12.4142 20L12.7678 19.6464Z" fill="white"/>
</svg>
