<svg width="24" height="24" viewBox="0 0 24 24" fill="none" xmlns="http://www.w3.org/2000/svg">
<path d="M5.49999 3C4.67156 3 3.99999 3.67157 3.99999 4.5C3.99999 5.32843 4.67156 6 5.49999 6C6.32842 6 6.99999 5.32843 6.99999 4.5C6.99999 3.67157 6.32842 3 5.49999 3ZM12 3C11.1716 3 10.5 3.67157 10.5 4.5C10.5 5.32843 11.1716 6 12 6C12.8284 6 13.5 5.32843 13.5 4.5C13.5 3.67157 12.8284 3 12 3ZM17 4.5C17 3.67157 17.6716 3 18.5 3C19.3284 3 20 3.67157 20 4.5C20 5.32843 19.3284 6 18.5 6C17.6716 6 17 5.32843 17 4.5ZM5.49999 18C4.67156 18 3.99999 18.6716 3.99999 19.5C3.99999 20.3284 4.67156 21 5.49999 21C6.32842 21 6.99999 20.3284 6.99999 19.5C6.99999 18.6716 6.32842 18 5.49999 18ZM10.5 19.5C10.5 18.6716 11.1716 18 12 18C12.8284 18 13.5 18.6716 13.5 19.5C13.5 20.3284 12.8284 21 12 21C11.1716 21 10.5 20.3284 10.5 19.5ZM18.5 18C17.6716 18 17 18.6716 17 19.5C17 20.3284 17.6716 21 18.5 21C19.3284 21 20 20.3284 20 19.5C20 18.6716 19.3284 18 18.5 18ZM3.90474 15.2687C2.09946 13.4635 2.09946 10.5365 3.90474 8.73125C5.60651 7.02948 8.32929 6.91811 10.1644 8.47522L12 10.0328L13.8356 8.47522C15.6706 6.91811 18.3934 7.02948 20.0952 8.73125C21.9005 10.5365 21.9005 13.4635 20.0952 15.2687C18.3934 16.9705 15.6706 17.0819 13.8356 15.5248L12 13.9672L10.1644 15.5248C8.32929 17.0819 5.60651 16.9705 3.90474 15.2687ZM6.02606 10.8526C5.39235 11.4863 5.39235 12.5137 6.02606 13.1474C6.62344 13.7448 7.57921 13.7839 8.22337 13.2373L9.68155 12L8.22337 10.7627C7.57921 10.2161 6.62343 10.2552 6.02606 10.8526ZM14.3184 12L15.7766 13.2373C16.4207 13.7839 17.3765 13.7448 17.9739 13.1474C18.6076 12.5137 18.6076 11.4863 17.9739 10.8526C17.3765 10.2552 16.4207 10.2161 15.7766 10.7627L14.3184 12Z" fill="white"/>
</svg>
