<svg width="24" height="24" viewBox="0 0 24 24" fill="none" xmlns="http://www.w3.org/2000/svg">
<path fill-rule="evenodd" clip-rule="evenodd" d="M20.0004 12C20.0004 17.5228 15.5232 22 10.0004 22C7.60436 22 5.40123 21.1555 3.67852 19.7485L2.69326 18.9438C2.23857 18.5724 2.53273 17.8364 3.11812 17.8808L4.38662 17.9769C5.10691 18.0314 5.85045 17.987 6.54501 17.8512C4.98022 16.3916 4.00042 14.3107 4.00042 12C4.00042 6.47706 8.47828 2 14.001 2C16.3971 2 18.6002 2.84447 20.3229 4.25151L21.3082 5.05624C21.7628 5.42761 21.4687 6.16356 20.8833 6.11922L19.6148 6.02315C18.8945 5.96859 18.1509 6.01304 17.4563 6.14881C19.021 7.60847 20.0004 9.68943 20.0004 12ZM12.0002 15C13.6571 15 15.0002 13.6569 15.0002 12C15.0002 10.3431 13.6571 9 12.0002 9C10.3433 9 9.00024 10.3431 9.00024 12C9.00024 13.6569 10.3433 15 12.0002 15Z" fill="white"/>
</svg>
