<svg width="24" height="24" viewBox="0 0 24 24" fill="none" xmlns="http://www.w3.org/2000/svg">
<path fill-rule="evenodd" clip-rule="evenodd" d="M1.5 6C1.5 5.17157 2.17157 4.5 3 4.5H3.5C4.03829 4.5 4.5353 4.78843 4.80236 5.25579L6.5 8.22665V6C6.5 5.17157 7.17157 4.5 8 4.5C8.82843 4.5 9.5 5.17157 9.5 6V13C9.5 13.8284 8.82843 14.5 8 14.5H7.5C6.96171 14.5 6.4647 14.2116 6.19764 13.7442L4.5 10.7733V13C4.5 13.8284 3.82843 14.5 3 14.5C2.17157 14.5 1.5 13.8284 1.5 13V6ZM15.1708 6.65836C15.9118 7.02884 16.2121 7.92985 15.8416 8.67082L11.8416 16.6708C11.4712 17.4118 10.5701 17.7121 9.82918 17.3416C9.08821 16.9712 8.78788 16.0701 9.15836 15.3292L13.1584 7.32918C13.5288 6.58821 14.4299 6.28788 15.1708 6.65836ZM16.0874 10.4955C16.3006 9.89851 16.8661 9.5 17.5 9.5H18.5C19.1339 9.5 19.6994 9.89851 19.9126 10.4955L21.8652 15.9627C21.8735 15.9844 21.8813 16.0062 21.8886 16.0284L22.4126 17.4955C22.6912 18.2757 22.2847 19.134 21.5045 19.4126C20.7243 19.6912 19.866 19.2847 19.5874 18.5045L19.4072 18H16.5928L16.4126 18.5045C16.134 19.2847 15.2757 19.6912 14.4955 19.4126C13.7153 19.134 13.3088 18.2757 13.5874 17.4955L14.1114 16.0284C14.1187 16.0063 14.1265 15.9843 14.1348 15.9627L16.0874 10.4955ZM17.6642 15H18.3358L18 14.0598L17.6642 15Z" fill="white"/>
</svg>
