<svg width="24" height="24" viewBox="0 0 24 24" fill="none" xmlns="http://www.w3.org/2000/svg">
<path d="M22 15.9999C22 15.4476 21.5523 14.9999 21 14.9999H20L19.8834 15.0066C19.386 15.0644 19 15.4871 19 15.9999C19 16.5522 19.4477 16.9999 20 16.9999H21L21.1166 16.9932C21.614 16.9354 22 16.5128 22 15.9999Z" fill="#FFC548"/>
<path d="M5 15.9999C5 15.4476 4.55228 14.9999 4 14.9999H3L2.88338 15.0066C2.38604 15.0644 2 15.4871 2 15.9999C2 16.5522 2.44772 16.9999 3 16.9999H4L4.11662 16.9932C4.61396 16.9354 5 16.5128 5 15.9999Z" fill="#FFC548"/>
<path d="M7.05023 9.63586L6.34312 8.92876C5.9526 8.53823 5.31943 8.53823 4.92891 8.92876C4.53838 9.31928 4.53838 9.95245 4.92891 10.343L5.63601 11.0501C6.02654 11.4406 6.6597 11.4406 7.05023 11.0501C7.44075 10.6596 7.44075 10.0264 7.05023 9.63586Z" fill="#FFC548"/>
<path d="M19.0711 8.92877C18.6805 8.53825 18.0474 8.53825 17.6569 8.92877L16.9498 9.63588L16.8666 9.73009C16.5615 10.1224 16.5892 10.6896 16.9498 11.0501C17.3403 11.4406 17.9734 11.4406 18.364 11.0501L19.0711 10.343L19.1543 10.2488C19.4593 9.85649 19.4316 9.28926 19.0711 8.92877Z" fill="#FFC548"/>
<path d="M12 9.99988C15.3137 9.99988 18 12.6862 18 15.9999C18 17.0928 17.7074 18.1176 17.1971 18.9999H6.80311C6.29267 18.1176 6 17.0929 6 15.9999C6 12.6862 8.68629 9.99988 12 9.99988Z" fill="#FFC548"/>
<path d="M14.8286 6.58566L12.7073 8.70698C12.3168 9.09751 11.6836 9.09751 11.2931 8.70698L9.1718 6.58566C8.78128 6.19514 8.78128 5.56197 9.1718 5.17145C9.56233 4.78093 10.1955 4.78093 10.586 5.17145L11.0002 5.58566V2.87988C11.0002 2.3276 11.4479 1.87988 12.0002 1.87988C12.5525 1.87988 13.0002 2.3276 13.0002 2.87988V5.58566L13.4144 5.17145C13.8049 4.78093 14.4381 4.78093 14.8286 5.17145C15.2192 5.56197 15.2192 6.19514 14.8286 6.58566Z" fill="white"/>
<path d="M20 18.9999C20.5523 18.9999 21 19.4476 21 19.9999C21 20.5522 20.5523 20.9999 20 20.9999H4C3.44772 20.9999 3 20.5522 3 19.9999C3 19.4476 3.44772 18.9999 4 18.9999H20Z" fill="white"/>
</svg>
