<svg width="24" height="24" viewBox="0 0 24 24" fill="none" xmlns="http://www.w3.org/2000/svg">
<path fill-rule="evenodd" clip-rule="evenodd" d="M9 2C10.6569 2 12 3.34315 12 5V12.9559L12.0093 12.9771C12.0228 13.0016 12.0504 13.0376 12.0965 13.074C13.2541 13.988 14 15.4072 14 17C14 19.7614 11.7614 22 9 22C6.23858 22 4 19.7614 4 17C4 15.4072 4.74591 13.988 5.90349 13.074C5.93425 13.0497 5.95677 13.0256 5.97236 13.005L6 12.9559V5C6 3.34315 7.34315 2 9 2ZM12 17H6C6 18.6569 7.34315 20 9 20C10.5977 20 11.9037 18.7511 11.9949 17.1763L12 17ZM17 6C17.5128 6 17.9355 6.38604 17.9933 6.88338L18 7V8.26795L19.0981 7.63397C19.5764 7.35783 20.188 7.52171 20.4641 8C20.7206 8.44413 20.5976 9.00319 20.1957 9.30189L20.0981 9.36603L19 10L20.0981 10.634C20.5764 10.9101 20.7402 11.5217 20.4641 12C20.2077 12.4441 19.6621 12.6172 19.2025 12.4185L19.0981 12.366L18 11.7321V13C18 13.5523 17.5523 14 17 14C16.4872 14 16.0645 13.614 16.0067 13.1166L16 13V11.7321L14.9019 12.366C14.4236 12.6422 13.812 12.4783 13.5359 12C13.2795 11.5559 13.4024 10.9968 13.8043 10.6981L13.9019 10.634L15 10L13.9019 9.36603C13.4236 9.08988 13.2597 8.47829 13.5359 8C13.7923 7.55587 14.3379 7.38285 14.7975 7.58149L14.9019 7.63397L16 8.26795V7C16 6.44772 16.4477 6 17 6Z" fill="white"/>
</svg>
