<svg width="24" height="24" viewBox="0 0 24 24" fill="none" xmlns="http://www.w3.org/2000/svg">
<path d="M7.24971 16.5819C7.57739 17.2596 8.18707 17.7834 8.83238 18.1419C9.82147 18.6914 11.1201 19 12.5 19C13.1927 19 13.8649 18.9222 14.4877 18.7753C14.217 19.0759 13.8777 19.3005 13.5685 19.4551C12.8595 19.8096 11.95 20 11 20C10.05 20 9.14048 19.8096 8.43147 19.4551C7.78227 19.1305 7 18.497 7 17.5C7 17.1499 7.09644 16.8447 7.24971 16.5819ZM17.9675 14.0989C17.9888 14.2284 18 14.3621 18 14.5C18 15.7184 17.1228 16.6112 16.1676 17.1419C15.1785 17.6914 13.8799 18 12.5 18C11.1201 18 9.82147 17.6914 8.83238 17.1419C8.09877 16.7344 7.41121 16.1132 7.13166 15.295C8.36942 15.7463 9.88755 16 11.5 16C13.406 16 15.1801 15.6455 16.5153 15.0293C17.0304 14.7915 17.5429 14.4822 17.9675 14.0989ZM4.02182 10.6692C4.53274 11.1603 5.19873 11.5657 5.94233 11.8911C7.54381 12.5917 9.6863 13 12 13C14.3137 13 16.4562 12.5917 18.0577 11.8911C18.3757 11.7519 18.6794 11.5982 18.963 11.4293C18.7488 12.6523 17.6383 13.5109 16.5153 14.0293C15.1801 14.6455 13.406 15 11.5 15C9.59404 15 7.81987 14.6455 6.48475 14.0293C5.23457 13.4523 4 12.4536 4 11C4 10.887 4.00746 10.7767 4.02182 10.6692ZM12 3C14.3137 3 16.4562 3.40832 18.0577 4.10897C18.8569 4.45864 19.5665 4.90083 20.0903 5.44258C20.6187 5.98914 21 6.68589 21 7.5C21 8.31411 20.6187 9.01086 20.0903 9.55742C19.5665 10.0992 18.8569 10.5414 18.0577 10.891C16.4562 11.5917 14.3137 12 12 12C9.6863 12 7.54381 11.5917 5.94233 10.891C5.14307 10.5414 4.43348 10.0992 3.90973 9.55742C3.38133 9.01086 3 8.31411 3 7.5C3 6.68589 3.38133 5.98914 3.90973 5.44258C4.43348 4.90083 5.14307 4.45864 5.94233 4.10897C7.54381 3.40832 9.6863 3 12 3Z" fill="white"/>
</svg>
