<svg width="24" height="24" viewBox="0 0 24 24" fill="none" xmlns="http://www.w3.org/2000/svg">
<path fill-rule="evenodd" clip-rule="evenodd" d="M12 7.5C7.30558 7.5 3.5 11.3056 3.5 16V17C3.5 17.8284 2.82843 18.5 2 18.5C1.17157 18.5 0.5 17.8284 0.5 17V16C0.5 9.64873 5.64873 4.5 12 4.5C18.3513 4.5 23.5 9.64873 23.5 16V17C23.5 17.8284 22.8284 18.5 22 18.5C21.1716 18.5 20.5 17.8284 20.5 17V16C20.5 11.3056 16.6944 7.5 12 7.5ZM12 11.5C9.51472 11.5 7.5 13.5147 7.5 16V17C7.5 17.8284 6.82843 18.5 6 18.5C5.17157 18.5 4.5 17.8284 4.5 17V16C4.5 11.8579 7.85786 8.5 12 8.5C16.1421 8.5 19.5 11.8579 19.5 16V17C19.5 17.8284 18.8284 18.5 18 18.5C17.1716 18.5 16.5 17.8284 16.5 17V16C16.5 13.5147 14.4853 11.5 12 11.5ZM11.5 16C11.5 15.7239 11.7239 15.5 12 15.5C12.2761 15.5 12.5 15.7239 12.5 16V17C12.5 17.8284 13.1716 18.5 14 18.5C14.8284 18.5 15.5 17.8284 15.5 17V16C15.5 14.067 13.933 12.5 12 12.5C10.067 12.5 8.5 14.067 8.5 16V17C8.5 17.8284 9.17157 18.5 10 18.5C10.8284 18.5 11.5 17.8284 11.5 17V16Z" fill="white"/>
</svg>
