<svg width="24" height="24" viewBox="0 0 24 24" fill="none" xmlns="http://www.w3.org/2000/svg">
<path fill-rule="evenodd" clip-rule="evenodd" d="M16 3C19.3137 3 22 5.68629 22 9C22 10.5614 21.4036 11.9836 20.4261 13.051C20.7934 13.7884 21 14.62 21 15.5C21 18.4635 18.6563 20.8795 15.7212 20.9956L15.5 21H6.5C4.01472 21 2 18.9853 2 16.5C2 14.5384 3.2545 12.8708 5.00531 12.2544C5.00178 12.17 5 12.0852 5 12C5 8.75294 7.57931 6.10832 10.8008 6.00325C11.8378 4.20805 13.7778 3 16 3ZM11 8C8.79086 8 7 9.79086 7 12C7 12.1857 7.01258 12.3679 7.03684 12.5461L7.08188 12.8101C7.20253 13.3974 6.7903 13.9494 6.20847 14.0167C4.96556 14.1604 4 15.2182 4 16.5C4 17.8255 5.03154 18.91 6.33562 18.9947L6.5 19H15.5C17.433 19 19 17.433 19 15.5C19 13.6753 17.603 12.1758 15.8209 12.0144C15.3767 11.9742 15.0099 11.6469 14.9217 11.2073C14.5544 9.37778 12.937 8 11 8ZM16 5C14.81 5 13.7414 5.51965 13.0087 6.34441C14.7533 6.96402 16.1258 8.36804 16.7033 10.1322C17.6449 10.3424 18.4954 10.7939 19.1864 11.4183C19.697 10.7467 20 9.90873 20 9C20 6.79086 18.2091 5 16 5Z" fill="white"/>
</svg>
