<svg width="24" height="24" viewBox="0 0 24 24" fill="none" xmlns="http://www.w3.org/2000/svg">
<path fill-rule="evenodd" clip-rule="evenodd" d="M14.9022 4.67036L14.799 4.42095C14.4642 3.67541 15.1051 2.87623 15.8938 3.01543C19.364 3.6279 22 6.65636 22 10.3025C22 11.7553 21.5814 13.1103 20.8582 14.2535C20.951 14.654 21 15.0712 21 15.5C21 18.4635 18.6563 20.8795 15.7212 20.9956L15.5 21H6.5C4.01472 21 2 18.9853 2 16.5C2 14.5384 3.2545 12.8708 5.00531 12.2544C5.00178 12.17 5 12.0852 5 12C5 8.68629 7.68629 6 11 6C12.5507 6 13.9634 6.58798 15.028 7.55306C15.14 7.15549 15.1999 6.73608 15.1999 6.30268C15.1999 5.72632 15.0944 5.17659 14.9022 4.67036ZM11 8C8.79086 8 7 9.79086 7 12C7 12.1857 7.01258 12.3679 7.03684 12.5461L7.08188 12.8101C7.20253 13.3974 6.7903 13.9494 6.20847 14.0167C4.96556 14.1604 4 15.2182 4 16.5C4 17.8255 5.03154 18.91 6.33562 18.9947L6.5 19H15.5C17.433 19 19 17.433 19 15.5C19 13.6753 17.603 12.1758 15.8209 12.0144C15.3767 11.9742 15.0099 11.6469 14.9217 11.2073C14.5544 9.37778 12.937 8 11 8ZM17.1568 5.54471C17.1853 5.79358 17.1999 6.04652 17.1999 6.30268C17.1999 7.43041 16.9171 8.49208 16.4185 9.42062C16.5279 9.65015 16.6232 9.88771 16.7033 10.1322C17.9107 10.4018 18.9683 11.068 19.7321 11.987C19.906 11.457 20 10.8907 20 10.3025C20 8.24572 18.8495 6.45639 17.1568 5.54471Z" fill="white"/>
</svg>
