<svg width="24" height="24" viewBox="0 0 24 24" fill="none" xmlns="http://www.w3.org/2000/svg">
<path d="M11.1318 13.0039C11.4058 12.5243 12.0166 12.3577 12.4961 12.6318C12.9414 12.8862 13.1169 13.4311 12.9202 13.8915L12.8682 13.9961L11.7232 16H13.8277C14.6339 16 15.153 16.8313 14.834 17.5448L14.7827 17.6458L12.8682 20.9961C12.5942 21.4757 11.9834 21.6423 11.5039 21.3682C11.0586 21.1138 10.8831 20.5689 11.0798 20.1085L11.1318 20.0039L12.2768 18H10.1723C9.36611 18 8.847 17.1687 9.16593 16.4552L9.21725 16.3542L11.1318 13.0039ZM11.5 2C14.2856 2 16.66 3.75154 17.5856 6.21198C20.13 6.90766 22 9.23462 22 12C22 14.4619 20.5174 16.5754 18.4004 17.5003C17.8943 17.7214 17.3048 17.4904 17.0836 16.9843C16.8625 16.4782 17.0935 15.8887 17.5996 15.6676C19.0144 15.0494 20 13.6387 20 12C20 10.0145 18.5524 8.36524 16.6552 8.05324C16.2654 7.98914 15.9477 7.7033 15.8441 7.32051C15.326 5.40663 13.576 4 11.5 4C9.01472 4 7 6.01472 7 8.5C7 8.66909 7.00928 8.83564 7.02729 8.99923C7.08294 9.50471 6.75509 9.9678 6.26851 10.0896C4.96468 10.4159 4 11.5965 4 13C4 14.3965 4.95512 15.5725 6.24926 15.9055C6.78411 16.0432 7.1061 16.5884 6.96844 17.1232C6.83078 17.6581 6.28559 17.9801 5.75074 17.8424C3.59442 17.2874 2 15.3312 2 13C2 10.9486 3.23468 9.18749 5.00053 8.41614C5.04543 4.86494 7.93814 2 11.5 2Z" fill="white"/>
</svg>
