<svg width="24" height="24" viewBox="0 0 24 24" fill="none" xmlns="http://www.w3.org/2000/svg">
<path d="M9.10358 18.9488C9.63705 19.0917 9.95363 19.6401 9.81069 20.1735L9.55187 21.1395C9.40893 21.6729 8.86059 21.9895 8.32712 21.8466C7.79366 21.7036 7.47707 21.1553 7.62002 20.6218L7.87883 19.6559C8.02178 19.1224 8.57011 18.8059 9.10358 18.9488ZM13.7733 17.7935C14.3068 17.9365 14.6234 18.4848 14.4804 19.0183L14.2216 19.9842C14.0787 20.5177 13.5303 20.8343 12.9969 20.6913C12.4634 20.5484 12.1468 20 12.2897 19.4666L12.5486 18.5006C12.6915 17.9672 13.2398 17.6506 13.7733 17.7935ZM10.1389 15.0851C10.6723 15.228 10.9889 15.7764 10.846 16.3098L10.5871 17.2758C10.4442 17.8092 9.89586 18.1258 9.3624 17.9829C8.82893 17.8399 8.51235 17.2916 8.65529 16.7581L8.91411 15.7922C9.05705 15.2587 9.60539 14.9422 10.1389 15.0851ZM11.5 2C14.2856 2 16.66 3.75154 17.5856 6.21198C20.13 6.90766 22 9.23462 22 12C22 13.9637 21.0555 15.7067 19.6006 16.7995C19.159 17.1312 18.5322 17.0422 18.2005 16.6006C17.8688 16.159 17.9578 15.5322 18.3994 15.2005C19.3732 14.4689 20 13.3078 20 12C20 10.0145 18.5524 8.36524 16.6552 8.05324C16.2654 7.98914 15.9477 7.7033 15.8441 7.32051C15.326 5.40663 13.576 4 11.5 4C9.01472 4 7 6.01472 7 8.5C7 8.66909 7.00928 8.83564 7.02729 8.99923C7.08294 9.50471 6.75509 9.9678 6.26851 10.0896C4.96468 10.4159 4 11.5965 4 13C4 13.8959 4.39144 14.6991 5.01591 15.2503C5.42998 15.6157 5.46938 16.2477 5.10391 16.6617C4.73845 17.0758 4.10651 17.1152 3.69244 16.7497C2.65607 15.835 2 14.4935 2 13C2 10.9486 3.23468 9.18749 5.00053 8.41614C5.04543 4.86494 7.93814 2 11.5 2ZM14.8086 13.9298C15.3421 14.0728 15.6586 14.6211 15.5157 15.1546L15.2569 16.1205C15.1139 16.654 14.5656 16.9705 14.0321 16.8276C13.4987 16.6847 13.1821 16.1363 13.325 15.6029L13.5838 14.6369C13.7268 14.1035 14.2751 13.7869 14.8086 13.9298Z" fill="white"/>
</svg>
