<svg width="24" height="24" viewBox="0 0 24 24" fill="none" xmlns="http://www.w3.org/2000/svg">
<path d="M9.88868 19.6559C10.0316 19.1224 10.58 18.8059 11.1134 18.9488C11.6469 19.0917 11.9635 19.6401 11.8205 20.1735L11.5617 21.1395C11.4188 21.6729 10.8704 21.9895 10.337 21.8466C9.8035 21.7036 9.48691 21.1553 9.62986 20.6218L9.88868 19.6559ZM7.69342 17.7935C8.22689 17.9365 8.54347 18.4848 8.40053 19.0183L8.14171 19.9842C7.99877 20.5177 7.45043 20.8343 6.91697 20.6913C6.3835 20.5484 6.06692 20 6.20986 19.4666L6.46868 18.5006C6.61162 17.9672 7.15996 17.6506 7.69342 17.7935ZM15.027 17.7935C15.5605 17.9365 15.8771 18.4848 15.7341 19.0183L15.4753 19.9842C15.3324 20.5177 14.784 20.8343 14.2506 20.6913C13.7171 20.5484 13.4005 20 13.5434 19.4666L13.8023 18.5006C13.9452 17.9672 14.4935 17.6506 15.027 17.7935ZM12.1487 15.0851C12.6822 15.228 12.9987 15.7764 12.8558 16.3098L12.597 17.2758C12.454 17.8092 11.9057 18.1258 11.3722 17.9829C10.8388 17.8399 10.5222 17.2916 10.6651 16.7581L10.924 15.7922C11.0669 15.2587 11.6152 14.9422 12.1487 15.0851ZM11.5 2C14.2856 2 16.66 3.75154 17.5856 6.21198C20.13 6.90766 22 9.23462 22 12C22 13.6352 21.3445 15.119 20.2844 16.2001C20.0721 16.4166 19.8435 16.617 19.6006 16.7995C19.159 17.1312 18.5322 17.0422 18.2005 16.6006C17.8688 16.159 17.9578 15.5322 18.3994 15.2005C18.5617 15.0786 18.7144 14.9446 18.8563 14.7999C19.5648 14.0773 20 13.0905 20 12C20 10.0145 18.5524 8.36524 16.6552 8.05324C16.2654 7.98914 15.9477 7.7033 15.8441 7.32051C15.326 5.40663 13.576 4 11.5 4C9.01472 4 7 6.01472 7 8.5C7 8.66909 7.00928 8.83564 7.02729 8.99923C7.08294 9.50471 6.75509 9.9678 6.26851 10.0896C4.96468 10.4159 4 11.5965 4 13C4 13.8959 4.39144 14.6991 5.01591 15.2503C5.42998 15.6157 5.46938 16.2477 5.10391 16.6617C4.73845 17.0758 4.10651 17.1152 3.69244 16.7497C2.65607 15.835 2 14.4935 2 13C2 10.9486 3.23468 9.18749 5.00053 8.41614C5.04543 4.86494 7.93814 2 11.5 2ZM8.7287 13.9298C9.26217 14.0728 9.57875 14.6211 9.43581 15.1546L9.17699 16.1205C9.03405 16.654 8.48571 16.9705 7.95224 16.8276C7.41878 16.6847 7.10219 16.1363 7.24514 15.6029L7.50395 14.6369C7.6469 14.1035 8.19523 13.7869 8.7287 13.9298ZM16.0623 13.9298C16.5958 14.0728 16.9123 14.6211 16.7694 15.1546L16.5106 16.1205C16.3676 16.654 15.8193 16.9706 15.2858 16.8276C14.7524 16.6847 14.4358 16.1363 14.5787 15.6029L14.8375 14.6369C14.9805 14.1035 15.5288 13.7869 16.0623 13.9298Z" fill="white"/>
</svg>
