<svg width="24" height="24" viewBox="0 0 24 24" fill="none" xmlns="http://www.w3.org/2000/svg">
<path d="M16.8679 18.983C17.4014 19.1259 17.718 19.6743 17.575 20.2077L17.3162 21.1737C17.1733 21.7071 16.6249 22.0237 16.0915 21.8808C15.558 21.7378 15.2414 21.1895 15.3844 20.656L15.6432 19.6901C15.7861 19.1566 16.3345 18.84 16.8679 18.983ZM9.8679 18.9831C10.4014 19.1261 10.718 19.6744 10.575 20.2079L10.3162 21.1738C10.1733 21.7072 9.62491 22.0238 9.09145 21.8809C8.55798 21.7379 8.2414 21.1896 8.38434 20.6561L8.64316 19.6902C8.7861 19.1567 9.33444 18.8402 9.8679 18.9831ZM14.0177 16.5681C14.513 16.7009 14.8214 17.1831 14.7485 17.6785L14.7248 17.7929L14.2071 19.7247C14.0642 20.2582 13.5159 20.5748 12.9824 20.4318C12.487 20.2991 12.1786 19.8168 12.2516 19.3215L12.2753 19.2071L12.7929 17.2752C12.9359 16.7418 13.4842 16.4252 14.0177 16.5681ZM7.01767 16.5681C7.55114 16.7111 7.86772 17.2594 7.72478 17.7929L7.20714 19.7247C7.0642 20.2582 6.51586 20.5748 5.9824 20.4318C5.44893 20.2889 5.13235 19.7405 5.27529 19.2071L5.79293 17.2752C5.93587 16.7418 6.48421 16.4252 7.01767 16.5681ZM10.9032 15.1194C11.4366 15.2623 11.7532 15.8107 11.6103 16.3442L11.3515 17.3101C11.2085 17.8435 10.6602 18.1601 10.1267 18.0172C9.59326 17.8742 9.27668 17.3259 9.41962 16.7924L9.67844 15.8265C9.82138 15.293 10.3697 14.9765 10.9032 15.1194ZM17.9032 15.1193C18.4367 15.2622 18.7533 15.8106 18.6103 16.344L18.3515 17.31C18.2086 17.8434 17.6602 18.16 17.1268 18.0171C16.5933 17.8741 16.2767 17.3258 16.4196 16.7923L16.6785 15.8264C16.8214 15.2929 17.3697 14.9763 17.9032 15.1193ZM11.5 2C14.2856 2 16.66 3.75154 17.5856 6.21198C20.13 6.90766 22 9.23462 22 12C22 13.3497 21.553 14.5978 20.7996 15.6007C20.4678 16.0422 19.841 16.1312 19.3994 15.7995C18.9579 15.4677 18.8689 14.8409 19.2006 14.3993C19.7028 13.7309 20 12.9016 20 12C20 10.0145 18.5524 8.36524 16.6552 8.05324C16.2654 7.98914 15.9477 7.7033 15.8441 7.32051C15.326 5.40663 13.576 4 11.5 4C9.01472 4 7 6.01472 7 8.5C7 8.66909 7.00928 8.83564 7.02729 8.99923C7.08294 9.50471 6.75509 9.9678 6.26851 10.0896C4.96468 10.4159 4 11.5965 4 13C4 13.4698 4.10732 13.9123 4.29835 14.3064L4.40073 14.4993C4.67728 14.9773 4.51392 15.5891 4.03585 15.8656C3.55779 16.1421 2.94607 15.9788 2.66952 15.5007C2.24351 14.7643 2 13.9091 2 13C2 10.9486 3.23468 9.18749 5.00053 8.41614C5.04543 4.86494 7.93814 2 11.5 2Z" fill="white"/>
</svg>
