<svg width="24" height="24" viewBox="0 0 24 24" fill="none" xmlns="http://www.w3.org/2000/svg">
<path fill-rule="evenodd" clip-rule="evenodd" d="M11.5 2C7.93814 2 5.04543 4.86494 5.00053 8.41614C3.23468 9.18749 2 10.9486 2 13C2 13.9091 2.24351 14.7643 2.66952 15.5007C2.94607 15.9788 3.55779 16.1421 4.03585 15.8656C4.51392 15.5891 4.67728 14.9773 4.40073 14.4993C4.14607 14.059 4 13.5481 4 13C4 11.5965 4.96468 10.4159 6.26851 10.0896C6.75509 9.9678 7.08294 9.50471 7.02729 8.99923C7.00928 8.83564 7 8.66909 7 8.5C7 6.01472 9.01472 4 11.5 4C13.576 4 15.326 5.40663 15.8441 7.32051C15.9477 7.7033 16.2654 7.98914 16.6552 8.05324C18.5524 8.36524 20 10.0145 20 12C20 12.9016 19.7028 13.7309 19.2006 14.3993C18.8689 14.8409 18.9579 15.4677 19.3994 15.7995C19.841 16.1312 20.4678 16.0422 20.7996 15.6007C21.553 14.5978 22 13.3497 22 12C22 9.23462 20.13 6.90766 17.5856 6.21198C16.66 3.75154 14.2856 2 11.5 2ZM7.03195 14.1364C7.56542 14.2793 7.882 14.8277 7.73906 15.3611L6.18614 21.1567C6.0432 21.6901 5.49487 22.0067 4.9614 21.8638C4.42793 21.7208 4.11135 21.1725 4.25429 20.639L5.80721 14.8435C5.95015 14.31 6.49849 13.9934 7.03195 14.1364ZM17.532 14.1364C18.0654 14.2793 18.382 14.8277 18.2391 15.3611L16.6862 21.1567C16.5432 21.6902 15.9949 22.0067 15.4614 21.8638C14.928 21.7209 14.6114 21.1725 14.7543 20.6391L16.3072 14.8435C16.4502 14.31 16.9985 13.9935 17.532 14.1364ZM10.532 14.1365C11.0654 14.2794 11.382 14.8277 11.2391 15.3612L9.68617 21.1568C9.54323 21.6902 8.99489 22.0068 8.46143 21.8639C7.92796 21.7209 7.61138 21.1726 7.75432 20.6391L9.30724 14.8436C9.45018 14.3101 9.99851 13.9935 10.532 14.1365ZM14.7391 15.3611C14.882 14.8277 14.5654 14.2793 14.0319 14.1364C13.4985 13.9935 12.9501 14.31 12.8072 14.8435L11.2543 20.6391C11.1113 21.1725 11.4279 21.7209 11.9614 21.8638C12.4949 22.0067 13.0432 21.6902 13.1861 21.1567L14.7391 15.3611Z" fill="white"/>
</svg>
