<svg width="24" height="24" viewBox="0 0 24 24" fill="none" xmlns="http://www.w3.org/2000/svg">
<path d="M12.4961 12.6318C12.9757 12.9058 13.1423 13.5166 12.8682 13.9961L11.7232 16H12.8277C13.6723 16 14.2018 16.9124 13.7827 17.6458L11.8682 20.9961C11.5942 21.4757 10.9834 21.6423 10.5039 21.3682C10.0243 21.0942 9.85775 20.4834 10.1318 20.0039L11.2768 18H10.1723C9.32772 18 8.79821 17.0876 9.21725 16.3542L11.1318 13.0039C11.4058 12.5243 12.0166 12.3577 12.4961 12.6318ZM14.9987 18.5006C15.1416 17.9672 15.69 17.6506 16.2234 17.7935C16.7569 17.9365 17.0735 18.4848 16.9305 19.0183L16.6717 19.9842C16.5288 20.5177 15.9804 20.8343 15.447 20.6913C14.9135 20.5484 14.5969 20 14.7399 19.4666L14.9987 18.5006ZM5.21868 18.5006C5.36162 17.9672 5.90996 17.6506 6.44342 17.7935C6.97689 17.9365 7.29347 18.4848 7.15053 19.0183L6.89171 19.9842C6.74877 20.5177 6.20043 20.8343 5.66697 20.6913C5.1335 20.5484 4.81692 20 4.95986 19.4666L5.21868 18.5006ZM17.2587 13.9298C17.7922 14.0728 18.1087 14.6211 17.9658 15.1546L17.707 16.1205C17.564 16.654 17.0157 16.9705 16.4822 16.8276C15.9488 16.6847 15.6322 16.1363 15.7751 15.6029L16.034 14.6369C16.1769 14.1035 16.7252 13.7869 17.2587 13.9298ZM7.4787 13.9298C8.01217 14.0728 8.32875 14.6211 8.18581 15.1546L7.92699 16.1205C7.78405 16.654 7.23571 16.9706 6.70224 16.8276C6.16878 16.6847 5.85219 16.1363 5.99514 15.6029L6.25395 14.6369C6.3969 14.1035 6.94523 13.7869 7.4787 13.9298ZM11.5 2C14.2856 2 16.66 3.75154 17.5856 6.21198C20.13 6.90766 22 9.23462 22 12C22 13.3497 21.553 14.5978 20.7996 15.6007C20.4678 16.0422 19.841 16.1312 19.3994 15.7995C18.9579 15.4677 18.8689 14.8409 19.2006 14.3993C19.7028 13.7309 20 12.9016 20 12C20 10.0145 18.5524 8.36524 16.6552 8.05324C16.2654 7.98914 15.9477 7.7033 15.8441 7.32051C15.326 5.40663 13.576 4 11.5 4C9.01472 4 7 6.01472 7 8.5C7 8.66909 7.00928 8.83564 7.02729 8.99923C7.08294 9.50471 6.75509 9.9678 6.26851 10.0896C4.96468 10.4159 4 11.5965 4 13C4 13.4698 4.10732 13.9123 4.29835 14.3064L4.40073 14.4993C4.67728 14.9773 4.51392 15.5891 4.03585 15.8656C3.55779 16.1421 2.94607 15.9788 2.66952 15.5007C2.24351 14.7643 2 13.9091 2 13C2 10.9486 3.23468 9.18749 5.00053 8.41614C5.04543 4.86494 7.93814 2 11.5 2Z" fill="white"/>
</svg>
