<svg width="24" height="24" viewBox="0 0 24 24" fill="none" xmlns="http://www.w3.org/2000/svg">
<path d="M14 18C15.1046 18 16 18.8954 16 20C16 21.1046 15.1046 22 14 22C12.8954 22 12 21.1046 12 20C12 18.8954 12.8954 18 14 18ZM9.5 17C10.3284 17 11 17.6716 11 18.5C11 19.3284 10.3284 20 9.5 20C8.67157 20 8 19.3284 8 18.5C8 17.6716 8.67157 17 9.5 17ZM11.5 2C14.2856 2 16.66 3.75154 17.5856 6.21198C20.13 6.90766 22 9.23462 22 12C22 13.9636 21.0557 15.707 19.6006 16.7999C19.159 17.1316 18.5321 17.0425 18.2004 16.6009C17.8687 16.1594 17.9578 15.5325 18.3994 15.2008C19.3732 14.4693 20 13.308 20 12C20 10.0145 18.5524 8.36524 16.6552 8.05324C16.2654 7.98914 15.9477 7.7033 15.8441 7.32051C15.326 5.40663 13.576 4 11.5 4C9.01472 4 7 6.01472 7 8.5C7 8.66909 7.00928 8.83564 7.02729 8.99923C7.08294 9.50471 6.75509 9.9678 6.26851 10.0896C4.96468 10.4159 4 11.5965 4 13C4 14.1092 4.60141 15.079 5.50073 15.5993C5.97879 15.8758 6.14215 16.4875 5.86561 16.9656C5.58906 17.4437 4.97733 17.607 4.49927 17.3305C3.00738 16.4675 2 14.852 2 13C2 10.9486 3.23468 9.18749 5.00053 8.41614C5.04543 4.86494 7.93814 2 11.5 2ZM14.5 14C15.3284 14 16 14.6716 16 15.5C16 16.3284 15.3284 17 14.5 17C13.6716 17 13 16.3284 13 15.5C13 14.6716 13.6716 14 14.5 14ZM10 12C11.1046 12 12 12.8954 12 14C12 15.1046 11.1046 16 10 16C8.89543 16 8 15.1046 8 14C8 12.8954 8.89543 12 10 12Z" fill="white"/>
</svg>
