<svg width="24" height="24" viewBox="0 0 24 24" fill="none" xmlns="http://www.w3.org/2000/svg">
<path fill-rule="evenodd" clip-rule="evenodd" d="M12.0005 2C12.5528 2 13.0005 2.44772 13.0005 3V3.9616L13.6545 3.6159C14.1428 3.3578 14.7478 3.54439 15.0059 4.03266C15.264 4.52093 15.0774 5.12597 14.5892 5.38407L13.0005 6.22382V8.126C13.7154 8.30999 14.353 8.68665 14.8545 9.19732L16.5028 8.24569L16.4357 6.45001C16.4151 5.89811 16.8458 5.434 17.3977 5.41338C17.9496 5.39276 18.4137 5.82345 18.4343 6.37535L18.4619 7.11458L19.2947 6.63378C19.773 6.35764 20.3846 6.52152 20.6607 6.99981C20.9369 7.4781 20.773 8.08969 20.2947 8.36583L19.4619 8.84663L20.0883 9.24016C20.556 9.53396 20.6969 10.1512 20.4031 10.6189C20.1093 11.0865 19.492 11.2275 19.0243 10.9337L17.5028 9.97774L15.8555 10.9288C15.9501 11.2697 16.0006 11.629 16.0006 12C16.0006 12.371 15.9501 12.7303 15.8555 13.0712L17.5028 14.0223L19.0244 13.0663C19.492 12.7725 20.1093 12.9135 20.4031 13.3811C20.6969 13.8488 20.556 14.466 20.0884 14.7598L19.462 15.1534L20.2947 15.6342C20.773 15.9103 20.9369 16.5219 20.6608 17.0002C20.3846 17.4785 19.773 17.6424 19.2947 17.3662L18.462 16.8854L18.4344 17.6246C18.4137 18.1765 17.9496 18.6072 17.3977 18.5866C16.8458 18.566 16.4151 18.1019 16.4358 17.55L16.5028 15.7543L14.8545 14.8027C14.353 15.3133 13.7154 15.69 13.0005 15.874V17.7762L14.5892 18.6159C15.0774 18.874 15.264 19.4791 15.0059 19.9673C14.7478 20.4556 14.1428 20.6422 13.6545 20.3841L13.0005 20.0384V21C13.0005 21.5523 12.5528 22 12.0005 22C11.4482 22 11.0005 21.5523 11.0005 21V20.0384L10.3465 20.3841C9.85824 20.6422 9.2532 20.4556 8.9951 19.9673C8.737 19.4791 8.92359 18.874 9.41186 18.6159L11.0005 17.7762V15.874C10.2855 15.6899 9.64788 15.3132 9.1463 14.8024L7.49813 15.7539L7.56521 17.5496C7.58583 18.1015 7.15513 18.5656 6.60323 18.5862C6.05134 18.6069 5.58722 18.1762 5.5666 17.6243L5.53899 16.885L4.70622 17.3658C4.22793 17.642 3.61634 17.4781 3.3402 16.9998C3.06406 16.5215 3.22793 15.9099 3.70622 15.6338L4.53899 15.153L3.91261 14.7595C3.44496 14.4657 3.30402 13.8484 3.59783 13.3807C3.89163 12.9131 4.50891 12.7721 4.97657 13.0659L6.49813 14.0219L8.1455 13.0708C8.05104 12.73 8.00057 12.3709 8.00057 12C8.00057 11.6291 8.05105 11.27 8.1455 10.9292L6.49818 9.97813L4.97662 10.9341C4.50896 11.2279 3.89168 11.0869 3.59788 10.6193C3.30407 10.1516 3.445 9.53435 3.91266 9.24054L4.53904 8.84701L3.70627 8.36622C3.22798 8.09007 3.0641 7.47848 3.34025 7.00019C3.61639 6.5219 4.22798 6.35802 4.70627 6.63417L5.53904 7.11496L5.56665 6.37574C5.58727 5.82384 6.05138 5.39315 6.60328 5.41376C7.15518 5.43438 7.58587 5.89849 7.56526 6.45039L7.49818 8.24608L9.14632 9.19763C9.64789 8.68683 10.2855 8.31007 11.0005 8.12603V6.22382L9.41186 5.38407C8.92359 5.12597 8.737 4.52093 8.9951 4.03266C9.2532 3.54439 9.85824 3.3578 10.3465 3.6159L11.0005 3.9616V3C11.0005 2.44772 11.4482 2 12.0005 2ZM12.0005 14C13.1051 14 14.0005 13.1046 14.0005 12C14.0005 10.8954 13.1051 10 12.0005 10C10.8959 10 10.0005 10.8954 10.0005 12C10.0005 13.1046 10.8959 14 12.0005 14Z" fill="white"/>
</svg>
