<svg width="24" height="24" viewBox="0 0 24 24" fill="none" xmlns="http://www.w3.org/2000/svg">
<path d="M12 6C15.3137 6 18 8.68629 18 12C18 12.4097 17.9588 12.8108 17.88 13.1991C17.7701 13.7403 17.2422 14.09 16.701 13.9801C16.1598 13.8702 15.8101 13.3424 15.9199 12.8012C15.9723 12.5431 16 12.2753 16 12C16 9.79086 14.2091 8 12 8C9.79086 8 8 9.79086 8 12C8 12.2753 8.02767 12.5431 8.08007 12.8011C8.18997 13.3424 7.84031 13.8702 7.29908 13.9801C6.75784 14.09 6.22998 13.7404 6.12007 13.1991C6.04122 12.8109 6 12.4097 6 12C6 8.68629 8.68629 6 12 6ZM21 11.0001C21.5523 11.0001 22 11.4478 22 12.0001C22 12.5524 21.5523 13.0001 21 13.0001H20C19.4477 13.0001 19 12.5524 19 12.0001C19 11.4478 19.4477 11.0001 20 11.0001H21ZM4 11.0001C4.55228 11.0001 5 11.4478 5 12.0001C5 12.5524 4.55228 13.0001 4 13.0001H3C2.44772 13.0001 2 12.5524 2 12.0001C2 11.4478 2.44772 11.0001 3 11.0001H4ZM19.0711 4.92876C19.4616 5.31928 19.4616 5.95245 19.0711 6.34297L18.364 7.05008C17.9735 7.4406 17.3403 7.4406 16.9498 7.05008C16.5593 6.65955 16.5593 6.02639 16.9498 5.63586L17.6569 4.92876C18.0474 4.53823 18.6806 4.53823 19.0711 4.92876ZM6.34326 4.92917L7.05037 5.63628C7.44089 6.0268 7.44089 6.65997 7.05037 7.05049C6.65984 7.44101 6.02668 7.44101 5.63615 7.05049L4.92905 6.34338C4.53852 5.95286 4.53852 5.31969 4.92905 4.92917C5.31957 4.53865 5.95274 4.53865 6.34326 4.92917ZM12 2C12.5523 2 13 2.44772 13 3V4C13 4.55228 12.5523 5 12 5C11.4477 5 11 4.55228 11 4V3C11 2.44772 11.4477 2 12 2ZM4 15C3.44772 15 3 15.4477 3 16C3 16.5523 3.44772 17 4 17H20C20.5523 17 21 16.5523 21 16C21 15.4477 20.5523 15 20 15H4ZM7 19C6.44772 19 6 19.4477 6 20C6 20.5523 6.44772 21 7 21H17C17.5523 21 18 20.5523 18 20C18 19.4477 17.5523 19 17 19H7Z" fill="white"/>
</svg>
