<svg width="24" height="24" viewBox="0 0 24 24" fill="none" xmlns="http://www.w3.org/2000/svg">
<path d="M5.49999 3C4.67156 3 3.99999 3.67157 3.99999 4.5C3.99999 5.32843 4.67156 6 5.49999 6C6.32842 6 6.99999 5.32843 6.99999 4.5C6.99999 3.67157 6.32842 3 5.49999 3ZM12 3C11.1716 3 10.5 3.67157 10.5 4.5C10.5 5.32843 11.1716 6 12 6C12.8284 6 13.5 5.32843 13.5 4.5C13.5 3.67157 12.8284 3 12 3ZM18.5 3C17.6716 3 17 3.67157 17 4.5C17 5.32843 17.6716 6 18.5 6C19.3284 6 20 5.32843 20 4.5C20 3.67157 19.3284 3 18.5 3ZM5.49999 18C4.67156 18 3.99999 18.6716 3.99999 19.5C3.99999 20.3284 4.67156 21 5.49999 21C6.32842 21 6.99999 20.3284 6.99999 19.5C6.99999 18.6716 6.32842 18 5.49999 18ZM12 18C11.1716 18 10.5 18.6716 10.5 19.5C10.5 20.3284 11.1716 21 12 21C12.8284 21 13.5 20.3284 13.5 19.5C13.5 18.6716 12.8284 18 12 18ZM18.5 18C17.6716 18 17 18.6716 17 19.5C17 20.3284 17.6716 21 18.5 21C19.3284 21 20 20.3284 20 19.5C20 18.6716 19.3284 18 18.5 18ZM4.25829 14.9152C2.64828 13.3052 2.64828 10.6948 4.25829 9.08481C5.776 7.5671 8.20428 7.46778 9.84087 8.85646L12 10.6885L14.1591 8.85647C15.7957 7.46778 18.2239 7.5671 19.7416 9.08481C21.3517 10.6948 21.3517 13.3052 19.7416 14.9152C18.2239 16.4329 15.7957 16.5322 14.1591 15.1435L12 13.3115L9.84086 15.1435C8.20428 16.5322 5.776 16.4329 4.25829 14.9152ZM5.67251 10.499C4.84354 11.328 4.84354 12.672 5.67251 13.501C6.45395 14.2824 7.70422 14.3336 8.54687 13.6186L10.4544 12L8.54687 10.3814C7.70423 9.66644 6.45395 9.71758 5.67251 10.499ZM13.5456 12L15.4531 13.6185C16.2957 14.3336 17.546 14.2824 18.3274 13.501C19.1564 12.672 19.1564 11.328 18.3274 10.499C17.546 9.71758 16.2957 9.66644 15.4531 10.3815L13.5456 12Z" fill="white"/>
</svg>
