<svg width="24" height="24" viewBox="0 0 24 24" fill="none" xmlns="http://www.w3.org/2000/svg">
<path d="M12 9.99988C15.3137 9.99988 18 12.6862 18 15.9999C18 17.0928 17.7074 18.1176 17.1971 18.9999H20C20.5523 18.9999 21 19.4476 21 19.9999C21 20.5522 20.5523 20.9999 20 20.9999H4C3.44772 20.9999 3 20.5522 3 19.9999C3 19.4476 3.44772 18.9999 4 18.9999H6.80311C6.29267 18.1176 6 17.0929 6 15.9999C6 12.6862 8.68629 9.99988 12 9.99988ZM12 11.9999C9.79086 11.9999 8 13.7907 8 15.9999C8 17.1143 8.45514 18.1223 9.19233 18.8486L9.35455 18.9999H14.6459C15.4777 18.2657 16 17.1939 16 15.9999C16 13.7907 14.2091 11.9999 12 11.9999ZM21 14.9999C21.5523 14.9999 22 15.4476 22 15.9999C22 16.5128 21.614 16.9354 21.1166 16.9932L21 16.9999H20C19.4477 16.9999 19 16.5522 19 15.9999C19 15.4871 19.386 15.0644 19.8834 15.0066L20 14.9999H21ZM4 14.9999C4.55228 14.9999 5 15.4476 5 15.9999C5 16.5128 4.61396 16.9354 4.11662 16.9932L4 16.9999H3C2.44772 16.9999 2 16.5522 2 15.9999C2 15.4871 2.38604 15.0644 2.88338 15.0066L3 14.9999H4ZM6.34312 8.92876L7.05023 9.63587C7.44075 10.0264 7.44075 10.6596 7.05023 11.0501C6.6597 11.4406 6.02654 11.4406 5.63601 11.0501L4.92891 10.343C4.53838 9.95245 4.53838 9.31928 4.92891 8.92876C5.31943 8.53823 5.9526 8.53823 6.34312 8.92876ZM17.6569 8.92877C18.0474 8.53825 18.6805 8.53825 19.0711 8.92877C19.4316 9.28926 19.4593 9.85649 19.1543 10.2488L19.0711 10.343L18.364 11.0501C17.9734 11.4406 17.3403 11.4406 16.9498 11.0501C16.5892 10.6896 16.5615 10.1224 16.8666 9.73009L16.9498 9.63588L17.6569 8.92877ZM12 1.87988C12.5128 1.87988 12.9355 2.26593 12.9933 2.76326L13 2.87988V5.58566L13.4142 5.17145C13.8047 4.78093 14.4379 4.78093 14.8284 5.17145C15.1889 5.53194 15.2166 6.09917 14.9116 6.49146L14.8284 6.58566L12.7071 8.70698C12.3466 9.06747 11.7794 9.0952 11.3871 8.79017L11.2929 8.70698L9.17156 6.58566C8.78103 6.19514 8.78103 5.56198 9.17156 5.17145C9.53204 4.81097 10.0992 4.78324 10.4916 5.08826L10.5858 5.17145L11 5.58566V2.87988C11 2.3276 11.4477 1.87988 12 1.87988Z" fill="white"/>
</svg>
