<svg width="24" height="24" viewBox="0 0 24 24" fill="none" xmlns="http://www.w3.org/2000/svg">
<path fill-rule="evenodd" clip-rule="evenodd" d="M9 2C10.5977 2 11.9037 3.24892 11.9949 4.82373L12 5V5.56844C12.339 5.39228 12.7578 5.42344 13.0687 5.6619L13.168 5.74907C13.5656 6.14667 13.5656 6.77983 13.1751 7.17035C12.8888 7.45668 12.472 7.53307 12.1161 7.39955L12 7.34727V9.85821C12.0066 9.9046 12.01 9.95203 12.01 10.0002L12.0075 10.072L12 10.1423V12.647C12.3789 12.4423 12.8621 12.5 13.1822 12.8201C13.5427 13.1806 13.5704 13.7478 13.2654 14.1401L13.1724 14.2441C13.695 15.034 14 15.9815 14 17C14 19.7614 11.7614 22 9 22C6.23858 22 4 19.7614 4 17C4 15.4072 4.74591 13.988 5.90349 13.074C5.93425 13.0497 5.95677 13.0256 5.97236 13.005L6 12.9559V5C6 3.34315 7.34315 2 9 2ZM9 4C8.48717 4 8.06449 4.38604 8.00673 4.88338L8 5V12.9583C8 13.6331 7.66331 14.1841 7.25563 14.5489L7.14289 14.6437C6.44499 15.1948 6 16.0451 6 17C6 18.6569 7.34315 20 9 20C10.6569 20 12 18.6569 12 17C12 16.1133 11.6163 15.3168 11.0027 14.7663L10.8571 14.6437C10.4387 14.3133 10.0672 13.791 10.0081 13.1392L10 12.9583V5C10 4.44772 9.55228 4 9 4ZM16 13.9902C16.5128 13.9902 16.9355 14.3762 16.9933 14.8736L17 15.0002C17 15.5525 16.5523 16.0002 16 16.0002C15.4872 16.0002 15.0645 15.6142 15.0067 15.1168L15 14.9902C15 14.4379 15.4477 13.9902 16 13.9902ZM20.2391 12.8201C20.6367 13.2177 20.6367 13.8509 20.2462 14.2414C19.8856 14.6019 19.3185 14.6296 18.9262 14.3246L18.8249 14.2343C18.4344 13.8438 18.4344 13.2106 18.8249 12.8201C19.2154 12.4296 19.8486 12.4296 20.2391 12.8201ZM16 7.00024C17.6569 7.00024 19 8.34339 19 10.0002C19 11.6571 17.6569 13.0002 16 13.0002C14.3431 13.0002 13 11.6571 13 10.0002C13 8.34339 14.3431 7.00024 16 7.00024ZM16 9.00024C15.4477 9.00024 15 9.44796 15 10.0002C15 10.5525 15.4477 11.0002 16 11.0002C16.5523 11.0002 17 10.5525 17 10.0002C17 9.44796 16.5523 9.00024 16 9.00024ZM21 9.00024C21.5523 9.00024 22 9.44796 22 10.0002C22 10.5131 21.614 10.9357 21.1166 10.9935L20.99 11.0002C20.4377 11.0002 19.99 10.5525 19.99 10.0002C19.99 9.48741 20.376 9.06473 20.8734 9.00697L21 9.00024ZM20.2462 5.75615C20.6067 6.11664 20.6344 6.68387 20.3294 7.07616L20.2391 7.17744C19.8486 7.56796 19.2154 7.56796 18.8249 7.17743C18.4644 6.81695 18.4367 6.24972 18.7417 5.85743L18.832 5.75615C19.2225 5.36562 19.8556 5.36563 20.2462 5.75615ZM16 3.99023C16.5128 3.99023 16.9355 4.37627 16.9933 4.87361L17 5.00023C17 5.55252 16.5523 6.00023 16 6.00023C15.4872 6.00023 15.0645 5.61419 15.0067 5.11685L15 4.99023C15 4.43795 15.4477 3.99023 16 3.99023Z" fill="white"/>
</svg>
