<svg width="24" height="24" viewBox="0 0 24 24" fill="none" xmlns="http://www.w3.org/2000/svg">
<path fill-rule="evenodd" clip-rule="evenodd" d="M12 6C8.68629 6 6 8.68629 6 12C6 12.0711 6.00123 12.1419 6.00368 12.2123C6.39367 12.0749 6.81322 12 7.25 12C8.76879 12 10.0749 12.9022 10.6648 14.1988C12.0253 14.6789 13 15.9749 13 17.5C13 17.6425 12.9914 17.783 12.9748 17.9212C15.8249 17.4555 18 14.9818 18 12C18 11.081 17.7941 10.2128 17.4268 9.43679C17.0945 8.73472 16.6294 8.10665 16.0635 7.58546C14.9939 6.60031 13.5682 6 12 6ZM11.9496 19.9998C11.3191 20.6175 10.4542 21 9.5 21H5C3.34315 21 2 19.6569 2 18C2 16.8819 2.61112 15.908 3.51692 15.392C3.57904 14.7376 3.80961 14.1316 4.1641 13.619C4.05643 13.0954 4 12.5538 4 12C4 7.58172 7.58172 4 12 4C13.5681 4 15.032 4.45192 16.2669 5.23187C16.7214 4.56101 17.4898 4.12013 18.3611 4.12013C19.3189 4.12013 20.1507 4.65224 20.5797 5.43603C21.4165 5.80763 22 6.64508 22 7.62011C22 8.89317 21.0042 9.93363 19.749 10.0051C19.9129 10.6434 20 11.312 20 12C20 16.4183 16.4183 20 12 20C11.9832 20 11.9664 19.9999 11.9496 19.9998ZM18.9347 8.00899L19.6111 8.00899C19.8259 8.00899 20 7.83487 20 7.62011C20 7.42779 19.8594 7.26638 19.6754 7.23637C19.2878 7.17314 18.973 6.88883 18.8708 6.50958C18.8102 6.2845 18.6036 6.12013 18.3611 6.12013C18.1074 6.12013 17.8956 6.29908 17.8449 6.5376C18.2614 6.98317 18.6278 7.47662 18.9347 8.00899ZM7.25 14C6.74858 14 6.29773 14.2096 5.9774 14.5487C5.68053 14.8631 5.5 15.2844 5.5 15.75C5.5 15.8172 5.50374 15.8831 5.51095 15.9477C5.56662 16.4461 5.24452 16.9086 4.75776 17.0293C4.32202 17.1373 4 17.5323 4 18C4 18.5523 4.44772 19 5 19H9.5C9.99454 19 10.4332 18.7617 10.7081 18.3894C10.8918 18.1406 11 17.8344 11 17.5C11 16.7554 10.4565 16.1358 9.74453 16.0197C9.35688 15.9564 9.04214 15.6721 8.93996 15.2929C8.73908 14.5474 8.05718 14 7.25 14Z" fill="white"/>
</svg>
