<svg width="24" height="24" viewBox="0 0 24 24" fill="none" xmlns="http://www.w3.org/2000/svg">
<path fill-rule="evenodd" clip-rule="evenodd" d="M12.4442 4.38738C12.6711 4.09457 13.0413 3.95117 13.4062 4.01469C14.4664 4.19923 15.4555 4.58932 16.3308 5.14175C16.7915 4.5218 17.5294 4.12012 18.3611 4.12012C19.3189 4.12012 20.1507 4.65223 20.5797 5.43602C21.4165 5.80762 22 6.64507 22 7.6201C22 8.85286 21.0662 9.86752 19.8674 9.99539C20.0317 10.6391 20.1189 11.3131 20.1189 12.0065C20.1189 16.4868 16.4869 20.1188 12.0066 20.1188C11.9457 20.1188 11.8849 20.1182 11.8242 20.1168C11.2068 20.6654 10.3922 21 9.5 21H5C3.34315 21 2 19.6568 2 18C2 16.8819 2.6111 15.908 3.51687 15.392C3.69712 13.4888 5.29969 12 7.25 12C7.95276 12 8.61183 12.1941 9.17466 12.5311C11.2702 11.8515 12.7847 9.88229 12.7847 7.56145C12.7847 6.7932 12.6194 6.06624 12.3235 5.41192C12.1709 5.07441 12.2174 4.68018 12.4442 4.38738ZM10.6649 14.1988C10.6507 14.1677 10.6362 14.1368 10.6212 14.1062C13.0807 12.9544 14.7847 10.4578 14.7847 7.56145C14.7847 7.20911 14.7594 6.86236 14.7105 6.52304C15.2415 6.78547 15.7293 7.12301 16.16 7.52215C16.7397 8.05939 17.2147 8.70709 17.5516 9.43092C17.9153 10.2124 18.1189 11.0843 18.1189 12.0065C18.1189 15.0588 15.8817 17.5885 12.9577 18.0453C12.9855 17.8675 13 17.6854 13 17.5C13 15.9749 12.0253 14.679 10.6649 14.1988ZM19.067 8.00898H19.6111C19.8259 8.00898 20 7.83486 20 7.6201C20 7.42778 19.8594 7.26637 19.6754 7.23636C19.2878 7.17313 18.973 6.88882 18.8708 6.50957C18.8102 6.28449 18.6036 6.12012 18.3611 6.12012C18.1523 6.12012 17.9718 6.24138 17.8862 6.41731C18.3412 6.89582 18.7386 7.43006 19.067 8.00898ZM7.25 14C6.2835 14 5.5 14.7835 5.5 15.75C5.5 15.8172 5.50374 15.8831 5.51095 15.9477C5.56662 16.4461 5.24452 16.9086 4.75776 17.0293C4.32202 17.1373 4 17.5323 4 18C4 18.5523 4.44772 19 5 19H9.5C9.9642 19 10.3786 18.7903 10.6553 18.4568C10.8711 18.1968 11 17.8647 11 17.5C11 16.7554 10.4565 16.1358 9.74453 16.0197C9.35688 15.9564 9.04214 15.6721 8.93996 15.2929C8.84402 14.9368 8.63719 14.6236 8.35661 14.3942C8.05473 14.1473 7.67091 14 7.25 14Z" fill="white"/>
</svg>
