<svg width="24" height="24" viewBox="0 0 24 24" fill="none" xmlns="http://www.w3.org/2000/svg">
<path fill-rule="evenodd" clip-rule="evenodd" d="M7.37154 3.0713C7.88433 3.27641 8.13374 3.85838 7.92863 4.37117L7.10081 6.44073C6.48932 7.96945 6.66963 9.70122 7.58294 11.0712L8.08147 11.819C9.3601 13.7369 9.61255 16.1614 8.75645 18.3016L7.92863 20.3712C7.72352 20.884 7.14155 21.1334 6.62876 20.9283C6.11598 20.7231 5.86656 20.1412 6.07168 19.6284L6.8995 17.5588C7.51099 16.0301 7.33067 14.2983 6.41737 12.9284L5.91884 12.1806C4.64021 10.2626 4.38777 7.83815 5.24385 5.69794L6.07168 3.62839C6.27679 3.1156 6.85876 2.86619 7.37154 3.0713ZM12.3715 3.0713C12.8843 3.27641 13.1337 3.85838 12.9286 4.37117L12.1008 6.44073C11.4893 7.96945 11.6696 9.70122 12.5829 11.0712L13.0814 11.819C14.3601 13.7369 14.6125 16.1614 13.7564 18.3016L12.9286 20.3712C12.7235 20.884 12.1415 21.1334 11.6287 20.9283C11.1159 20.7231 10.8665 20.1412 11.0716 19.6284L11.8995 17.5588C12.5109 16.0301 12.3306 14.2983 11.4173 12.9284L10.9188 12.1806C9.64021 10.2626 9.38777 7.83815 10.2438 5.69794L11.0716 3.62839C11.2767 3.1156 11.8587 2.86619 12.3715 3.0713ZM17.3715 3.0713C17.8843 3.27641 18.1337 3.85838 17.9286 4.37117L17.1008 6.44073C16.4893 7.96945 16.6696 9.70122 17.5829 11.0712L18.0814 11.819C19.3601 13.7369 19.6125 16.1614 18.7564 18.3016L17.9286 20.3712C17.7235 20.884 17.1415 21.1334 16.6287 20.9283C16.1159 20.7231 15.8665 20.1412 16.0716 19.6284L16.8995 17.5588C17.5109 16.0301 17.3306 14.2983 16.4173 12.9284L15.9188 12.1806C14.6402 10.2626 14.3877 7.83815 15.2438 5.69794L16.0716 3.62839C16.2768 3.1156 16.8587 2.86619 17.3715 3.0713Z" fill="white"/>
</svg>
