<svg width="24" height="24" viewBox="0 0 24 24" fill="none" xmlns="http://www.w3.org/2000/svg">
<path d="M18.5 6C20.433 6 22 7.567 22 9.5C22 11.433 20.433 13 18.5 13H3C2.44772 13 2 12.5523 2 12C2 11.4477 2.44772 11 3 11H18.5C19.3284 11 20 10.3284 20 9.5C20 8.67157 19.3284 8 18.5 8C17.8238 8 17.2503 8.44834 17.0639 9.06444L17.03 9.19893C16.9202 9.74018 16.3923 10.0899 15.8511 9.98001C15.3098 9.87015 14.9601 9.34231 15.07 8.80107C15.3944 7.20308 16.8056 6 18.5 6ZM11 3C12.6569 3 14 4.34315 14 6C14 7.65685 12.6569 9 11 9H5C4.44772 9 4 8.55228 4 8C4 7.44772 4.44772 7 5 7H11C11.5523 7 12 6.55228 12 6C12 5.44772 11.5523 5 11 5C10.6721 5 10.38 5.15741 10.1967 5.40415L10.1332 5.50073C9.85664 5.97879 9.24491 6.14215 8.76685 5.86561C8.28879 5.58906 8.12543 4.97733 8.40197 4.49927C8.91917 3.60518 9.88833 3 11 3ZM5 3C5.55228 3 6 3.44772 6 4C6 4.55228 5.55228 5 5 5C4.44772 5 4 4.55228 4 4C4 3.44772 4.44772 3 5 3ZM17 3C17.5523 3 18 3.44772 18 4C18 4.55228 17.5523 5 17 5C16.4477 5 16 4.55228 16 4C16 3.44772 16.4477 3 17 3ZM9 19C9.55228 19 10 19.4477 10 20C10 20.5523 9.55228 21 9 21C8.44772 21 8 20.5523 8 20C8 19.4477 8.44772 19 9 19ZM14.5 15C15.8807 15 17 16.1193 17 17.5C17 18.8807 15.8807 20 14.5 20C13.8603 20 13.2747 19.7585 12.8331 19.3632C12.4216 18.9949 12.3865 18.3627 12.7549 17.9511C13.0949 17.5713 13.6597 17.5122 14.0682 17.7951L14.1669 17.8729C14.256 17.9527 14.3713 18 14.5 18C14.7761 18 15 17.7761 15 17.5C15 17.2239 14.7761 17 14.5 17H7C6.44772 17 6 16.5523 6 16C6 15.4477 6.44772 15 7 15H14.5ZM21 17C21 17.5523 20.5523 18 20 18C19.4477 18 19 17.5523 19 17C19 16.4477 19.4477 16 20 16C20.5523 16 21 16.4477 21 17Z" fill="white"/>
</svg>
