<svg width="24" height="24" viewBox="0 0 24 24" fill="none" xmlns="http://www.w3.org/2000/svg">
<path fill-rule="evenodd" clip-rule="evenodd" d="M5 12C5 8.68629 7.68629 6 11 6C13.6623 6 15.9179 7.73308 16.7033 10.1322C19.1625 10.6813 21 12.8756 21 15.5C21 18.5376 18.5376 21 15.5 21H6.5C4.01472 21 2 18.9853 2 16.5C2 14.5384 3.25449 12.8708 5.00531 12.2544C5.00178 12.17 5 12.0852 5 12ZM11 8C8.79086 8 7 9.79086 7 12C7 12.2815 7.02893 12.5553 7.08366 12.8187C7.14087 13.0942 7.07941 13.381 6.91434 13.6088C6.74927 13.8366 6.49587 13.9844 6.2163 14.0158C4.96963 14.156 4 15.2155 4 16.5C4 17.8807 5.11929 19 6.5 19H15.5C17.433 19 19 17.433 19 15.5C19 13.6733 17.5999 12.1726 15.815 12.0139C15.3729 11.9746 15.0096 11.6485 14.9228 11.2132C14.5578 9.38075 12.9391 8 11 8Z" fill="white"/>
<path d="M14.7989 4.42087C14.4641 3.67533 15.105 2.87615 15.8937 3.01535C19.3638 3.62782 21.9999 6.65628 21.9999 10.3025C21.9999 11.7552 21.5813 13.1102 20.8581 14.2534C20.6618 13.4061 20.2697 12.6339 19.732 11.987C19.9059 11.4569 19.9999 10.8907 19.9999 10.3025C19.9999 8.24564 18.8494 6.45632 17.1567 5.54463C17.1852 5.7935 17.1998 6.04644 17.1998 6.3026C17.1998 7.43033 16.917 8.492 16.4184 9.42054C16.0794 8.70966 15.6047 8.07597 15.0278 7.55301C15.1399 7.15543 15.1998 6.73602 15.1998 6.3026C15.1998 5.63019 15.0562 4.99401 14.7989 4.42087Z" fill="#616AFB"/>
</svg>
