<svg width="24" height="24" viewBox="0 0 24 24" fill="none" xmlns="http://www.w3.org/2000/svg">
<path fill-rule="evenodd" clip-rule="evenodd" d="M16.6958 2.37821C17.1512 1.95791 17.8488 1.95792 18.3042 2.37821C18.5841 2.63646 19.2337 3.26955 19.8205 4.1016C20.3904 4.90964 21 6.0429 21 7.27768C21 9.25154 19.5115 10.9999 17.5 10.9999C15.4885 10.9999 14 9.25154 14 7.27768C14 6.0429 14.6096 4.90964 15.1795 4.1016C15.7663 3.26955 16.4159 2.63646 16.6958 2.37821ZM17.5 4.40572C17.2842 4.64221 17.0417 4.93135 16.8139 5.25428C16.3237 5.94942 16 6.66431 16 7.27768C16 8.31071 16.75 8.99991 17.5 8.99991C18.25 8.99991 19 8.31071 19 7.27768C19 6.66431 18.6763 5.94942 18.1861 5.25428C17.9583 4.93135 17.7158 4.64221 17.5 4.40572ZM4.70815 5.36339C5.15912 4.95685 5.84088 4.95685 6.29185 5.36339C6.49768 5.54894 6.89999 5.93594 7.25818 6.43581C7.59978 6.91254 8 7.62697 8 8.44435C8 9.82115 6.91468 10.9999 5.5 10.9999C4.08532 10.9999 3 9.82115 3 8.44435C3 7.62697 3.40022 6.91254 3.74182 6.43581C4.10001 5.93594 4.50232 5.54894 4.70815 5.36339ZM5.5 7.42655C5.45508 7.48243 5.41059 7.54065 5.36754 7.60073C5.10974 7.96051 5 8.2539 5 8.44435C5 8.78576 5.25782 8.99991 5.5 8.99991C5.74218 8.99991 6 8.78576 6 8.44435C6 8.2539 5.89026 7.96051 5.63246 7.60073C5.58941 7.54065 5.54491 7.48243 5.5 7.42655ZM10.2108 9.36135C10.6624 8.95948 11.3376 8.95948 11.7892 9.36135C12.1527 9.68487 13.1786 10.6394 14.1212 11.921C15.0436 13.175 16 14.8938 16 16.7221C16 19.5727 13.8236 21.9999 11 21.9999C8.1764 21.9999 6 19.5727 6 16.7221C6 14.8938 6.95643 13.175 7.8788 11.921C8.8214 10.6394 9.84727 9.68487 10.2108 9.36135ZM11 11.3658C10.5809 11.7822 10.0179 12.3881 9.48994 13.106C8.64346 14.2569 8 15.5442 8 16.7221C8 18.5967 9.40532 19.9999 11 19.9999C12.5947 19.9999 14 18.5967 14 16.7221C14 15.5442 13.3565 14.2569 12.5101 13.106C11.9821 12.3881 11.4191 11.7822 11 11.3658Z" fill="#60C6FF"/>
</svg>
