<svg width="24" height="24" viewBox="0 0 24 24" fill="none" xmlns="http://www.w3.org/2000/svg">
<path d="M11.5 2C14.2856 2 16.66 3.75154 17.5856 6.21198C20.13 6.90766 22 9.23462 22 12C22 13.6352 21.3445 15.119 20.2844 16.2001C20.0721 16.4166 19.8435 16.617 19.6006 16.7995C19.159 17.1312 18.5322 17.0422 18.2005 16.6006C17.8688 16.159 17.9578 15.5322 18.3994 15.2005C18.5617 15.0786 18.7144 14.9446 18.8563 14.7999C19.5648 14.0773 20 13.0905 20 12C20 10.0145 18.5524 8.36524 16.6552 8.05324C16.2654 7.98914 15.9477 7.7033 15.8441 7.32051C15.326 5.40663 13.576 4 11.5 4C9.01472 4 7 6.01472 7 8.5C7 8.66909 7.00928 8.83564 7.02729 8.99923C7.08294 9.50471 6.75509 9.9678 6.26851 10.0896C4.96468 10.4159 4 11.5965 4 13C4 13.8959 4.39144 14.6991 5.01591 15.2503C5.42998 15.6157 5.46938 16.2477 5.10391 16.6617C4.73845 17.0758 4.10651 17.1152 3.69244 16.7497C2.65607 15.835 2 14.4935 2 13C2 10.9486 3.23468 9.18749 5.00053 8.41614C5.04543 4.86494 7.93814 2 11.5 2Z" fill="white"/>
<path d="M9.88892 19.6559C10.0318 19.1224 10.5802 18.8059 11.1136 18.9488C11.6471 19.0917 11.9637 19.6401 11.8207 20.1735L11.5619 21.1395C11.419 21.6729 10.8706 21.9895 10.3372 21.8466C9.80374 21.7036 9.48715 21.1553 9.6301 20.6218L9.88892 19.6559ZM7.69366 17.7935C8.22713 17.9365 8.54371 18.4848 8.40077 19.0183L8.14195 19.9842C7.99901 20.5177 7.45067 20.8343 6.91721 20.6913C6.38374 20.5484 6.06716 20 6.2101 19.4666L6.46892 18.5006C6.61186 17.9672 7.1602 17.6506 7.69366 17.7935ZM15.0272 17.7935C15.5607 17.9365 15.8773 18.4848 15.7343 19.0183L15.4755 19.9842C15.3326 20.5177 14.7842 20.8343 14.2508 20.6913C13.7173 20.5484 13.4007 20 13.5436 19.4666L13.8025 18.5006C13.9454 17.9672 14.4937 17.6506 15.0272 17.7935ZM12.1489 15.0851C12.6824 15.228 12.9989 15.7764 12.856 16.3098L12.5972 17.2758C12.4542 17.8092 11.9059 18.1258 11.3724 17.9829C10.839 17.8399 10.5224 17.2916 10.6653 16.7581L10.9242 15.7922C11.0671 15.2587 11.6154 14.9422 12.1489 15.0851ZM8.72894 13.9298C9.26241 14.0728 9.57899 14.6211 9.43605 15.1546L9.17723 16.1205C9.03429 16.654 8.48595 16.9705 7.95248 16.8276C7.41902 16.6847 7.10243 16.1363 7.24538 15.6029L7.50419 14.6369C7.64714 14.1035 8.19547 13.7869 8.72894 13.9298ZM16.0625 13.9298C16.596 14.0728 16.9125 14.6211 16.7696 15.1546L16.5108 16.1205C16.3678 16.654 15.8195 16.9706 15.286 16.8276C14.7526 16.6847 14.436 16.1363 14.5789 15.6029L14.8377 14.6369C14.9807 14.1035 15.529 13.7869 16.0625 13.9298Z" fill="#60C6FF"/>
</svg>
