<svg width="24" height="24" viewBox="0 0 24 24" fill="none" xmlns="http://www.w3.org/2000/svg">
<path fill-rule="evenodd" clip-rule="evenodd" d="M11.5004 2C7.93856 2 5.04586 4.86491 5.00093 8.41609C3.41695 9.10784 2.2611 10.5955 2.03904 12.3763C1.9707 12.9243 2.35957 13.424 2.90761 13.4923C3.45565 13.5607 3.95533 13.1718 4.02367 12.6237C4.17748 11.3903 5.08373 10.3862 6.26892 10.0896C6.7555 9.9678 7.08334 9.50471 7.0277 8.99923C7.00969 8.83564 7.0004 8.66909 7.0004 8.5C7.0004 6.01472 9.01512 4 11.5004 4C13.5763 4 15.3263 5.40663 15.8445 7.32051C15.9481 7.7033 16.2657 7.98914 16.6555 8.05324C18.5528 8.36524 20.0004 10.0145 20.0004 12C20.0004 12.1357 19.9936 12.2695 19.9806 12.4012C19.926 12.9508 20.3273 13.4405 20.8769 13.4951C21.4265 13.5497 21.9162 13.1484 21.9708 12.5988C21.9904 12.4016 22.0004 12.2018 22.0004 12C22.0004 9.23462 20.1304 6.90766 17.5859 6.21198C16.6603 3.75154 14.286 2 11.5004 2ZM3.00034 16C3.00034 15.4477 3.44806 15 4.00034 15H20.0003C20.5526 15 21.0003 15.4477 21.0003 16C21.0003 16.5523 20.5526 17 20.0003 17H4.00034C3.44806 17 3.00034 16.5523 3.00034 16ZM7.00034 20C7.00034 19.4477 7.44806 19 8.00034 19H17.0003C17.5526 19 18.0003 19.4477 18.0003 20C18.0003 20.5523 17.5526 21 17.0003 21H8.00034C7.44806 21 7.00034 20.5523 7.00034 20Z" fill="white"/>
</svg>
