<svg width="24" height="24" viewBox="0 0 24 24" fill="none" xmlns="http://www.w3.org/2000/svg">
<path d="M11.9999 13C12.5522 13 12.9999 13.4477 12.9999 14V15.2679L14.098 14.634C14.5763 14.3578 15.1879 14.5217 15.464 15C15.7402 15.4783 15.5763 16.0899 15.098 16.366L13.9999 17L15.098 17.634C15.5763 17.9101 15.7402 18.5217 15.4641 19C15.1879 19.4783 14.5763 19.6422 14.098 19.366L12.9999 18.732V20C12.9999 20.5523 12.5522 21 11.9999 21C11.4477 21 10.9999 20.5523 10.9999 20V18.732L9.90186 19.366C9.42356 19.6422 8.81197 19.4783 8.53583 19C8.25969 18.5217 8.42356 17.9101 8.90186 17.634L9.99995 17L8.90189 16.366C8.42359 16.0899 8.25972 15.4783 8.53586 15C8.812 14.5217 9.42359 14.3578 9.90189 14.634L10.9999 15.2679V14C10.9999 13.4477 11.4477 13 11.9999 13ZM11.5 2C14.2856 2 16.66 3.75154 17.5856 6.21198C20.13 6.90766 22 9.23462 22 12C22 13.9637 21.0555 15.7067 19.6006 16.7995C19.159 17.1312 18.5322 17.0422 18.2005 16.6006C17.8688 16.159 17.9578 15.5322 18.3994 15.2005C19.3732 14.4689 20 13.3078 20 12C20 10.0145 18.5524 8.36524 16.6552 8.05324C16.2654 7.98914 15.9477 7.7033 15.8441 7.32051C15.326 5.40663 13.576 4 11.5 4C9.01472 4 7 6.01472 7 8.5C7 8.66909 7.00928 8.83564 7.02729 8.99923C7.08294 9.50471 6.75509 9.9678 6.26851 10.0896C4.96468 10.4159 4 11.5965 4 13C4 13.8959 4.39144 14.6991 5.01591 15.2503C5.42998 15.6157 5.46938 16.2477 5.10391 16.6617C4.73845 17.0758 4.10651 17.1152 3.69244 16.7497C2.65607 15.835 2 14.4935 2 13C2 10.9486 3.23468 9.18749 5.00053 8.41614C5.04543 4.86494 7.93814 2 11.5 2Z" fill="white"/>
</svg>
