<svg width="24" height="24" viewBox="0 0 24 24" fill="none" xmlns="http://www.w3.org/2000/svg">
<path d="M9.00011 16C9.55239 16 10.0001 16.4477 10.0001 17V17.268L10.2322 17.134C10.7105 16.8578 11.3221 17.0217 11.5982 17.5C11.8743 17.9783 11.7105 18.5899 11.2322 18.866L11.0001 19L11.2322 19.1339C11.7105 19.4101 11.8743 20.0217 11.5982 20.5C11.3221 20.9783 10.7105 21.1421 10.2322 20.866L10.0001 20.732V21C10.0001 21.5523 9.55239 22 9.00011 22C8.44783 22 8.00011 21.5523 8.00011 21V20.7321L7.76807 20.866C7.28978 21.1422 6.67819 20.9783 6.40204 20.5C6.1259 20.0217 6.28978 19.4101 6.76807 19.134L7.00015 19L6.76807 18.866C6.28977 18.5899 6.1259 17.9783 6.40204 17.5C6.67818 17.0217 7.28977 16.8578 7.76807 17.1339L8.00011 17.2679V17C8.00011 16.4477 8.44783 16 9.00011 16ZM14.0001 11C14.5524 11 15.0001 11.4477 15.0001 12V12.268L15.2322 12.134C15.7105 11.8578 16.3221 12.0217 16.5982 12.5C16.8743 12.9783 16.7105 13.5899 16.2322 13.866L16.0001 14L16.2322 14.1339C16.7105 14.4101 16.8743 15.0217 16.5982 15.5C16.3221 15.9783 15.7105 16.1421 15.2322 15.866L15.0001 15.732V16C15.0001 16.5523 14.5524 17 14.0001 17C13.4478 17 13.0001 16.5523 13.0001 16V15.7321L12.7681 15.866C12.2898 16.1422 11.6782 15.9783 11.402 15.5C11.1259 15.0217 11.2898 14.4101 11.7681 14.134L12.0001 14L11.7681 13.866C11.2898 13.5899 11.1259 12.9783 11.402 12.5C11.6782 12.0217 12.2898 11.8578 12.7681 12.1339L13.0001 12.2679V12C13.0001 11.4477 13.4478 11 14.0001 11ZM11.5 2C14.2856 2 16.6599 3.75153 17.5856 6.21198C20.13 6.90766 22 9.23463 22 12C22 13.9634 21.0559 15.7065 19.6012 16.7995C19.1596 17.1312 18.5327 17.0422 18.201 16.6007C17.8692 16.1591 17.9583 15.5322 18.3998 15.2005C19.3734 14.469 20 13.3078 20 12C20 10.0127 18.5498 8.36228 16.6501 8.0524C16.2624 7.98917 15.9477 7.70486 15.8455 7.32561C15.3291 5.40914 13.5778 4 11.5 4C9.01472 4 7 6.01472 7 8.5C7 8.67155 7.00955 8.84048 7.02808 9.00636C7.08375 9.50475 6.76165 9.96731 6.27489 10.088C4.96785 10.412 4 11.5942 4 13C4 13.8959 4.39144 14.6991 5.01591 15.2503C5.42998 15.6157 5.46938 16.2477 5.10391 16.6617C4.73845 17.0758 4.10651 17.1152 3.69244 16.7497C2.65607 15.835 2 14.4935 2 13C2 10.9486 3.23466 9.1875 5.00053 8.41614C5.04543 4.86494 7.93814 2 11.5 2Z" fill="white"/>
</svg>
