<svg width="24" height="24" viewBox="0 0 24 24" fill="none" xmlns="http://www.w3.org/2000/svg">
<path d="M19.1489 9.01999C19.6902 9.12985 20.0399 9.65769 19.93 10.1989C19.6056 11.7969 18.1944 13 16.5 13H3C2.44772 13 2 12.5523 2 12C2 11.4477 2.44772 11 3 11H16.5C17.1762 11 17.7497 10.5516 17.9361 9.93555L17.97 9.80107C18.0798 9.25982 18.6077 8.91012 19.1489 9.01999ZM9 3C10.6569 3 12 4.34315 12 6C12 7.65685 10.6569 9 9 9H5C4.44772 9 4 8.55228 4 8C4 7.44772 4.44772 7 5 7H9C9.55229 7 10 6.55228 10 6C10 5.44772 9.55229 5 9 5C8.67212 5 8.38005 5.15741 8.1967 5.40415L8.13318 5.50073C7.85664 5.97879 7.24491 6.14215 6.76685 5.86561C6.28879 5.58906 6.12543 4.97733 6.40197 4.49927C6.91917 3.60518 7.88833 3 9 3ZM16.0021 3C16.5543 3 17.0021 3.44772 17.0021 4V4.26796L17.2341 4.13398C17.7124 3.85784 18.324 4.02171 18.6002 4.5C18.8763 4.9783 18.7124 5.58989 18.2341 5.86603L18.0021 6L18.2341 6.13395C18.7124 6.41009 18.8763 7.02168 18.6001 7.49997C18.324 7.97827 17.7124 8.14214 17.2341 7.866L17.0021 7.73202V8C17.0021 8.55228 16.5543 9 16.0021 9C15.4498 9 15.0021 8.55228 15.0021 8V7.73206L14.77 7.86603C14.2917 8.14217 13.6801 7.9783 13.404 7.5C13.1279 7.02171 13.2917 6.41012 13.77 6.13398L14.0021 6L13.77 5.866C13.2917 5.58986 13.1279 4.97827 13.404 4.49997C13.6801 4.02168 14.2917 3.85781 14.77 4.13395L15.0021 4.26792V4C15.0021 3.44772 15.4498 3 16.0021 3ZM6 15C5.44772 15 5 15.4477 5 16C5 16.5523 5.44772 17 6 17H12.5C12.7761 17 13 17.2239 13 17.5C13 17.7761 12.7761 18 12.5 18C12.4035 18 12.3145 17.9734 12.2384 17.9264L12.1669 17.8729C11.7554 17.5046 11.1232 17.5396 10.7549 17.9511C10.3865 18.3627 10.4216 18.9949 10.8331 19.3632C11.2747 19.7585 11.8603 20 12.5 20C13.8807 20 15 18.8807 15 17.5C15 16.1193 13.8807 15 12.5 15H6ZM19.0001 14C19.5524 14 20.0001 14.4477 20.0001 15V15.268L20.2322 15.134C20.7105 14.8578 21.3221 15.0217 21.5982 15.5C21.8743 15.9783 21.7105 16.5899 21.2322 16.866L21.0001 17L21.2322 17.1339C21.7105 17.4101 21.8743 18.0217 21.5982 18.5C21.3221 18.9783 20.7105 19.1421 20.2322 18.866L20.0001 18.732V19C20.0001 19.5523 19.5524 20 19.0001 20C18.4478 20 18.0001 19.5523 18.0001 19V18.7321L17.7681 18.866C17.2898 19.1422 16.6782 18.9783 16.402 18.5C16.1259 18.0217 16.2898 17.4101 16.7681 17.134L17.0001 17L16.7681 16.866C16.2898 16.5899 16.1259 15.9783 16.402 15.5C16.6782 15.0217 17.2898 14.8578 17.7681 15.1339L18.0001 15.2679V15C18.0001 14.4477 18.4478 14 19.0001 14Z" fill="white"/>
</svg>
