<svg width="24" height="24" viewBox="0 0 24 24" fill="none" xmlns="http://www.w3.org/2000/svg">
<path d="M22 15.9999C22 15.4476 21.5523 14.9999 21 14.9999H20C19.4477 14.9999 19 15.4476 19 15.9999C19 16.5522 19.4477 16.9999 20 16.9999H21C21.5523 16.9999 22 16.5522 22 15.9999Z" fill="#FFC548"/>
<path d="M5 15.9999C5 15.4476 4.55228 14.9999 4 14.9999H3C2.44772 14.9999 2 15.4476 2 15.9999C2 16.5522 2.44772 16.9999 3 16.9999H4C4.55228 16.9999 5 16.5522 5 15.9999Z" fill="#FFC548"/>
<path d="M6.24891 8.84557C5.85662 8.54054 5.28939 8.56827 4.92891 8.92876C4.53838 9.31928 4.53838 9.95245 4.92891 10.343L5.63601 11.0501L5.73022 11.1333C6.12251 11.4383 6.68974 11.4106 7.05023 11.0501C7.44075 10.6596 7.44075 10.0264 7.05023 9.63586L6.34312 8.92876L6.24891 8.84557Z" fill="#FFC548"/>
<path d="M18.364 11.0501L19.0711 10.343C19.4616 9.95246 19.4616 9.3193 19.0711 8.92877C18.6805 8.53825 18.0474 8.53825 17.6569 8.92877L16.9498 9.63588C16.5592 10.0264 16.5592 10.6596 16.9498 11.0501C17.3403 11.4406 17.9734 11.4406 18.364 11.0501Z" fill="#FFC548"/>
<path d="M12 9.99988C15.3137 9.99988 18 12.6862 18 15.9999C18 17.0928 17.7074 18.1176 17.1971 18.9999H14.6459C15.4777 18.2657 16 17.1939 16 15.9999C16 13.7907 14.2091 11.9999 12 11.9999C9.79086 11.9999 8 13.7907 8 15.9999C8 17.1143 8.45514 18.1222 9.19233 18.8486L9.35455 18.9999H6.80311C6.29267 18.1176 6 17.0929 6 15.9999C6 12.6862 8.68629 9.99988 12 9.99988Z" fill="#FFC548"/>
<path d="M14.8286 6.58566L12.7073 8.70698C12.3168 9.09751 11.6836 9.09751 11.2931 8.70698L9.1718 6.58566C8.78128 6.19514 8.78128 5.56197 9.1718 5.17145C9.56233 4.78093 10.1955 4.78093 10.586 5.17145L11.0002 5.58566V2.87988C11.0002 2.3276 11.4479 1.87988 12.0002 1.87988C12.5525 1.87988 13.0002 2.3276 13.0002 2.87988V5.58566L13.4144 5.17145C13.8049 4.78093 14.4381 4.78093 14.8286 5.17145C15.2192 5.56197 15.2192 6.19514 14.8286 6.58566Z" fill="white"/>
<path d="M20 18.9999C20.5523 18.9999 21 19.4476 21 19.9999C21 20.5522 20.5523 20.9999 20 20.9999H4C3.44772 20.9999 3 20.5522 3 19.9999C3 19.4476 3.44772 18.9999 4 18.9999H20Z" fill="white"/>
</svg>
