<svg width="24" height="24" viewBox="0 0 24 24" fill="none" xmlns="http://www.w3.org/2000/svg">
<path fill-rule="evenodd" clip-rule="evenodd" d="M7.37106 3.0713C7.88385 3.27641 8.13326 3.85838 7.92815 4.37117L7.10033 6.44073C6.48884 7.96945 6.66915 9.70122 7.58246 11.0712L8.08099 11.819C9.35962 13.7369 9.61206 16.1614 8.75597 18.3016L7.92815 20.3712C7.72304 20.884 7.14107 21.1334 6.62828 20.9283C6.1155 20.7231 5.86608 20.1412 6.0712 19.6284L6.89902 17.5588C7.51051 16.0301 7.33019 14.2983 6.41689 12.9284L5.91836 12.1806C4.63973 10.2626 4.38729 7.83815 5.24337 5.69794L6.0712 3.62839C6.27631 3.1156 6.85828 2.86619 7.37106 3.0713ZM12.3711 3.0713C12.8839 3.27641 13.1333 3.85838 12.9282 4.37117L12.1004 6.44073C11.4889 7.96945 11.6692 9.70122 12.5825 11.0712L13.081 11.819C14.3597 13.7369 14.6121 16.1614 13.756 18.3016L12.9282 20.3712C12.7231 20.884 12.1411 21.1334 11.6283 20.9283C11.1155 20.7231 10.8661 20.1412 11.0712 19.6284L11.8991 17.5588C12.5105 16.0301 12.3302 14.2983 11.4169 12.9284L10.9184 12.1806C9.63973 10.2626 9.38729 7.83815 10.2434 5.69794L11.0712 3.62839C11.2763 3.1156 11.8583 2.86619 12.3711 3.0713ZM17.3711 3.0713C17.8839 3.27641 18.1333 3.85838 17.9282 4.37117L17.1004 6.44073C16.4889 7.96945 16.6692 9.70122 17.5825 11.0712L18.081 11.819C19.3597 13.7369 19.6121 16.1614 18.756 18.3016L17.9282 20.3712C17.7231 20.884 17.1411 21.1334 16.6283 20.9283C16.1155 20.7231 15.8661 20.1412 16.0712 19.6284L16.8991 17.5588C17.5105 16.0301 17.3302 14.2983 16.4169 12.9284L15.9184 12.1806C14.6398 10.2626 14.3873 7.83815 15.2434 5.69794L16.0712 3.62839C16.2764 3.1156 16.8583 2.86619 17.3711 3.0713Z" fill="#FFC548"/>
</svg>
