<svg width="24" height="24" viewBox="0 0 24 24" fill="none" xmlns="http://www.w3.org/2000/svg">
<path fill-rule="evenodd" clip-rule="evenodd" d="M12 3C14.5917 3 16.9861 3.46489 18.7701 4.25776C19.6608 4.65364 20.4435 5.15092 21.0171 5.75363C21.5956 6.3615 22 7.12233 22 8C22 9.36489 21.0596 10.4214 19.8496 11.1745C19.9451 11.4302 20 11.7059 20 12C20 12.8469 19.5465 13.5379 18.9773 14.0452C18.6671 14.3216 18.2993 14.5664 17.8912 14.7807C17.961 15.0069 18 15.2472 18 15.5C18 16.5042 17.3947 17.2947 16.6681 17.8237C16.1947 18.1683 15.6233 18.4412 14.995 18.6369C14.9275 19.5553 14.1875 20.1456 13.5685 20.4551C12.8595 20.8096 11.95 21 11 21C10.05 21 9.14048 20.8096 8.43147 20.4551C7.78227 20.1305 7 19.497 7 18.5C7 17.927 7.27085 17.4641 7.59939 17.1317C7.23735 16.6793 7 16.1337 7 15.5C7 15.3936 7.00697 15.2892 7.0203 15.1869C6.37135 14.9418 5.79038 14.6409 5.31584 14.2846C4.60768 13.7529 4 12.985 4 12C4 11.7059 4.05493 11.4302 4.15041 11.1745C2.94044 10.4214 2 9.36489 2 8C2 7.12233 2.40438 6.3615 2.98287 5.75363C3.55645 5.15092 4.33918 4.65364 5.2299 4.25776C7.01386 3.46489 9.40829 3 12 3ZM9.27247 18.3615C9.18132 18.4108 9.1117 18.4588 9.06166 18.5011C9.11178 18.5434 9.19378 18.6002 9.32589 18.6662C9.70267 18.8546 10.2932 19 11 19C11.225 19 11.4381 18.9853 11.6364 18.9591C10.7739 18.8767 9.96541 18.6714 9.27247 18.3615ZM16 15.502C14.8209 15.8218 13.4494 16 12 16C10.9683 16 9.97822 15.9097 9.07016 15.7433C9.16388 15.9209 9.37017 16.1511 9.7951 16.3888C10.4345 16.7466 11.3894 17 12.5 17C12.8823 17 13.2494 16.9699 13.5935 16.9146C14.417 16.7823 15.0705 16.5129 15.491 16.2068C15.9172 15.8965 15.9992 15.6377 16 15.502ZM17.9952 12.0523C16.319 12.6551 14.2323 13 12 13C9.76777 13 7.68122 12.6551 6.00501 12.0524C6.02628 12.1707 6.12679 12.3925 6.51674 12.6853C6.96291 13.0203 7.6639 13.3449 8.58751 13.5888C9.56253 13.8464 10.7323 14 12 14C13.6015 14 15.0401 13.755 16.1262 13.3697C16.8274 13.1209 17.334 12.8307 17.6467 12.552C17.9057 12.3212 17.978 12.1513 17.9952 12.0523ZM12 5C9.62114 5 7.51558 5.43054 6.04218 6.08538C5.30422 6.41337 4.76892 6.77801 4.43166 7.1324C4.0993 7.48164 4 7.7731 4 8C4 8.45314 4.45672 9.19753 5.99158 9.89193C7.46652 10.5592 9.59292 11 12 11C14.4071 11 16.5335 10.5592 18.0084 9.89193C19.5433 9.19753 20 8.45314 20 8C20 7.7731 19.9007 7.48164 19.5683 7.1324C19.2311 6.77801 18.6958 6.41337 17.9578 6.08538C16.4844 5.43054 14.3789 5 12 5Z" fill="white"/>
</svg>
