<svg width="24" height="24" viewBox="0 0 24 24" fill="none" xmlns="http://www.w3.org/2000/svg">
<path d="M12.4767 4.54557C12.1413 3.79855 12.7835 2.99779 13.5737 3.13729C17.7939 3.88225 20.9998 7.5657 20.9998 12C20.9998 16.9705 16.9703 21 11.9998 21C7.56546 21 3.88201 17.7941 3.13705 13.5739C2.99754 12.7836 3.79837 12.1416 4.54533 12.4769C5.29328 12.8127 6.12328 13 6.99972 13C10.3135 13 12.9998 10.3137 12.9998 6.99996C12.9998 6.12352 12.8125 5.29352 12.4767 4.54557ZM5.56458 7.71573L5.62833 7.85506C5.9011 8.41936 6.33081 8.89305 6.86577 9.21934L6.9651 9.27755C7.01126 9.30351 7.01126 9.36997 6.9651 9.39593L6.86577 9.45414C6.33081 9.78043 5.9011 10.2541 5.62833 10.8184L5.56458 10.9577C5.5396 11.0139 5.45983 11.0139 5.43486 10.9577L5.3711 10.8184C5.09833 10.2541 4.66863 9.78043 4.13367 9.45414L4.03433 9.39593C3.98818 9.36997 3.98818 9.30351 4.03433 9.27755L4.13367 9.21934C4.66863 8.89305 5.09833 8.41936 5.3711 7.85506L5.43486 7.71573C5.45983 7.65953 5.5396 7.65953 5.56458 7.71573ZM8.39638 2.85738C8.43614 2.76792 8.56311 2.76792 8.60286 2.85738L8.70434 3.07914C9.13852 3.97736 9.8225 4.73135 10.6741 5.25072L10.8322 5.34337C10.9056 5.38469 10.9056 5.49048 10.8322 5.5318L10.6741 5.62445C9.8225 6.14382 9.13852 6.89781 8.70434 7.79603C8.66895 7.86924 8.63589 7.94349 8.60286 8.0178C8.56311 8.10725 8.43614 8.10725 8.39638 8.0178L8.29491 7.79603C7.86073 6.89781 7.17675 6.14382 6.32524 5.62445L6.16712 5.5318C6.09365 5.49048 6.09365 5.38469 6.16712 5.34337L6.32524 5.25072C7.17675 4.73135 7.86073 3.97736 8.29491 3.07914L8.39638 2.85738Z" fill="white"/>
</svg>
