<svg width="24" height="24" viewBox="0 0 24 24" fill="none" xmlns="http://www.w3.org/2000/svg">
<path d="M11 6C13.6623 6 15.9179 7.73309 16.7033 10.1322C19.1625 10.6813 21 12.8756 21 15.5C21 18.4635 18.6563 20.8795 15.7212 20.9956L15.5 21H6.5C4.01472 21 2 18.9853 2 16.5C2 14.5384 3.2545 12.8708 5.00531 12.2544C5.00178 12.17 5 12.0852 5 12C5 8.68629 7.68629 6 11 6ZM14.9023 4.67036L14.7991 4.42095C14.4644 3.6754 15.1052 2.87623 15.8939 3.01543C19.3641 3.6279 22.0002 6.65636 22.0002 10.3025C22.0002 11.2503 21.822 12.1564 21.4973 12.9892C20.7638 11.2391 19.2864 9.87787 17.4607 9.30094C16.9763 8.14277 16.1895 7.1425 15.1991 6.3988L15.2001 6.30268C15.2001 5.72632 15.0945 5.17659 14.9023 4.67036Z" fill="white"/>
</svg>
