<svg width="24" height="24" viewBox="0 0 24 24" fill="none" xmlns="http://www.w3.org/2000/svg">
<path d="M11.1318 13.0039C11.4058 12.5243 12.0166 12.3577 12.4961 12.6318C12.9414 12.8862 13.1169 13.4311 12.9202 13.8915L12.8682 13.9961L11.7232 16H13.8277C14.6339 16 15.153 16.8313 14.834 17.5448L14.7827 17.6458L12.8682 20.9961C12.5942 21.4757 11.9834 21.6423 11.5039 21.3682C11.0586 21.1138 10.8831 20.5689 11.0798 20.1085L11.1318 20.0039L12.2768 18H10.1723C9.36611 18 8.847 17.1687 9.16593 16.4552L9.21725 16.3542L11.1318 13.0039ZM11.5 2C14.2856 2 16.66 3.75154 17.5856 6.21198C20.13 6.90766 22 9.23462 22 12C22 15.0379 19.7423 17.5484 16.8133 17.9453C17.2617 16.3904 16.4022 14.7467 14.9194 14.194C15.2201 12.9319 14.6719 11.5716 13.4884 10.8953C12.0499 10.0733 10.2173 10.5731 9.39528 12.0116L7.48078 15.362C6.98583 16.2282 6.96044 17.183 7.2732 18H7C4.23858 18 2 15.7614 2 13C2 10.9486 3.23468 9.18749 5.00053 8.41614C5.04543 4.86494 7.93814 2 11.5 2Z" fill="white"/>
</svg>
