<svg width="24" height="24" viewBox="0 0 24 24" fill="none" xmlns="http://www.w3.org/2000/svg">
<path fill-rule="evenodd" clip-rule="evenodd" d="M16.6958 2.37821C17.1512 1.95791 17.8488 1.95792 18.3042 2.37821C18.5841 2.63646 19.2337 3.26955 19.8205 4.1016C20.3904 4.90964 21 6.0429 21 7.27768C21 9.25154 19.5115 10.9999 17.5 10.9999C15.4885 10.9999 14 9.25154 14 7.27768C14 6.0429 14.6096 4.90964 15.1795 4.1016C15.7663 3.26955 16.4159 2.63646 16.6958 2.37821ZM4.70815 5.36339C5.15912 4.95685 5.84088 4.95685 6.29185 5.36339C6.49768 5.54894 6.89999 5.93594 7.25818 6.43581C7.59978 6.91254 8 7.62697 8 8.44435C8 9.82115 6.91468 10.9999 5.5 10.9999C4.08532 10.9999 3 9.82115 3 8.44435C3 7.62697 3.40022 6.91254 3.74182 6.43581C4.10001 5.93594 4.50232 5.54894 4.70815 5.36339ZM10.2108 9.36135C10.6624 8.95948 11.3376 8.95948 11.7892 9.36135C12.1527 9.68487 13.1786 10.6394 14.1212 11.921C15.0436 13.175 16 14.8938 16 16.7221C16 19.5727 13.8236 21.9999 11 21.9999C8.1764 21.9999 6 19.5727 6 16.7221C6 14.8938 6.95643 13.175 7.8788 11.921C8.8214 10.6394 9.84727 9.68487 10.2108 9.36135Z" fill="white"/>
</svg>
