<svg width="24" height="24" viewBox="0 0 24 24" fill="none" xmlns="http://www.w3.org/2000/svg">
<path d="M9.10358 18.9488C9.63705 19.0917 9.95363 19.6401 9.81069 20.1735L9.55187 21.1395C9.40893 21.6729 8.86059 21.9895 8.32712 21.8466C7.79366 21.7036 7.47707 21.1553 7.62002 20.6218L7.87883 19.6559C8.02178 19.1224 8.57011 18.8059 9.10358 18.9488ZM13.7733 17.7935C14.3068 17.9365 14.6234 18.4848 14.4804 19.0183L14.2216 19.9842C14.0787 20.5177 13.5303 20.8343 12.9969 20.6913C12.4634 20.5484 12.1468 20 12.2897 19.4666L12.5486 18.5006C12.6915 17.9672 13.2398 17.6506 13.7733 17.7935ZM10.1389 15.0851C10.6723 15.228 10.9889 15.7764 10.846 16.3098L10.5871 17.2758C10.4442 17.8092 9.89586 18.1258 9.3624 17.9829C8.82893 17.8399 8.51235 17.2916 8.65529 16.7581L8.91411 15.7922C9.05705 15.2587 9.60539 14.9422 10.1389 15.0851ZM11.5 2C14.2856 2 16.66 3.75154 17.5856 6.21198C20.13 6.90766 22 9.23462 22 12C22 15.1747 19.5344 17.7735 16.4136 17.986C16.7737 17.623 17.0474 17.166 17.1888 16.6381L17.4476 15.6722C17.8764 14.0718 16.9267 12.4268 15.3263 11.998C13.8597 11.605 12.3556 12.3697 11.7844 13.732C11.4639 13.4685 11.0834 13.2676 10.6566 13.1533C9.05616 12.7244 7.41115 13.6742 6.98233 15.2746L6.72351 16.2405C6.58208 16.7683 6.5906 17.301 6.72295 17.7933C6.66319 17.8529 6.60582 17.9153 6.55104 17.9801C3.99996 17.7531 2 15.6101 2 13C2 10.9486 3.23468 9.18749 5.00053 8.41614C5.04543 4.86494 7.93814 2 11.5 2ZM14.8086 13.9298C15.3421 14.0728 15.6586 14.6211 15.5157 15.1546L15.2569 16.1205C15.1139 16.654 14.5656 16.9705 14.0321 16.8276C13.4987 16.6847 13.1821 16.1363 13.325 15.6029L13.5838 14.6369C13.7268 14.1035 14.2751 13.7869 14.8086 13.9298Z" fill="white"/>
</svg>
