<svg width="24" height="24" viewBox="0 0 24 24" fill="none" xmlns="http://www.w3.org/2000/svg">
<path d="M16.8679 18.983C17.4014 19.1259 17.718 19.6743 17.575 20.2077L17.3162 21.1737C17.1733 21.7071 16.6249 22.0237 16.0914 21.8808C15.558 21.7378 15.2414 21.1895 15.3843 20.656L15.6432 19.6901C15.7861 19.1566 16.3344 18.84 16.8679 18.983ZM9.86787 18.9831C10.4013 19.1261 10.7179 19.6744 10.575 20.2079L10.3162 21.1738C10.1732 21.7072 9.62488 22.0238 9.09142 21.8809C8.55795 21.7379 8.24137 21.1896 8.38431 20.6561L8.64313 19.6902C8.78607 19.1567 9.33441 18.8402 9.86787 18.9831ZM14.0176 16.5681C14.513 16.7009 14.8214 17.1831 14.7484 17.6785L14.7247 17.7929L14.2071 19.7247C14.0642 20.2582 13.5158 20.5748 12.9824 20.4318C12.487 20.2991 12.1786 19.8168 12.2516 19.3215L12.2753 19.2071L12.7929 17.2752C12.9358 16.7418 13.4842 16.4252 14.0176 16.5681ZM7.01764 16.5681C7.55111 16.7111 7.86769 17.2594 7.72475 17.7929L7.20711 19.7247C7.06417 20.2582 6.51583 20.5748 5.98237 20.4318C5.4489 20.2889 5.13232 19.7405 5.27526 19.2071L5.7929 17.2752C5.93584 16.7418 6.48418 16.4252 7.01764 16.5681ZM10.9032 15.1194C11.4366 15.2623 11.7532 15.8107 11.6103 16.3442L11.3514 17.3101C11.2085 17.8435 10.6602 18.1601 10.1267 18.0172C9.59323 17.8742 9.27664 17.3259 9.41959 16.7924L9.67841 15.8265C9.82135 15.293 10.3697 14.9765 10.9032 15.1194ZM17.9032 15.1193C18.4366 15.2622 18.7532 15.8106 18.6103 16.344L18.3515 17.31C18.2085 17.8434 17.6602 18.16 17.1267 18.0171C16.5933 17.8741 16.2767 17.3258 16.4196 16.7923L16.6784 15.8264C16.8214 15.2929 17.3697 14.9763 17.9032 15.1193ZM11.5 2C14.2856 2 16.66 3.75154 17.5856 6.21198C20.13 6.90766 22 9.23462 22 12C22 13.4481 21.487 14.7764 20.6328 15.813C20.5219 14.5967 19.6694 13.522 18.4208 13.1874C17.0067 12.8085 15.5577 13.506 14.9438 14.7776C14.813 14.7215 14.6767 14.6742 14.5353 14.6363C14.0978 14.519 13.657 14.5048 13.2386 14.5788C12.8543 13.917 12.2184 13.4013 11.4208 13.1876C10.0067 12.8087 8.55779 13.506 7.94378 14.7776C7.81303 14.7215 7.6767 14.6742 7.53529 14.6363C5.93489 14.2074 4.28988 15.1572 3.86105 16.7576V16.8921C2.72597 15.9756 2 14.5726 2 13C2 10.9486 3.23468 9.18749 5.00053 8.41614C5.04543 4.86494 7.93814 2 11.5 2Z" fill="white"/>
</svg>
