<svg width="24" height="24" viewBox="0 0 24 24" fill="none" xmlns="http://www.w3.org/2000/svg">
<path d="M7.03198 14.1364C7.56545 14.2793 7.88203 14.8277 7.73909 15.3611L6.18618 21.1567C6.04323 21.6901 5.4949 22.0067 4.96143 21.8638C4.42796 21.7208 4.11138 21.1725 4.25432 20.639L5.80724 14.8435C5.95018 14.31 6.49852 13.9934 7.03198 14.1364ZM17.532 14.1364C18.0655 14.2793 18.3821 14.8277 18.2391 15.3611L16.6862 21.1567C16.5433 21.6902 15.9949 22.0067 15.4615 21.8638C14.928 21.7209 14.6114 21.1725 14.7544 20.6391L16.3073 14.8435C16.4502 14.31 16.9985 13.9935 17.532 14.1364ZM10.532 14.1365C11.0655 14.2794 11.3821 14.8277 11.2391 15.3612L9.6862 21.1568C9.54326 21.6902 8.99492 22.0068 8.46146 21.8639C7.92799 21.7209 7.61141 21.1726 7.75435 20.6391L9.30727 14.8436C9.45021 14.3101 9.99854 13.9935 10.532 14.1365ZM12.8072 14.8435C12.9502 14.31 13.4985 13.9935 14.032 14.1364C14.5273 14.2691 14.8357 14.7514 14.7628 15.2467L14.7391 15.3611L13.1862 21.1567C13.0432 21.6902 12.4949 22.0067 11.9614 21.8638C11.4661 21.7311 11.1577 21.2488 11.2306 20.7535L11.2543 20.6391L12.8072 14.8435ZM11.5 2C14.2856 2 16.66 3.75154 17.5856 6.21198C20.13 6.90766 22 9.23462 22 12C22 13.7694 21.2341 15.3599 20.0157 16.4581L20.171 15.8787C20.5998 14.2783 19.6501 12.6333 18.0497 12.2044C17.1463 11.9624 16.2288 12.1595 15.5238 12.665C15.2376 12.4593 14.9101 12.301 14.5496 12.2044C13.6463 11.9624 12.7288 12.1595 12.0238 12.665C11.7376 12.4594 11.4101 12.3011 11.0497 12.2045C10.1464 11.9625 9.22888 12.1596 8.52386 12.665C8.23769 12.4593 7.91017 12.301 7.54963 12.2044C5.94923 11.7756 4.30422 12.7253 3.87539 14.3257L3.32281 16.388C2.5016 15.4971 2 14.3071 2 13C2 10.9486 3.23468 9.18749 5.00053 8.41614C5.04543 4.86494 7.93814 2 11.5 2Z" fill="white"/>
</svg>
