<svg width="24" height="24" viewBox="0 0 24 24" fill="none" xmlns="http://www.w3.org/2000/svg">
<path d="M12.496 12.6319C12.9755 12.9059 13.1421 13.5168 12.8681 13.9963L11.7231 16.0002H12.8276C13.6722 16.0002 14.2017 16.9126 13.7826 17.6459L11.8681 20.9963C11.5941 21.4758 10.9833 21.6424 10.5037 21.3684C10.0242 21.0944 9.85763 20.4835 10.1316 20.004L11.2767 18.0002H10.1722C9.32759 18.0002 8.79809 17.0877 9.21713 16.3544L11.1316 13.004C11.4056 12.5245 12.0165 12.3579 12.496 12.6319ZM14.9987 18.5007C15.1416 17.9672 15.69 17.6506 16.2234 17.7936C16.7569 17.9365 17.0735 18.4849 16.9305 19.0183L16.6717 19.9842C16.5288 20.5177 15.9804 20.8343 15.447 20.6914C14.9135 20.5484 14.5969 20.0001 14.7399 19.4666L14.9987 18.5007ZM5.21868 18.5007C5.36162 17.9672 5.90996 17.6506 6.44342 17.7936C6.97689 17.9365 7.29347 18.4849 7.15053 19.0183L6.89171 19.9843C6.74877 20.5177 6.20043 20.8343 5.66697 20.6914C5.1335 20.5484 4.81692 20.0001 4.95986 19.4666L5.21868 18.5007ZM11.5 2C14.2856 2 16.66 3.75154 17.5856 6.21198C20.13 6.90766 22 9.23462 22 12C22 13.9686 21.0519 15.7158 19.5874 16.8099L19.6143 16.7246L19.8977 15.6721C20.3265 14.0717 19.3768 12.4267 17.7764 11.9979C16.7165 11.7139 15.6371 12.0345 14.9043 12.7484C14.7086 11.9925 14.2198 11.3133 13.4884 10.8953C12.0498 10.0733 10.2172 10.5731 9.39522 12.0116L9.08877 12.5479C8.77583 12.2985 8.4076 12.1081 7.99641 11.9979C6.39601 11.5691 4.751 12.5188 4.32217 14.1192L4.06335 15.0851C3.92193 15.6129 3.93044 16.1456 4.0628 16.6379C3.98636 16.7142 3.91382 16.7949 3.84563 16.8796C2.7194 15.9628 2 14.5654 2 13C2 10.9486 3.23468 9.18749 5.00053 8.41614C5.04543 4.86494 7.93814 2 11.5 2ZM17.2587 13.9299C17.7922 14.0728 18.1087 14.6212 17.9658 15.1546L17.707 16.1205C17.564 16.654 17.0157 16.9706 16.4822 16.8277C15.9488 16.6847 15.6322 16.1364 15.7751 15.6029L16.034 14.637C16.1769 14.1035 16.7252 13.7869 17.2587 13.9299ZM7.4787 13.9299C8.01217 14.0728 8.32875 14.6212 8.18581 15.1546L7.92699 16.1206C7.78405 16.654 7.23571 16.9706 6.70224 16.8277C6.16878 16.6847 5.85219 16.1364 5.99514 15.6029L6.25395 14.637C6.3969 14.1035 6.94523 13.7869 7.4787 13.9299Z" fill="white"/>
</svg>
