<svg width="24" height="24" viewBox="0 0 24 24" fill="none" xmlns="http://www.w3.org/2000/svg">
<path d="M14 18C15.1046 18 16 18.8954 16 20C16 21.1046 15.1046 22 14 22C12.8954 22 12 21.1046 12 20C12 18.8954 12.8954 18 14 18ZM9.5 17C10.3284 17 11 17.6716 11 18.5C11 19.3284 10.3284 20 9.5 20C8.67157 20 8 19.3284 8 18.5C8 17.6716 8.67157 17 9.5 17ZM11.5 2C14.2856 2 16.66 3.75154 17.5856 6.21198C20.13 6.90766 22 9.23462 22 12C22 14.8427 20.0232 17.2236 17.3692 17.8431C17.3307 17.7831 17.2907 17.7242 17.2491 17.6664C17.7194 17.0705 18 16.318 18 15.5C18 13.567 16.433 12 14.5 12C14.1667 12 13.8442 12.0466 13.5388 12.1336C12.8682 10.8647 11.5351 10 10 10C7.79086 10 6 11.7909 6 14C6 14.8709 6.27833 15.6768 6.75088 16.3336C6.39627 16.783 6.14948 17.3214 6.04956 17.9098C3.74267 17.4658 2 15.4364 2 13C2 10.9486 3.23468 9.18749 5.00053 8.41614C5.04543 4.86494 7.93814 2 11.5 2ZM14.5 14C15.3284 14 16 14.6716 16 15.5C16 16.3284 15.3284 17 14.5 17C13.6716 17 13 16.3284 13 15.5C13 14.6716 13.6716 14 14.5 14ZM10 12C11.1046 12 12 12.8954 12 14C12 15.1046 11.1046 16 10 16C8.89543 16 8 15.1046 8 14C8 12.8954 8.89543 12 10 12Z" fill="white"/>
</svg>
