<svg width="24" height="24" viewBox="0 0 24 24" fill="none" xmlns="http://www.w3.org/2000/svg">
<path d="M8.00003 16C8.55232 16 9.00003 16.4477 9.00003 17V17.268L9.23211 17.134C9.71041 16.8578 10.322 17.0217 10.5981 17.5C10.8743 17.9783 10.7104 18.5899 10.2321 18.866L10.0001 19L10.2321 19.1339C10.7104 19.4101 10.8743 20.0217 10.5981 20.5C10.322 20.9783 9.71038 21.1421 9.23209 20.866L9.00003 20.732V21C9.00003 21.5523 8.55232 22 8.00003 22C7.44775 22 7.00003 21.5523 7.00003 21V20.7321L6.76801 20.866C6.28972 21.1422 5.67813 20.9783 5.40198 20.5C5.12583 20.0217 5.28969 19.4101 5.76798 19.134L6.00006 19L5.76799 18.866C5.2897 18.5899 5.12582 17.9783 5.40196 17.5C5.67811 17.0217 6.2897 16.8578 6.76799 17.1339L7.00003 17.2679V17C7.00003 16.4477 7.44775 16 8.00003 16ZM16 16C16.5523 16 17 16.4477 17 17V17.268L17.2321 17.134C17.7104 16.8578 18.322 17.0217 18.5981 17.5C18.8743 17.9783 18.7104 18.5899 18.2321 18.866L18.0001 19L18.2321 19.1339C18.7104 19.4101 18.8743 20.0217 18.5981 20.5C18.322 20.9783 17.7104 21.1421 17.2321 20.866L17 20.732V21C17 21.5523 16.5523 22 16 22C15.4477 22 15 21.5523 15 21V20.7321L14.768 20.866C14.2897 21.1422 13.6781 20.9783 13.402 20.5C13.1258 20.0217 13.2897 19.4101 13.768 19.134L14.0001 19L13.768 18.866C13.2897 18.5899 13.1258 17.9783 13.402 17.5C13.6781 17.0217 14.2897 16.8578 14.768 17.1339L15 17.2679V17C15 16.4477 15.4477 16 16 16ZM11.5 2C14.2856 2 16.66 3.75154 17.5856 6.21198C20.13 6.90766 22 9.23462 22 12C22 13.6804 21.3092 15.1994 20.1962 16.2886C19.7327 15.6196 19.0354 15.1912 18.2803 15.0505C17.8821 14.5852 17.3441 14.2433 16.7313 14.0898C16.7421 13.7179 16.6834 13.3481 16.5605 13C16.8422 12.202 16.7864 11.2904 16.3302 10.5001C15.8739 9.70968 15.1122 9.2055 14.2803 9.05046C13.73 8.4075 12.9126 8 12 8C11.0874 8 10.27 8.40748 9.71974 9.05043C8.8878 9.20546 8.12618 9.70963 7.66987 10.5C7.21356 11.2903 7.15775 12.202 7.43947 13C7.31657 13.3481 7.25791 13.7179 7.26871 14.0898C6.65594 14.2432 6.11789 14.5852 5.71974 15.0504C4.8878 15.2055 4.12618 15.7096 3.66987 16.5L3.58682 16.6538C2.61037 15.7413 2 14.4419 2 13C2 10.9486 3.23468 9.18749 5.00053 8.41614C5.04543 4.86494 7.93814 2 11.5 2ZM12 10C12.5523 10 13 10.4477 13 11V11.268L13.2321 11.134C13.7104 10.8578 14.322 11.0217 14.5981 11.5C14.8743 11.9783 14.7104 12.5899 14.2321 12.866L14.0001 13L14.2321 13.1339C14.7104 13.4101 14.8743 14.0217 14.5981 14.5C14.322 14.9783 13.7104 15.1421 13.2321 14.866L13 14.732V15C13 15.5523 12.5523 16 12 16C11.4477 16 11 15.5523 11 15V14.7321L10.768 14.866C10.2897 15.1422 9.67813 14.9783 9.40198 14.5C9.12583 14.0217 9.28969 13.4101 9.76798 13.134L10.0001 13L9.76799 12.866C9.2897 12.5899 9.12582 11.9783 9.40196 11.5C9.67811 11.0217 10.2897 10.8578 10.768 11.1339L11 11.2679V11C11 10.4477 11.4477 10 12 10Z" fill="white"/>
</svg>
