<svg width="24" height="24" viewBox="0 0 24 24" fill="none" xmlns="http://www.w3.org/2000/svg">
<path d="M13.0005 3C13.0005 2.44772 12.5528 2 12.0005 2C11.4482 2 11.0005 2.44772 11.0005 3V3.9616L10.3465 3.6159C9.85824 3.3578 9.2532 3.54439 8.9951 4.03266C8.737 4.52093 8.9236 5.12597 9.41186 5.38407L11.0005 6.22382V8.12601C10.2855 8.31004 9.64786 8.6868 9.14627 9.1976L7.49818 8.24608L7.56526 6.45039C7.58587 5.89849 7.15518 5.43438 6.60328 5.41376C6.05138 5.39315 5.58727 5.82384 5.56665 6.37574L5.53904 7.11496L4.70627 6.63417C4.22798 6.35802 3.61639 6.5219 3.34025 7.00019C3.0641 7.47848 3.22798 8.09007 3.70627 8.36622L4.53904 8.84701L3.91266 9.24054C3.445 9.53435 3.30407 10.1516 3.59788 10.6193C3.89168 11.0869 4.50896 11.2279 4.97662 10.9341L6.49818 9.97813L8.14544 10.9292C8.05097 11.27 8.00049 11.6291 8.00049 12C8.00049 12.3709 8.05097 12.73 8.14543 13.0708L6.49813 14.0219L4.97657 13.0659C4.50891 12.7721 3.89163 12.9131 3.59783 13.3807C3.30402 13.8484 3.44496 14.4657 3.91261 14.7595L4.53899 15.153L3.70622 15.6338C3.22793 15.9099 3.06406 16.5215 3.3402 16.9998C3.61634 17.4781 4.22793 17.642 4.70622 17.3658L5.53899 16.885L5.5666 17.6243C5.58722 18.1762 6.05134 18.6069 6.60324 18.5862C7.15513 18.5656 7.58583 18.1015 7.56521 17.5496L7.49813 15.7539L9.14625 14.8024C9.64784 15.3132 10.2855 15.69 11.0005 15.874V17.7762L9.41186 18.6159C8.9236 18.874 8.737 19.4791 8.9951 19.9673C9.2532 20.4556 9.85824 20.6422 10.3465 20.3841L11.0005 20.0384V21C11.0005 21.5523 11.4482 22 12.0005 22C12.5528 22 13.0005 21.5523 13.0005 21V20.0384L13.6545 20.3841C14.1428 20.6422 14.7478 20.4556 15.0059 19.9673C15.264 19.4791 15.0774 18.874 14.5892 18.6159L13.0005 17.7762V15.874C13.7154 15.69 14.3529 15.3133 14.8545 14.8026L16.5028 15.7543L16.4358 17.55C16.4151 18.1019 16.8458 18.566 17.3977 18.5866C17.9496 18.6072 18.4137 18.1765 18.4344 17.6246L18.462 16.8854L19.2947 17.3662C19.773 17.6424 20.3846 17.4785 20.6608 17.0002C20.9369 16.5219 20.773 15.9103 20.2947 15.6342L19.462 15.1534L20.0884 14.7598C20.556 14.466 20.6969 13.8488 20.4031 13.3811C20.1093 12.9135 19.492 12.7725 19.0244 13.0663L17.5028 14.0223L15.8555 13.0711C15.95 12.7302 16.0005 12.371 16.0005 12C16.0005 11.629 15.95 11.2698 15.8555 10.9288L17.5028 9.97774L19.0243 10.9337C19.492 11.2275 20.1093 11.0865 20.4031 10.6189C20.6969 10.1512 20.556 9.53396 20.0883 9.24016L19.4619 8.84663L20.2947 8.36583C20.773 8.08969 20.9369 7.4781 20.6607 6.99981C20.3846 6.52152 19.773 6.35764 19.2947 6.63378L18.4619 7.11458L18.4343 6.37535C18.4137 5.82345 17.9496 5.39276 17.3977 5.41338C16.8458 5.434 16.4151 5.89811 16.4357 6.45001L16.5028 8.24569L14.8545 9.19735C14.3529 8.68668 13.7154 8.31002 13.0005 8.12602V6.22382L14.5892 5.38407C15.0774 5.12597 15.264 4.52093 15.0059 4.03266C14.7478 3.54439 14.1428 3.3578 13.6545 3.6159L13.0005 3.9616V3Z" fill="white"/>
</svg>
