<svg width="24" height="24" viewBox="0 0 24 24" fill="none" xmlns="http://www.w3.org/2000/svg">
<path d="M19.2484 8.52998C20.0603 8.69478 20.5848 9.48653 20.42 10.2984C20.0493 12.1248 18.4369 13.5 16.5 13.5H3C2.17157 13.5 1.5 12.8284 1.5 12C1.5 11.1716 2.17157 10.5 3 10.5H16.5C16.9418 10.5 17.3193 10.2121 17.4505 9.81306L17.48 9.7016C17.6448 8.88973 18.4365 8.36518 19.2484 8.52998ZM9 2.5C10.933 2.5 12.5 4.067 12.5 6C12.5 7.933 10.933 9.5 9 9.5H5C4.17157 9.5 3.5 8.82843 3.5 8C3.5 7.17157 4.17157 6.5 5 6.5H9C9.27615 6.5 9.5 6.27614 9.5 6C9.5 5.72386 9.27615 5.5 9 5.5C8.90645 5.5 8.82311 5.52432 8.7511 5.56597C8.03401 5.98079 7.11641 5.73576 6.7016 5.01867C6.28678 4.30158 6.53181 3.38398 7.2489 2.96917C7.76524 2.67048 8.36499 2.5 9 2.5ZM16.0021 3C16.5543 3 17.0021 3.44772 17.0021 4V4.26796L17.2341 4.13398C17.7124 3.85784 18.324 4.02171 18.6002 4.5C18.8763 4.9783 18.7124 5.58989 18.2341 5.86603L18.0021 6L18.2341 6.13395C18.7124 6.41009 18.8763 7.02168 18.6001 7.49997C18.324 7.97827 17.7124 8.14214 17.2341 7.866L17.0021 7.73202V8C17.0021 8.55228 16.5543 9 16.0021 9C15.4498 9 15.0021 8.55228 15.0021 8V7.73206L14.77 7.86603C14.2917 8.14217 13.6801 7.9783 13.404 7.5C13.1279 7.02171 13.2917 6.41012 13.77 6.13398L14.0021 6L13.77 5.866C13.2917 5.58986 13.1279 4.97827 13.404 4.49997C13.6801 4.02168 14.2917 3.85781 14.77 4.13395L15.0021 4.26792V4C15.0021 3.44772 15.4498 3 16.0021 3ZM6 14.5C5.17157 14.5 4.5 15.1716 4.5 16C4.5 16.8284 5.17157 17.5 6 17.5H11.5011C11.0885 17.6458 10.7429 17.97 10.5857 18.4148C10.3097 19.1959 10.7191 20.0528 11.5001 20.3289C11.8148 20.4401 12.152 20.5 12.5 20.5C14.1569 20.5 15.5 19.1569 15.5 17.5C15.5 15.8431 14.1569 14.5 12.5 14.5H6ZM19.0001 14C19.5524 14 20.0001 14.4477 20.0001 15V15.268L20.2322 15.134C20.7105 14.8578 21.3221 15.0217 21.5982 15.5C21.8743 15.9783 21.7105 16.5899 21.2322 16.866L21.0001 17L21.2322 17.1339C21.7105 17.4101 21.8743 18.0217 21.5982 18.5C21.3221 18.9783 20.7105 19.1421 20.2322 18.866L20.0001 18.732V19C20.0001 19.5523 19.5524 20 19.0001 20C18.4478 20 18.0001 19.5523 18.0001 19V18.7321L17.7681 18.866C17.2898 19.1422 16.6782 18.9783 16.402 18.5C16.1259 18.0217 16.2898 17.4101 16.7681 17.134L17.0001 17L16.7681 16.866C16.2898 16.5899 16.1259 15.9783 16.402 15.5C16.6782 15.0217 17.2898 14.8578 17.7681 15.1339L18.0001 15.2679V15C18.0001 14.4477 18.4478 14 19.0001 14Z" fill="white"/>
</svg>
