<svg width="24" height="24" viewBox="0 0 24 24" fill="none" xmlns="http://www.w3.org/2000/svg">
<path d="M12 9.99988C15.3137 9.99988 18 12.6862 18 15.9999C18 17.0928 17.7074 18.1176 17.1971 18.9999H20C20.5523 18.9999 21 19.4476 21 19.9999C21 20.5522 20.5523 20.9999 20 20.9999H4C3.44772 20.9999 3 20.5522 3 19.9999C3 19.4476 3.44772 18.9999 4 18.9999H6.80311C6.29267 18.1176 6 17.0929 6 15.9999C6 12.6862 8.68629 9.99988 12 9.99988ZM21 14.9999C21.5523 14.9999 22 15.4476 22 15.9999C22 16.5127 21.614 16.9354 21.1166 16.9932L21 16.9999H20C19.4477 16.9999 19 16.5522 19 15.9999C19 15.4871 19.386 15.0644 19.8834 15.0066L20 14.9999H21ZM4 14.9999C4.55228 14.9999 5 15.4476 5 15.9999C5 16.5127 4.61396 16.9354 4.11662 16.9932L4 16.9999H3C2.44772 16.9999 2 16.5522 2 15.9999C2 15.4871 2.38604 15.0644 2.88338 15.0066L3 14.9999H4ZM6.34312 8.92876L7.05023 9.63586C7.44075 10.0264 7.44075 10.6596 7.05023 11.0501C6.6597 11.4406 6.02654 11.4406 5.63601 11.0501L4.92891 10.343C4.53838 9.95245 4.53838 9.31928 4.92891 8.92876C5.31943 8.53823 5.9526 8.53823 6.34312 8.92876ZM17.6569 8.92877C18.0474 8.53825 18.6805 8.53825 19.0711 8.92877C19.4316 9.28926 19.4593 9.85649 19.1543 10.2488L19.0711 10.343L18.364 11.0501C17.9734 11.4406 17.3403 11.4406 16.9498 11.0501C16.5892 10.6896 16.5615 10.1224 16.8666 9.73009L16.9498 9.63588L17.6569 8.92877ZM12.7071 2.17278L14.8284 4.2941C15.219 4.68462 15.219 5.31779 14.8284 5.70831C14.4379 6.09883 13.8047 6.09883 13.4142 5.70831L13 5.2941V7.99988C13 8.55216 12.5523 8.99988 12 8.99988C11.4477 8.99988 11 8.55216 11 7.99988V5.2941L10.5858 5.70831C10.1953 6.09883 9.5621 6.09883 9.17157 5.70831C8.78105 5.31779 8.78105 4.68462 9.17157 4.2941L11.2929 2.17278C11.6834 1.78225 12.3166 1.78225 12.7071 2.17278Z" fill="white"/>
</svg>
