<svg width="24" height="24" viewBox="0 0 24 24" fill="none" xmlns="http://www.w3.org/2000/svg">
<path d="M12 9.99988C15.3137 9.99988 18 12.6862 18 15.9999C18 16.9934 17.7582 17.9307 17.3308 18.7558L17.1971 18.9999H20C20.5523 18.9999 21 19.4476 21 19.9999C21 20.5128 20.614 20.9354 20.1166 20.9932L20 20.9999H4C3.44772 20.9999 3 20.5522 3 19.9999C3 19.4871 3.38604 19.0644 3.88338 19.0066L4 18.9999H6.80311C6.29267 18.1176 6 17.0929 6 15.9999C6 12.6862 8.68629 9.99988 12 9.99988ZM21 14.9999C21.5523 14.9999 22 15.4476 22 15.9999C22 16.5522 21.5523 16.9999 21 16.9999H20C19.4477 16.9999 19 16.5522 19 15.9999C19 15.4476 19.4477 14.9999 20 14.9999H21ZM4 14.9999C4.55228 14.9999 5 15.4476 5 15.9999C5 16.5522 4.55228 16.9999 4 16.9999H3C2.44772 16.9999 2 16.5522 2 15.9999C2 15.4476 2.44772 14.9999 3 14.9999H4ZM4.92891 8.92876C5.28939 8.56827 5.85662 8.54054 6.24891 8.84557L6.34312 8.92876L7.05023 9.63587C7.44075 10.0264 7.44075 10.6596 7.05023 11.0501C6.68974 11.4106 6.12251 11.4383 5.73022 11.1333L5.63601 11.0501L4.92891 10.343C4.53838 9.95245 4.53838 9.31928 4.92891 8.92876ZM19.0711 8.92877C19.4616 9.3193 19.4616 9.95246 19.0711 10.343L18.364 11.0501C17.9734 11.4406 17.3403 11.4406 16.9498 11.0501C16.5592 10.6596 16.5592 10.0264 16.9498 9.63588L17.6569 8.92877C18.0474 8.53825 18.6805 8.53825 19.0711 8.92877ZM12 1.87988C12.5523 1.87988 13 2.3276 13 2.87988V5.58566L13.4142 5.17145C13.8047 4.78093 14.4379 4.78093 14.8284 5.17145C15.2189 5.56198 15.2189 6.19514 14.8284 6.58566L12.7071 8.70698C12.3166 9.09751 11.6834 9.09751 11.2929 8.70698L9.17156 6.58566C8.78103 6.19514 8.78103 5.56198 9.17156 5.17145C9.56208 4.78093 10.1952 4.78093 10.5858 5.17145L11 5.58566V2.87988C11 2.3276 11.4477 1.87988 12 1.87988Z" fill="white"/>
</svg>
