<svg width="24" height="24" viewBox="0 0 24 24" fill="none" xmlns="http://www.w3.org/2000/svg">
<path d="M9 2C10.5977 2 11.9037 3.24892 11.9949 4.82373L12 5V5.5682C12.339 5.39204 12.7578 5.42319 13.0687 5.66166L13.168 5.74883C13.5656 6.14642 13.5656 6.77959 13.1751 7.17011C12.8888 7.45643 12.472 7.53282 12.1161 7.39931L12 7.34703V9.85796C12.0066 9.90436 12.01 9.95178 12.01 10L12.0075 10.0717L12 10.142V12.6467C12.3789 12.442 12.8621 12.4997 13.1822 12.8199C13.5427 13.1804 13.5704 13.7476 13.2654 14.1399L13.1723 14.244C13.695 15.0338 14 15.9814 14 17C14 19.7614 11.7614 22 9 22C6.23858 22 4 19.7614 4 17C4 15.4072 4.74591 13.988 5.90349 13.074C5.93425 13.0497 5.95677 13.0256 5.97236 13.005L6 12.9559V5C6 3.34315 7.34315 2 9 2ZM16 13.99C16.5128 13.99 16.9355 14.376 16.9933 14.8734L17 15C17 15.5523 16.5523 16 16 16C15.4872 16 15.0645 15.614 15.0067 15.1166L15 14.99C15 14.4377 15.4477 13.99 16 13.99ZM20.2391 12.8199C20.6367 13.2175 20.6367 13.8506 20.2462 14.2412C19.8856 14.6017 19.3185 14.6294 18.9262 14.3244L18.8249 14.2341C18.4344 13.8436 18.4344 13.2104 18.8249 12.8199C19.2154 12.4293 19.8486 12.4293 20.2391 12.8199ZM16 7C17.6569 7 19 8.34315 19 10C19 11.6569 17.6569 13 16 13C14.3431 13 13 11.6569 13 10C13 8.34315 14.3431 7 16 7ZM21 9C21.5523 9 22 9.44772 22 10C22 10.5128 21.614 10.9355 21.1166 10.9933L20.99 11C20.4377 11 19.99 10.5523 19.99 10C19.99 9.48716 20.376 9.06449 20.8734 9.00673L21 9ZM20.2462 5.75591C20.6067 6.11639 20.6344 6.68362 20.3294 7.07591L20.2391 7.17719C19.8486 7.56772 19.2154 7.56771 18.8249 7.17719C18.4644 6.8167 18.4367 6.24947 18.7417 5.85718L18.832 5.7559C19.2225 5.36538 19.8556 5.36538 20.2462 5.75591ZM16 3.98999C16.5128 3.98999 16.9355 4.37603 16.9933 4.87337L17 4.99999C17 5.55227 16.5523 5.99999 16 5.99999C15.4872 5.99999 15.0645 5.61395 15.0067 5.11661L15 4.98999C15 4.43771 15.4477 3.98999 16 3.98999Z" fill="white"/>
</svg>
