<svg width="24" height="24" viewBox="0 0 24 24" fill="none" xmlns="http://www.w3.org/2000/svg">
<path fill-rule="evenodd" clip-rule="evenodd" d="M13.3117 19.893C17.1059 19.2672 20 15.9716 20 12C20 11.3112 19.9129 10.6427 19.7492 10.0049C21.0043 9.93338 22 8.89296 22 7.61997C22 6.64494 21.4165 5.80749 20.5797 5.4359C20.1507 4.6521 19.3189 4.12 18.3611 4.12C17.4898 4.12 16.7214 4.56086 16.2669 5.23169C15.032 4.45152 13.5687 4 12 4C7.58172 4 4 7.58172 4 12C4 12.0942 4.00163 12.188 4.00485 12.2813C4.85401 11.4866 5.99518 11 7.25 11C9.02577 11 10.5709 11.9733 11.386 13.4137C12.9294 14.1271 14 15.6873 14 17.5C14 18.3794 13.7478 19.1998 13.3117 19.893ZM19.6111 8.00885H18.9349C18.628 7.47677 18.2616 6.98331 17.8449 6.53757C17.8955 6.29899 18.1074 6.12 18.3611 6.12C18.6036 6.12 18.8102 6.28436 18.8708 6.50945C18.973 6.88869 19.2878 7.173 19.6754 7.23623C19.8594 7.26624 20 7.42766 20 7.61997C20 7.83474 19.8259 8.00885 19.6111 8.00885Z" fill="white"/>
<path d="M9.5 20C10.8807 20 12 18.8807 12 17.5C12 16.2574 11.0934 15.2265 9.90552 15.0327C9.59001 13.8618 8.52064 13 7.25 13C5.73122 13 4.5 14.2312 4.5 15.75C4.5 15.8544 4.50581 15.9573 4.51713 16.0587C3.64584 16.2747 3 17.0619 3 18C3 19.1046 3.89543 20 5 20H9.5Z" fill="white"/>
</svg>
