<svg width="24" height="24" viewBox="0 0 24 24" fill="none" xmlns="http://www.w3.org/2000/svg">
<path fill-rule="evenodd" clip-rule="evenodd" d="M12.3236 5.41195C12.1709 5.07444 12.2174 4.68021 12.4442 4.38741C12.6711 4.0946 13.0413 3.9512 13.4062 4.01472C14.4658 4.19916 15.4548 4.58902 16.3307 5.1418C16.7914 4.52175 17.5293 4.12 18.3611 4.12C19.3189 4.12 20.1507 4.6521 20.5797 5.4359C21.4165 5.80749 22 6.64494 22 7.61997C22 8.85265 21.0664 9.86724 19.8677 9.99523C20.0317 10.6384 20.1189 11.3122 20.1189 12.0066C20.1189 16.0734 17.1263 19.4413 13.2232 20.0283C13.7134 19.3077 14 18.4373 14 17.5C14 15.6873 12.9294 14.1271 11.386 13.4137C11.0896 12.8899 10.6966 12.4278 10.2311 12.0519C11.7603 11.1408 12.7847 9.47077 12.7847 7.56148C12.7847 6.79323 12.6195 6.06627 12.3236 5.41195ZM17.8862 6.41733C18.3414 6.89603 18.7388 7.43026 19.0672 8.00885H19.6111C19.8259 8.00885 20 7.83474 20 7.61997C20 7.42766 19.8594 7.26624 19.6754 7.23623C19.2878 7.173 18.973 6.88869 18.8708 6.50945C18.8102 6.28436 18.6036 6.12 18.3611 6.12C18.1522 6.12 17.9717 6.24132 17.8862 6.41733Z" fill="white"/>
<path d="M9.5 20C10.8807 20 12 18.8807 12 17.5C12 16.2574 11.0934 15.2265 9.90552 15.0327C9.59001 13.8618 8.52064 13 7.25 13C5.73122 13 4.5 14.2312 4.5 15.75C4.5 15.8544 4.50581 15.9573 4.51713 16.0587C3.64584 16.2747 3 17.0619 3 18C3 19.1046 3.89543 20 5 20H9.5Z" fill="white"/>
</svg>
