<svg width="24" height="24" viewBox="0 0 24 24" fill="none" xmlns="http://www.w3.org/2000/svg">
<path fill-rule="evenodd" clip-rule="evenodd" d="M17.5572 2.6072C18.3264 2.91487 18.7005 3.78782 18.3928 4.557L17.565 6.62655C17.0147 8.0024 17.177 9.561 17.9989 10.794L18.4975 11.5418C19.8674 13.5967 20.1379 16.1944 19.2207 18.4874L18.3928 20.557C18.0852 21.3262 17.2122 21.7003 16.443 21.3926C15.6739 21.085 15.2997 20.212 15.6074 19.4428L16.4352 17.3733C16.9856 15.9974 16.8233 14.4388 16.0013 13.2059L15.5028 12.4581C14.1328 10.4031 13.8623 7.80546 14.7796 5.51238L15.6074 3.44282C15.9151 2.67365 16.788 2.29953 17.5572 2.6072ZM12.5572 2.6072C13.3264 2.91487 13.7005 3.78782 13.3928 4.557L12.565 6.62655C12.0147 8.0024 12.177 9.561 12.9989 10.794L13.4975 11.5418C14.8674 13.5967 15.1379 16.1944 14.2207 18.4874L13.3928 20.557C13.0852 21.3262 12.2122 21.7003 11.443 21.3926C10.6739 21.085 10.2997 20.212 10.6074 19.4428L11.4352 17.3733C11.9856 15.9974 11.8233 14.4388 11.0013 13.2059L10.5028 12.4581C9.13286 10.4031 8.86238 7.80546 9.77962 5.51238L10.6074 3.44282C10.9151 2.67365 11.788 2.29953 12.5572 2.6072ZM7.55725 2.6072C8.32643 2.91487 8.70054 3.78782 8.39287 4.557L7.56505 6.62655C7.01471 8.0024 7.177 9.561 7.99898 10.794L8.49751 11.5418C9.86746 13.5967 10.1379 16.1944 9.2207 18.4874L8.39287 20.557C8.0852 21.3262 7.21224 21.7003 6.44307 21.3926C5.67389 21.085 5.29978 20.212 5.60745 19.4428L6.43526 17.3733C6.9856 15.9974 6.82332 14.4388 6.00134 13.2059L5.50282 12.4581C4.13286 10.4031 3.86238 7.80546 4.77962 5.51238L5.60745 3.44282C5.91511 2.67365 6.78807 2.29953 7.55725 2.6072Z" fill="white"/>
</svg>
