<svg width="24" height="24" viewBox="0 0 24 24" fill="none" xmlns="http://www.w3.org/2000/svg">
<path d="M13.0086 6.34441C13.7413 5.51965 14.81 5 16 5C18.2091 5 20 6.79086 20 9C20 9.90873 19.6969 10.7467 19.1864 11.4183C19.695 11.8779 20.1173 12.4312 20.426 13.051C21.4035 11.9836 22 10.5614 22 9C22 5.68629 19.3137 3 16 3C13.7778 3 11.8377 4.20805 10.8008 6.00324C10.8669 6.00109 10.9333 6 11 6C11.7046 6 12.3807 6.1214 13.0086 6.34441Z" fill="#FFC548"/>
<path fill-rule="evenodd" clip-rule="evenodd" d="M5 12C5 8.68629 7.68629 6 11 6C13.6623 6 15.9179 7.73308 16.7033 10.1322C19.1625 10.6813 21 12.8756 21 15.5C21 18.5376 18.5376 21 15.5 21H6.5C4.01472 21 2 18.9853 2 16.5C2 14.5384 3.25449 12.8708 5.00531 12.2544C5.00178 12.17 5 12.0852 5 12ZM11 8C8.79086 8 7 9.79086 7 12C7 12.2815 7.02893 12.5553 7.08366 12.8187C7.14087 13.0942 7.07941 13.381 6.91434 13.6088C6.74927 13.8366 6.49587 13.9844 6.2163 14.0158C4.96963 14.156 4 15.2155 4 16.5C4 17.8807 5.11929 19 6.5 19H15.5C17.433 19 19 17.433 19 15.5C19 13.6733 17.5999 12.1726 15.815 12.0139C15.3729 11.9746 15.0096 11.6485 14.9228 11.2132C14.5578 9.38075 12.9391 8 11 8Z" fill="white"/>
</svg>
