<svg width="24" height="24" viewBox="0 0 24 24" fill="none" xmlns="http://www.w3.org/2000/svg">
<path d="M11.5 2C14.2856 2 16.6599 3.75153 17.5856 6.21198C20.13 6.90766 22 9.23463 22 12C22 14.9039 19.938 17.324 17.1989 17.88C16.6577 17.9899 16.1299 17.6402 16.02 17.0989C15.9101 16.5577 16.2598 16.0298 16.8011 15.92C18.6264 15.5494 20 13.934 20 12C20 10.0127 18.5498 8.36228 16.6501 8.0524C16.2624 7.98917 15.9477 7.70486 15.8455 7.32561C15.3291 5.40914 13.5778 4 11.5 4C9.01472 4 7 6.01472 7 8.5C7 8.67155 7.00955 8.84048 7.02808 9.00636C7.08375 9.50475 6.76165 9.96731 6.27489 10.088C4.96785 10.412 4 11.5942 4 13C4 14.3447 4.88552 15.4848 6.10638 15.8649L6.27489 15.912C6.81095 16.0449 7.13778 16.5872 7.00488 17.1233C6.87198 17.6593 6.32969 17.9862 5.79363 17.8533C3.6155 17.3133 2 15.3465 2 13C2 10.9486 3.23466 9.1875 5.00053 8.41614C5.04543 4.86494 7.93814 2 11.5 2Z" fill="white"/>
<path d="M10.9241 15.7922C11.0671 15.2587 11.6154 14.9422 12.1489 15.0851C12.6823 15.228 12.9989 15.7764 12.856 16.3098L12.5972 17.2758C12.4542 17.8092 11.9059 18.1258 11.3724 17.9829C10.8389 17.8399 10.5224 17.2916 10.6653 16.7581L10.9241 15.7922ZM11.8207 20.1736C11.9636 19.6401 11.6471 19.0917 11.1136 18.9488C10.5801 18.8059 10.0318 19.1224 9.88884 19.6559L9.63003 20.6218C9.48708 21.1553 9.80367 21.7036 10.3371 21.8466C10.8706 21.9895 11.4189 21.6729 11.5619 21.1395L11.8207 20.1736Z" fill="#60C6FF"/>
</svg>
