<svg width="24" height="24" viewBox="0 0 24 24" fill="none" xmlns="http://www.w3.org/2000/svg">
<path d="M16.8681 18.983C17.4016 19.1259 17.7182 19.6743 17.5752 20.2077L17.3164 21.1737C17.1735 21.7071 16.6251 22.0237 16.0917 21.8808C15.5582 21.7378 15.2416 21.1895 15.3846 20.656L15.6434 19.6901C15.7863 19.1566 16.3347 18.84 16.8681 18.983ZM9.86814 18.9831C10.4016 19.1261 10.7182 19.6744 10.5752 20.2079L10.3164 21.1738C10.1735 21.7072 9.62515 22.0238 9.09169 21.8809C8.55822 21.7379 8.24164 21.1896 8.38458 20.6561L8.6434 19.6902C8.78634 19.1567 9.33468 18.8402 9.86814 18.9831ZM14.0179 16.5681C14.5132 16.7009 14.8216 17.1831 14.7487 17.6785L14.725 17.7929L14.2073 19.7247C14.0644 20.2582 13.5161 20.5748 12.9826 20.4318C12.4872 20.2991 12.1789 19.8168 12.2518 19.3215L12.2755 19.2071L12.7931 17.2752C12.9361 16.7418 13.4844 16.4252 14.0179 16.5681ZM7.01791 16.5681C7.55138 16.7111 7.86796 17.2594 7.72502 17.7929L7.20738 19.7247C7.06444 20.2582 6.5161 20.5748 5.98264 20.4318C5.44917 20.2889 5.13259 19.7405 5.27553 19.2071L5.79317 17.2752C5.93611 16.7418 6.48445 16.4252 7.01791 16.5681ZM10.9034 15.1194C11.4368 15.2623 11.7534 15.8107 11.6105 16.3442L11.3517 17.3101C11.2087 17.8435 10.6604 18.1601 10.1269 18.0172C9.5935 17.8742 9.27692 17.3259 9.41986 16.7924L9.67868 15.8265C9.82162 15.293 10.3699 14.9765 10.9034 15.1194ZM17.9034 15.1193C18.4369 15.2622 18.7535 15.8106 18.6105 16.344L18.3517 17.31C18.2088 17.8434 17.6604 18.16 17.127 18.0171C16.5935 17.8741 16.2769 17.3258 16.4198 16.7923L16.6787 15.8264C16.8216 15.2929 17.3699 14.9763 17.9034 15.1193Z" fill="#60C6FF"/>
<path d="M11.5 2C14.2856 2 16.66 3.75154 17.5856 6.21198C20.13 6.90766 22 9.23462 22 12C22 13.3497 21.553 14.5978 20.7996 15.6007C20.4678 16.0422 19.841 16.1312 19.3994 15.7995C18.9579 15.4677 18.8689 14.8409 19.2006 14.3993C19.7028 13.7309 20 12.9016 20 12C20 10.0145 18.5524 8.36524 16.6552 8.05324C16.2654 7.98914 15.9477 7.7033 15.8441 7.32051C15.326 5.40663 13.576 4 11.5 4C9.01472 4 7 6.01472 7 8.5C7 8.66909 7.00928 8.83564 7.02729 8.99923C7.08294 9.50471 6.75509 9.9678 6.26851 10.0896C4.96468 10.4159 4 11.5965 4 13C4 13.4698 4.10732 13.9123 4.29835 14.3064L4.40073 14.4993C4.67728 14.9773 4.51392 15.5891 4.03585 15.8656C3.55779 16.1421 2.94607 15.9788 2.66952 15.5007C2.24351 14.7643 2 13.9091 2 13C2 10.9486 3.23468 9.18749 5.00053 8.41614C5.04543 4.86494 7.93814 2 11.5 2Z" fill="white"/>
</svg>
