<svg width="24" height="24" viewBox="0 0 24 24" fill="none" xmlns="http://www.w3.org/2000/svg">
<path d="M7.0322 14.1364C7.56567 14.2793 7.88225 14.8277 7.73931 15.3611L6.1864 21.1567C6.04345 21.6901 5.49512 22.0067 4.96165 21.8638C4.42818 21.7208 4.1116 21.1725 4.25454 20.639L5.80746 14.8435C5.9504 14.31 6.49874 13.9934 7.0322 14.1364ZM17.5322 14.1364C18.0657 14.2793 18.3823 14.8277 18.2393 15.3611L16.6864 21.1567C16.5435 21.6902 15.9951 22.0067 15.4617 21.8638C14.9282 21.7209 14.6116 21.1725 14.7546 20.6391L16.3075 14.8435C16.4504 14.31 16.9987 13.9935 17.5322 14.1364ZM10.5322 14.1365C11.0657 14.2794 11.3823 14.8277 11.2393 15.3612L9.68642 21.1568C9.54348 21.6902 8.99514 22.0068 8.46168 21.8639C7.92821 21.7209 7.61163 21.1726 7.75457 20.6391L9.30749 14.8436C9.45043 14.3101 9.99876 13.9935 10.5322 14.1365ZM12.8074 14.8435C12.9504 14.31 13.4987 13.9935 14.0322 14.1364C14.5275 14.2691 14.8359 14.7514 14.763 15.2467L14.7393 15.3611L13.1864 21.1567C13.0434 21.6902 12.4951 22.0067 11.9616 21.8638C11.4663 21.7311 11.158 21.2488 11.2308 20.7535L11.2545 20.6391L12.8074 14.8435Z" fill="#60C6FF"/>
<path d="M11.5 2C14.2856 2 16.66 3.75154 17.5856 6.21198C20.13 6.90766 22 9.23462 22 12C22 13.7694 21.2341 15.3599 20.0157 16.4581L20.171 15.8787C20.5998 14.2783 19.6501 12.6333 18.0497 12.2044C17.1463 11.9624 16.2288 12.1595 15.5238 12.665C15.2376 12.4593 14.9101 12.301 14.5496 12.2044C13.6463 11.9624 12.7288 12.1595 12.0238 12.665C11.7376 12.4594 11.4101 12.3011 11.0497 12.2045C10.1464 11.9625 9.22888 12.1596 8.52386 12.665C8.23769 12.4593 7.91017 12.301 7.54963 12.2044C5.94923 11.7756 4.30422 12.7253 3.87539 14.3257L3.32281 16.388C2.5016 15.4971 2 14.3071 2 13C2 10.9486 3.23468 9.18749 5.00053 8.41614C5.04543 4.86494 7.93814 2 11.5 2Z" fill="white"/>
</svg>
