<svg width="24" height="24" viewBox="0 0 24 24" fill="none" xmlns="http://www.w3.org/2000/svg">
<path fill-rule="evenodd" clip-rule="evenodd" d="M7.03171 14.1364C7.56518 14.2793 7.88176 14.8277 7.73882 15.3611L6.1859 21.1567C6.04296 21.6901 5.49463 22.0067 4.96116 21.8638C4.42769 21.7208 4.11111 21.1725 4.25405 20.639L5.80697 14.8435C5.94991 14.31 6.49825 13.9934 7.03171 14.1364ZM17.5318 14.1364C18.0652 14.2793 18.3818 14.8277 18.2389 15.3611L16.686 21.1567C16.543 21.6902 15.9947 22.0067 15.4612 21.8638C14.9278 21.7209 14.6112 21.1725 14.7541 20.6391L16.307 14.8435C16.45 14.31 16.9983 13.9935 17.5318 14.1364ZM10.5318 14.1365C11.0652 14.2794 11.3818 14.8277 11.2389 15.3612L9.68593 21.1568C9.54299 21.6902 8.99465 22.0068 8.46119 21.8639C7.92772 21.7209 7.61114 21.1726 7.75408 20.6391L9.307 14.8436C9.44994 14.3101 9.99827 13.9935 10.5318 14.1365ZM14.7389 15.3611C14.8818 14.8277 14.5652 14.2793 14.0317 14.1364C13.4983 13.9935 12.9499 14.31 12.807 14.8435L11.2541 20.6391C11.1111 21.1725 11.4277 21.7209 11.9612 21.8638C12.4947 22.0067 13.043 21.6902 13.1859 21.1567L14.7389 15.3611Z" fill="#60C6FF"/>
<path fill-rule="evenodd" clip-rule="evenodd" d="M11.5 2C7.93814 2 5.04543 4.86494 5.00053 8.41614C3.23468 9.18749 2 10.9486 2 13C2 13.9091 2.24351 14.7643 2.66952 15.5007C2.94607 15.9788 3.55779 16.1421 4.03585 15.8656C4.51392 15.5891 4.67728 14.9773 4.40073 14.4993C4.14607 14.059 4 13.5481 4 13C4 11.5965 4.96468 10.4159 6.26851 10.0896C6.75509 9.9678 7.08294 9.50471 7.02729 8.99923C7.00928 8.83564 7 8.66909 7 8.5C7 6.01472 9.01472 4 11.5 4C13.576 4 15.326 5.40663 15.8441 7.32051C15.9477 7.7033 16.2654 7.98914 16.6552 8.05324C18.5524 8.36524 20 10.0145 20 12C20 12.9016 19.7028 13.7309 19.2006 14.3993C18.8689 14.8409 18.9579 15.4677 19.3994 15.7995C19.841 16.1312 20.4678 16.0422 20.7996 15.6007C21.553 14.5978 22 13.3497 22 12C22 9.23462 20.13 6.90766 17.5856 6.21198C16.66 3.75154 14.2856 2 11.5 2Z" fill="white"/>
</svg>
