<svg width="24" height="24" viewBox="0 0 24 24" fill="none" xmlns="http://www.w3.org/2000/svg">
<path d="M12.4962 12.6318C12.9758 12.9058 13.1424 13.5166 12.8683 13.9961L11.7233 16H12.8278C13.6724 16 14.2019 16.9124 13.7828 17.6458L11.8683 20.9961C11.5943 21.4757 10.9835 21.6423 10.504 21.3682C10.0244 21.0942 9.85786 20.4834 10.1319 20.0039L11.2769 18H10.1724C9.32783 18 8.79832 17.0876 9.21736 16.3542L11.1319 13.0039C11.4059 12.5243 12.0167 12.3577 12.4962 12.6318Z" fill="#FFC548"/>
<path d="M14.9989 18.5006C15.1418 17.9672 15.6902 17.6506 16.2236 17.7935C16.7571 17.9365 17.0737 18.4848 16.9307 19.0183L16.6719 19.9842C16.529 20.5177 15.9806 20.8343 15.4472 20.6913C14.9137 20.5484 14.5971 20 14.7401 19.4666L14.9989 18.5006ZM5.21892 18.5006C5.36186 17.9672 5.9102 17.6506 6.44366 17.7935C6.97713 17.9365 7.29371 18.4848 7.15077 19.0183L6.89195 19.9842C6.74901 20.5177 6.20067 20.8343 5.66721 20.6913C5.13374 20.5484 4.81716 20 4.9601 19.4666L5.21892 18.5006ZM17.2589 13.9298C17.7924 14.0728 18.1089 14.6211 17.966 15.1546L17.7072 16.1205C17.5642 16.654 17.0159 16.9705 16.4824 16.8276C15.949 16.6847 15.6324 16.1363 15.7753 15.6029L16.0342 14.6369C16.1771 14.1035 16.7254 13.7869 17.2589 13.9298ZM7.47894 13.9298C8.01241 14.0728 8.32899 14.6211 8.18605 15.1546L7.92723 16.1205C7.78429 16.654 7.23595 16.9706 6.70248 16.8276C6.16902 16.6847 5.85243 16.1363 5.99538 15.6029L6.25419 14.6369C6.39714 14.1035 6.94547 13.7869 7.47894 13.9298Z" fill="#60C6FF"/>
<path d="M11.5 2C14.2856 2 16.66 3.75154 17.5856 6.21198C20.13 6.90766 22 9.23462 22 12C22 13.3497 21.553 14.5978 20.7996 15.6007C20.4678 16.0422 19.841 16.1312 19.3994 15.7995C18.9579 15.4677 18.8689 14.8409 19.2006 14.3993C19.7028 13.7309 20 12.9016 20 12C20 10.0145 18.5524 8.36524 16.6552 8.05324C16.2654 7.98914 15.9477 7.7033 15.8441 7.32051C15.326 5.40663 13.576 4 11.5 4C9.01472 4 7 6.01472 7 8.5C7 8.66909 7.00928 8.83564 7.02729 8.99923C7.08294 9.50471 6.75509 9.9678 6.26851 10.0896C4.96468 10.4159 4 11.5965 4 13C4 13.4698 4.10732 13.9123 4.29835 14.3064L4.40073 14.4993C4.67728 14.9773 4.51392 15.5891 4.03585 15.8656C3.55779 16.1421 2.94607 15.9788 2.66952 15.5007C2.24351 14.7643 2 13.9091 2 13C2 10.9486 3.23468 9.18749 5.00053 8.41614C5.04543 4.86494 7.93814 2 11.5 2Z" fill="white"/>
</svg>
