<svg width="24" height="24" viewBox="0 0 24 24" fill="none" xmlns="http://www.w3.org/2000/svg">
<path d="M16.0001 16C16.5524 16 17.0001 16.4477 17.0001 17V17.268L17.2322 17.134C17.7105 16.8578 18.3221 17.0217 18.5982 17.5C18.8743 17.9783 18.7105 18.5899 18.2322 18.866L18.0001 19L18.2322 19.1339C18.7105 19.4101 18.8743 20.0217 18.5982 20.5C18.3221 20.9783 17.7105 21.1421 17.2322 20.866L17.0001 20.732V21C17.0001 21.5523 16.5524 22 16.0001 22C15.4478 22 15.0001 21.5523 15.0001 21V20.7321L14.7681 20.866C14.2898 21.1422 13.6782 20.9783 13.402 20.5C13.1259 20.0217 13.2898 19.4101 13.7681 19.134L14.0001 19L13.7681 18.866C13.2898 18.5899 13.1259 17.9783 13.402 17.5C13.6782 17.0217 14.2898 16.8578 14.7681 17.1339L15.0001 17.2679V17C15.0001 16.4477 15.4478 16 16.0001 16ZM8.00011 16C8.55239 16 9.00011 16.4477 9.00011 17V17.268L9.23217 17.134C9.71046 16.8578 10.3221 17.0217 10.5982 17.5C10.8743 17.9783 10.7105 18.5899 10.2322 18.866L10.0001 19L10.2322 19.1339C10.7105 19.4101 10.8743 20.0217 10.5982 20.5C10.3221 20.9783 9.71046 21.1421 9.23217 20.866L9.00011 20.732V21C9.00011 21.5523 8.55239 22 8.00011 22C7.44783 22 7.00011 21.5523 7.00011 21V20.7321L6.76807 20.866C6.28978 21.1422 5.67819 20.9783 5.40204 20.5C5.1259 20.0217 5.28978 19.4101 5.76807 19.134L6.00015 19L5.76807 18.866C5.28977 18.5899 5.1259 17.9783 5.40204 17.5C5.67818 17.0217 6.28977 16.8578 6.76807 17.1339L7.00011 17.2679V17C7.00011 16.4477 7.44783 16 8.00011 16ZM12.0001 10C12.5524 10 13.0001 10.4477 13.0001 11V11.268L13.2322 11.134C13.7105 10.8578 14.3221 11.0217 14.5982 11.5C14.8743 11.9783 14.7105 12.5899 14.2322 12.866L14.0001 13L14.2322 13.1339C14.7105 13.4101 14.8743 14.0217 14.5982 14.5C14.3221 14.9783 13.7105 15.1421 13.2322 14.866L13.0001 14.732V15C13.0001 15.5523 12.5524 16 12.0001 16C11.4478 16 11.0001 15.5523 11.0001 15V14.7321L10.7681 14.866C10.2898 15.1422 9.67819 14.9783 9.40204 14.5C9.1259 14.0217 9.28978 13.4101 9.76807 13.134L10.0001 13L9.76807 12.866C9.28977 12.5899 9.1259 11.9783 9.40204 11.5C9.67818 11.0217 10.2898 10.8578 10.7681 11.1339L11.0001 11.2679V11C11.0001 10.4477 11.4478 10 12.0001 10ZM11.5 2C14.2856 2 16.66 3.75154 17.5856 6.21198C20.13 6.90766 22 9.23462 22 12C22 13.3497 21.553 14.5978 20.7996 15.6007C20.4678 16.0422 19.841 16.1312 19.3994 15.7995C18.9579 15.4677 18.8689 14.8409 19.2006 14.3993C19.7028 13.7309 20 12.9016 20 12C20 10.0145 18.5524 8.36524 16.6552 8.05324C16.2654 7.98914 15.9477 7.7033 15.8441 7.32051C15.326 5.40663 13.576 4 11.5 4C9.01472 4 7 6.01472 7 8.5C7 8.66909 7.00928 8.83564 7.02729 8.99923C7.08294 9.50471 6.75509 9.9678 6.26851 10.0896C4.96468 10.4159 4 11.5965 4 13C4 13.4698 4.10732 13.9123 4.29835 14.3064L4.40073 14.4993C4.67728 14.9773 4.51392 15.5891 4.03585 15.8656C3.55779 16.1421 2.94607 15.9788 2.66952 15.5007C2.24351 14.7643 2 13.9091 2 13C2 10.9486 3.23468 9.18749 5.00053 8.41614C5.04543 4.86494 7.93814 2 11.5 2Z" fill="white"/>
</svg>
