<svg width="24" height="24" viewBox="0 0 24 24" fill="none" xmlns="http://www.w3.org/2000/svg">
<path d="M8.64656 12.7323L9.00011 13.0859L9.35367 12.7323C9.74419 12.3418 10.3774 12.3418 10.7679 12.7323C11.1584 13.1229 11.1584 13.756 10.7679 14.1466L10.4143 14.5001L10.7679 14.8537C11.1584 15.2442 11.1584 15.8774 10.7679 16.2679C10.3774 16.6584 9.74419 16.6584 9.35367 16.2679L9.00011 15.9143L8.64656 16.2679C8.25604 16.6584 7.62287 16.6584 7.23235 16.2679C6.84182 15.8774 6.84182 15.2442 7.23235 14.8537L7.5859 14.5001L7.23235 14.1466C6.84182 13.756 6.84182 13.1229 7.23235 12.7323C7.62287 12.3418 8.25604 12.3418 8.64656 12.7323ZM14.6466 12.7323L15.0001 13.0859L15.3537 12.7323C15.7442 12.3418 16.3774 12.3418 16.7679 12.7323C17.1584 13.1229 17.1584 13.756 16.7679 14.1466L16.4143 14.5001L16.7679 14.8537C17.1584 15.2442 17.1584 15.8774 16.7679 16.2679C16.3774 16.6584 15.7442 16.6584 15.3537 16.2679L15.0001 15.9143L14.6466 16.2679C14.256 16.6584 13.6229 16.6584 13.2323 16.2679C12.8418 15.8774 12.8418 15.2442 13.2323 14.8537L13.5859 14.5001L13.2323 14.1466C12.8418 13.756 12.8418 13.1229 13.2323 12.7323C13.6229 12.3418 14.256 12.3418 14.6466 12.7323ZM11.5 2C14.2856 2 16.66 3.75154 17.5856 6.21198C20.13 6.90766 22 9.23462 22 12C22 13.3497 21.553 14.5978 20.7996 15.6007C20.4678 16.0422 19.841 16.1312 19.3994 15.7995C18.9579 15.4677 18.8689 14.8409 19.2006 14.3993C19.7028 13.7309 20 12.9016 20 12C20 10.0145 18.5524 8.36524 16.6552 8.05324C16.2654 7.98914 15.9477 7.7033 15.8441 7.32051C15.326 5.40663 13.576 4 11.5 4C9.01472 4 7 6.01472 7 8.5C7 8.66909 7.00928 8.83564 7.02729 8.99923C7.08294 9.50471 6.75509 9.9678 6.26851 10.0896C4.96468 10.4159 4 11.5965 4 13C4 13.4698 4.10732 13.9123 4.29835 14.3064L4.40073 14.4993C4.67728 14.9773 4.51392 15.5891 4.03585 15.8656C3.55779 16.1421 2.94607 15.9788 2.66952 15.5007C2.24351 14.7643 2 13.9091 2 13C2 10.9486 3.23468 9.18749 5.00053 8.41614C5.04543 4.86494 7.93814 2 11.5 2ZM6.76788 18.2323C7.1584 18.6229 7.1584 19.256 6.76788 19.6466L6.41433 20.0001L6.76788 20.3537C7.1584 20.7442 7.1584 21.3774 6.76788 21.7679C6.37736 22.1584 5.74419 22.1584 5.35367 21.7679L5.00011 21.4143L4.64656 21.7679C4.25604 22.1584 3.62287 22.1584 3.23235 21.7679C2.84182 21.3774 2.84182 20.7442 3.23235 20.3537L3.5859 20.0001L3.23235 19.6466C2.84182 19.256 2.84182 18.6229 3.23235 18.2323C3.62287 17.8418 4.25604 17.8418 4.64656 18.2323L5.00011 18.5859L5.35367 18.2323C5.74419 17.8418 6.37736 17.8418 6.76788 18.2323ZM18.7679 18.2323C19.1584 18.6229 19.1584 19.256 18.7679 19.6466L18.4143 20.0001L18.7679 20.3537C19.1584 20.7442 19.1584 21.3774 18.7679 21.7679C18.3774 22.1584 17.7442 22.1584 17.3537 21.7679L17.0001 21.4143L16.6466 21.7679C16.256 22.1584 15.6229 22.1584 15.2323 21.7679C14.8418 21.3774 14.8418 20.7442 15.2323 20.3537L15.5859 20.0001L15.2323 19.6466C14.8418 19.256 14.8418 18.6229 15.2323 18.2323C15.6229 17.8418 16.256 17.8418 16.6466 18.2323L17.0001 18.5859L17.3537 18.2323C17.7442 17.8418 18.3774 17.8418 18.7679 18.2323ZM12.7679 18.2323C13.1584 18.6229 13.1584 19.256 12.7679 19.6466L12.4143 20.0001L12.7679 20.3537C13.1584 20.7442 13.1584 21.3774 12.7679 21.7679C12.3774 22.1584 11.7442 22.1584 11.3537 21.7679L11.0001 21.4143L10.6466 21.7679C10.256 22.1584 9.62287 22.1584 9.23235 21.7679C8.84182 21.3774 8.84182 20.7442 9.23235 20.3537L9.5859 20.0001L9.23235 19.6466C8.84182 19.256 8.84182 18.6229 9.23235 18.2323C9.62287 17.8418 10.256 17.8418 10.6466 18.2323L11.0001 18.5859L11.3537 18.2323C11.7442 17.8418 12.3774 17.8418 12.7679 18.2323Z" fill="white"/>
</svg>
