<svg width="24" height="24" viewBox="0 0 24 24" fill="none" xmlns="http://www.w3.org/2000/svg">
<path fill-rule="evenodd" clip-rule="evenodd" d="M14.001 2C16.3971 2 18.6002 2.84447 20.3229 4.25151L21.3082 5.05624C21.7628 5.42761 21.4687 6.16356 20.8833 6.11922L19.6148 6.02315C18.8945 5.96859 18.1509 6.01304 17.4563 6.14881C19.021 7.60847 20.0004 9.68943 20.0004 12C20.0004 17.5228 15.5232 22 10.0004 22C7.60436 22 5.40123 21.1555 3.67852 19.7485L2.69326 18.9438C2.23857 18.5724 2.53273 17.8364 3.11812 17.8808L4.38662 17.9769C5.10691 18.0314 5.85045 17.987 6.54501 17.8512C4.98022 16.3916 4.00042 14.3107 4.00042 12C4.00042 6.47706 8.47828 2 14.001 2ZM14.001 4C9.58267 4 6.00042 7.58181 6.00042 12C6.00042 14.3007 7.29501 16.3006 9.20016 17.3081L9.91878 17.6881C10.3589 17.9209 10.3432 18.5638 9.89152 18.7733C9.1598 19.1126 8.41927 19.4347 7.64229 19.6471C8.38733 19.8765 9.17907 20 10.0004 20C14.4187 20 18.0004 16.4183 18.0004 12C18.0004 9.69917 16.7063 7.69936 14.8013 6.69195L14.0826 6.31192C13.6424 6.07914 13.6581 5.43618 14.1099 5.2267C14.8416 4.8874 15.5821 4.56528 16.3591 4.35294C15.6141 4.12351 14.8223 4 14.001 4ZM12.0002 9C13.6571 9 15.0002 10.3431 15.0002 12C15.0002 13.6569 13.6571 15 12.0002 15C10.3433 15 9.00024 13.6569 9.00024 12C9.00024 10.3431 10.3433 9 12.0002 9ZM12.0002 11C11.4479 11 11.0002 11.4477 11.0002 12C11.0002 12.5523 11.4479 13 12.0002 13C12.5525 13 13.0002 12.5523 13.0002 12C13.0002 11.4477 12.5525 11 12.0002 11Z" fill="white"/>
</svg>
