<svg width="24" height="24" viewBox="0 0 24 24" fill="none" xmlns="http://www.w3.org/2000/svg">
<path fill-rule="evenodd" clip-rule="evenodd" d="M2 6C2 5.44772 2.44772 5 3 5H3.5C3.85886 5 4.1902 5.19229 4.36824 5.50386L7 10.1094V6C7 5.44772 7.44772 5 8 5C8.55228 5 9 5.44772 9 6V13C9 13.5523 8.55228 14 8 14H7.5C7.14114 14 6.8098 13.8077 6.63176 13.4961L4 8.89056V13C4 13.5523 3.55228 14 3 14C2.44772 14 2 13.5523 2 13V6ZM14.9472 7.10557C15.4412 7.35256 15.6414 7.95324 15.3944 8.44721L11.3944 16.4472C11.1474 16.9412 10.5468 17.1414 10.0528 16.8944C9.55881 16.6474 9.35858 16.0468 9.60557 15.5528L13.6056 7.55279C13.8526 7.05881 14.4532 6.85858 14.9472 7.10557ZM16.5541 10.6757C16.6926 10.2715 17.0727 10 17.5 10H18.5C18.9273 10 19.3074 10.2715 19.4459 10.6757L21.1531 15.6548L21.9308 17.6343C22.1327 18.1484 21.8797 18.7288 21.3657 18.9308C20.8516 19.1327 20.2712 18.8797 20.0692 18.3657L19.5327 17H16.4673L15.9308 18.3657C15.7288 18.8797 15.1484 19.1327 14.6343 18.9308C14.1203 18.7288 13.8673 18.1484 14.0692 17.6343L14.8469 15.6548L16.5541 10.6757ZM17.1857 15H18.8143L18 12.625L17.1857 15Z" fill="white"/>
</svg>
