<svg width="24" height="24" viewBox="0 0 24 24" fill="none" xmlns="http://www.w3.org/2000/svg">
<path d="M9 2C10.6569 2 12 3.34315 12 5V12.9559L12.0093 12.9771C12.0228 13.0016 12.0504 13.0376 12.0965 13.074C13.2541 13.988 14 15.4072 14 17C14 19.7614 11.7614 22 9 22C6.23858 22 4 19.7614 4 17C4 15.4072 4.74591 13.988 5.90349 13.074C5.93425 13.0497 5.95677 13.0256 5.97236 13.005L6 12.9559V5C6 3.34315 7.34315 2 9 2ZM9 4C8.44772 4 8 4.44772 8 5V12.9583C8 13.6331 7.66331 14.1841 7.25563 14.5489L7.14289 14.6437C6.44499 15.1948 6 16.0451 6 17C6 18.6569 7.34315 20 9 20C10.6569 20 12 18.6569 12 17C12 16.1133 11.6163 15.3168 11.0027 14.7663L10.8571 14.6437C10.4007 14.2833 10 13.6944 10 12.9583V5C10 4.44772 9.55228 4 9 4ZM11 17C11 18.1046 10.1046 19 9 19C7.89543 19 7 18.1046 7 17H11ZM16.9999 6C17.5128 6 17.9354 6.38604 17.9932 6.88338L17.9999 7V8.26799L19.0981 7.63397C19.5764 7.35783 20.188 7.52171 20.4641 8C20.7205 8.44413 20.5976 9.00319 20.1957 9.30189L20.0981 9.36603L18.9999 10L20.0979 10.634C20.5762 10.9101 20.7401 11.5217 20.464 12C20.2075 12.4441 19.6619 12.6172 19.2023 12.4185L19.0979 12.366L17.9999 11.7321V13C17.9999 13.5523 17.5522 14 16.9999 14C16.4871 14 16.0644 13.614 16.0066 13.1166L15.9999 13V11.7321L14.9019 12.366C14.4236 12.6422 13.812 12.4783 13.5359 12C13.2794 11.5559 13.4024 10.9968 13.8043 10.6981L13.9019 10.634L14.9999 10L13.9018 9.36603C13.4235 9.08988 13.2596 8.47829 13.5358 8C13.7922 7.55587 14.3378 7.38285 14.7974 7.58149L14.9018 7.63397L15.9999 8.26799V7C15.9999 6.44772 16.4476 6 16.9999 6Z" fill="white"/>
</svg>
