<svg width="24" height="24" viewBox="0 0 24 24" fill="none" xmlns="http://www.w3.org/2000/svg">
<path d="M16 3.99023C16.5523 3.99023 17 4.43795 17 4.99023V5.00023C17 5.55252 16.5523 6.00023 16 6.00023C15.4477 6.00023 15 5.55252 15 5.00023V4.99023C15 4.43795 15.4477 3.99023 16 3.99023Z" fill="#FFC548"/>
<path fill-rule="evenodd" clip-rule="evenodd" d="M13 10.0002C13 8.34339 14.3431 7.00024 16 7.00024C17.6569 7.00024 19 8.34339 19 10.0002C19 11.6571 17.6569 13.0002 16 13.0002C14.3431 13.0002 13 11.6571 13 10.0002Z" fill="#FFC548"/>
<path d="M13.168 5.74907C12.7775 5.35855 12.1444 5.35855 11.7538 5.74907C11.3633 6.13959 11.3633 6.77276 11.7538 7.16328L11.7609 7.17035C12.1514 7.56088 12.7846 7.56088 13.1751 7.17035C13.5656 6.77983 13.5656 6.14667 13.1751 5.75614L13.168 5.74907Z" fill="#FFC548"/>
<path d="M22 10.0002C22 10.5525 21.5523 11.0002 21 11.0002H20.99C20.4377 11.0002 19.99 10.5525 19.99 10.0002C19.99 9.44796 20.4377 9.00024 20.99 9.00024H21C21.5523 9.00025 22 9.44796 22 10.0002Z" fill="#FFC548"/>
<path d="M20.2462 7.17037C20.6367 6.77984 20.6367 6.14668 20.2462 5.75615C19.8556 5.36563 19.2225 5.36562 18.832 5.75615L18.8249 5.76322C18.4344 6.15374 18.4344 6.78691 18.8249 7.17743C19.2154 7.56796 19.8486 7.56796 20.2391 7.17744L20.2462 7.17037Z" fill="#FFC548"/>
<path d="M16 13.9902C16.5523 13.9902 17 14.4379 17 14.9902V15.0002C17 15.5525 16.5523 16.0002 16 16.0002C15.4477 16.0002 15 15.5525 15 15.0002V14.9902C15 14.4379 15.4477 13.9902 16 13.9902Z" fill="#FFC548"/>
<path d="M20.2391 12.8201C19.8486 12.4296 19.2154 12.4296 18.8249 12.8201C18.4344 13.2106 18.4344 13.8438 18.8249 14.2343L18.832 14.2414C19.2225 14.6319 19.8556 14.6319 20.2462 14.2414C20.6367 13.8509 20.6367 13.2177 20.2462 12.8272L20.2391 12.8201Z" fill="#FFC548"/>
<path d="M12.01 10.0002C12.01 10.5525 11.5623 11.0002 11.01 11.0002H11C10.4477 11.0002 10 10.5525 10 10.0002C10 9.44796 10.4477 9.00024 11 9.00024H11.01C11.5623 9.00025 12.01 9.44796 12.01 10.0002Z" fill="#FFC548"/>
<path d="M13.1822 14.2343C13.5727 13.8438 13.5727 13.2106 13.1822 12.8201C12.7917 12.4296 12.1585 12.4296 11.768 12.8201L11.7609 12.8272C11.3704 13.2177 11.3704 13.8509 11.7609 14.2414C12.1514 14.6319 12.7846 14.6319 13.1751 14.2414L13.1822 14.2343Z" fill="#FFC548"/>
<path fill-rule="evenodd" clip-rule="evenodd" d="M6 5C6 3.34315 7.34315 2 9 2C10.6569 2 12 3.34315 12 5V12.9559C12.0007 12.9588 12.003 12.9657 12.0093 12.9771C12.0228 13.0016 12.0504 13.0376 12.0965 13.074C13.2541 13.988 14 15.4072 14 17C14 19.7614 11.7614 22 9 22C6.23858 22 4 19.7614 4 17C4 15.4072 4.74591 13.988 5.90349 13.074C5.94963 13.0376 5.97723 13.0016 5.9907 12.9771C5.99697 12.9657 5.99926 12.9588 6 12.9559V5Z" fill="white"/>
</svg>
