<svg width="24" height="24" viewBox="0 0 24 24" fill="none" xmlns="http://www.w3.org/2000/svg">
<path d="M19.7493 10.0051C21.0044 9.93357 22.0002 8.89313 22.0002 7.6201C22.0002 6.64507 21.4167 5.80761 20.5798 5.43602C20.1509 4.65222 19.3191 4.12012 18.3613 4.12012C17.49 4.12012 16.7216 4.56097 16.2671 5.2318C16.8478 5.59869 17.378 6.03826 17.845 6.53773C17.8957 6.29913 18.1076 6.12012 18.3613 6.12012C18.6037 6.12012 18.8104 6.28449 18.871 6.50957C18.9732 6.88882 19.2879 7.17312 19.6756 7.23635C19.8596 7.26636 20.0002 7.42778 20.0002 7.6201C20.0002 7.83486 19.8261 8.00897 19.6113 8.00897L18.9349 8.00897C19.2914 8.62697 19.5675 9.29707 19.7493 10.0051Z" fill="white"/>
<path d="M12 17.5C12 18.8807 10.8807 20 9.5 20H5C3.89543 20 3 19.1046 3 18C3 17.0619 3.64584 16.2747 4.51713 16.0587C4.50581 15.9573 4.5 15.8544 4.5 15.75C4.5 14.2312 5.73122 13 7.25 13C8.52064 13 9.59001 13.8618 9.90552 15.0327C11.0934 15.2265 12 16.2574 12 17.5Z" fill="white"/>
<path d="M13.3117 19.893C17.1059 19.2672 20 15.9716 20 12C20 7.58172 16.4183 4 12 4C7.58172 4 4 7.58172 4 12C4 12.0942 4.00163 12.188 4.00485 12.2813C4.85401 11.4866 5.99518 11 7.25 11C9.02577 11 10.5709 11.9733 11.386 13.4137C12.9294 14.1271 14 15.6873 14 17.5C14 18.3794 13.7478 19.1998 13.3117 19.893Z" fill="#FFC548"/>
</svg>
