<svg width="24" height="24" viewBox="0 0 24 24" fill="none" xmlns="http://www.w3.org/2000/svg">
<path d="M22.0002 7.6201C22.0002 8.89313 21.0044 9.93357 19.7493 10.0051C19.5675 9.29707 19.2914 8.62697 18.9349 8.00897L19.6113 8.00897C19.8261 8.00897 20.0002 7.83486 20.0002 7.6201C20.0002 7.42778 19.8596 7.26636 19.6756 7.23635C19.2879 7.17312 18.9732 6.88882 18.871 6.50957C18.8104 6.28449 18.6037 6.12012 18.3613 6.12012C18.1076 6.12012 17.8957 6.29913 17.845 6.53773C17.378 6.03826 16.8478 5.59869 16.2671 5.2318C16.7216 4.56097 17.49 4.12012 18.3613 4.12012C19.3191 4.12012 20.1509 4.65222 20.5798 5.43602C21.4167 5.80761 22.0002 6.64507 22.0002 7.6201Z" fill="white"/>
<path fill-rule="evenodd" clip-rule="evenodd" d="M7.25 12C6.1758 12 5.20578 12.453 4.52338 13.1755C3.96664 13.765 3.59807 14.5372 3.51692 15.392C2.61112 15.908 2 16.8819 2 18C2 19.6569 3.34315 21 5 21H9.5C10.6562 21 11.6815 20.4383 12.3171 19.5772C12.7461 18.9961 13 18.2763 13 17.5C13 15.9749 12.0253 14.6789 10.6648 14.1988C10.0749 12.9022 8.76879 12 7.25 12ZM5.9774 14.5487C6.29773 14.2096 6.74858 14 7.25 14C8.05718 14 8.73908 14.5474 8.93996 15.2929C9.04214 15.6721 9.35688 15.9564 9.74453 16.0197C10.4565 16.1358 11 16.7554 11 17.5C11 17.8344 10.8918 18.1406 10.7081 18.3894C10.4332 18.7617 9.99454 19 9.5 19H5C4.44772 19 4 18.5523 4 18C4 17.5323 4.32202 17.1373 4.75776 17.0293C5.24452 16.9086 5.56662 16.4461 5.51095 15.9477C5.50374 15.8831 5.5 15.8172 5.5 15.75C5.5 15.2844 5.68053 14.8631 5.9774 14.5487Z" fill="white"/>
<path d="M6 12C6 8.68629 8.68629 6 12 6C15.3137 6 18 8.68629 18 12C18 14.9818 15.8249 17.4555 12.9748 17.9212C12.9009 18.5358 12.6674 19.1028 12.3171 19.5772C12.2061 19.7277 12.0831 19.869 11.9495 19.9998C11.9664 19.9999 11.9832 20 12 20C16.4183 20 20 16.4183 20 12C20 7.58172 16.4183 4 12 4C7.58172 4 4 7.58172 4 12C4 12.5547 4.05646 13.0963 4.16395 13.6192C4.27255 13.4621 4.39279 13.3138 4.52338 13.1755C4.92831 12.7467 5.43453 12.4129 6.00369 12.2123C6.00124 12.1419 6 12.0711 6 12Z" fill="#FFC548"/>
</svg>
