<svg width="24" height="24" viewBox="0 0 24 24" fill="none" xmlns="http://www.w3.org/2000/svg">
<path d="M12.3234 5.41195C12.1708 5.07444 12.2172 4.68021 12.4441 4.38741C12.671 4.0946 13.0411 3.9512 13.4061 4.01472C17.2195 4.67849 20.1188 8.00294 20.1188 12.0066C20.1188 16.0734 17.1262 19.4413 13.223 20.0283C13.7133 19.3077 13.9999 18.4373 13.9999 17.5C13.9999 15.6873 12.9293 14.1271 11.3859 13.4137C11.0895 12.8899 10.6965 12.4278 10.231 12.0519C11.7601 11.1408 12.7845 9.47077 12.7845 7.56148C12.7845 6.79323 12.6193 6.06627 12.3234 5.41195Z" fill="#616AFB"/>
<path d="M19.8679 9.99536C21.0666 9.86741 22.0003 8.8528 22.0003 7.6201C22.0003 6.64507 21.4168 5.80761 20.58 5.43602C20.151 4.65222 19.3192 4.12012 18.3614 4.12012C17.5297 4.12012 16.7917 4.52186 16.3311 5.14189C16.9014 5.5019 17.4238 5.931 17.8865 6.41745C17.972 6.24144 18.1526 6.12012 18.3614 6.12012C18.6039 6.12012 18.8105 6.28449 18.8712 6.50957C18.9733 6.88882 19.2881 7.17312 19.6757 7.23635C19.8597 7.26636 20.0003 7.42778 20.0003 7.6201C20.0003 7.83486 19.8262 8.00897 19.6114 8.00897H19.0674C19.4172 8.62529 19.6885 9.29192 19.8679 9.99536Z" fill="white"/>
<path d="M9.5 20C10.8807 20 12 18.8807 12 17.5C12 16.2574 11.0934 15.2265 9.90552 15.0327C9.59001 13.8618 8.52064 13 7.25 13C5.73122 13 4.5 14.2312 4.5 15.75C4.5 15.8544 4.50581 15.9573 4.51713 16.0587C3.64584 16.2747 3 17.0619 3 18C3 19.1046 3.89543 20 5 20H9.5Z" fill="white"/>
</svg>
