<svg width="24" height="24" viewBox="0 0 24 24" fill="none" xmlns="http://www.w3.org/2000/svg">
<path d="M22.0003 7.6201C22.0003 8.8528 21.0666 9.86741 19.8679 9.99536C19.6885 9.29192 19.4172 8.62529 19.0674 8.00897H19.6114C19.8262 8.00897 20.0003 7.83486 20.0003 7.6201C20.0003 7.42778 19.8597 7.26636 19.6757 7.23635C19.2881 7.17312 18.9733 6.88882 18.8712 6.50957C18.8105 6.28449 18.6039 6.12012 18.3614 6.12012C18.1526 6.12012 17.972 6.24144 17.8865 6.41745C17.4238 5.931 16.9014 5.5019 16.3311 5.14189C16.7917 4.52186 17.5297 4.12012 18.3614 4.12012C19.3192 4.12012 20.151 4.65222 20.58 5.43602C21.4168 5.80761 22.0003 6.64507 22.0003 7.6201Z" fill="white"/>
<path fill-rule="evenodd" clip-rule="evenodd" d="M7.25 12C5.29969 12 3.69712 13.4889 3.51687 15.392C2.6111 15.908 2 16.8819 2 18C2 19.6569 3.34315 21 5 21H9.5C10.5843 21 11.554 20.5058 12.1944 19.734C12.697 19.1282 13 18.3482 13 17.5C13 15.9749 12.0253 14.679 10.6649 14.1988C10.4244 13.67 10.0653 13.2079 9.62266 12.8459C8.97664 12.3177 8.14907 12 7.25 12ZM5.5 15.75C5.5 14.7835 6.2835 14 7.25 14C7.67091 14 8.05473 14.1473 8.35661 14.3942C8.63719 14.6236 8.84402 14.9369 8.93996 15.2929C9.04214 15.6721 9.35688 15.9564 9.74453 16.0197C10.4565 16.1358 11 16.7554 11 17.5C11 17.8648 10.8711 18.1968 10.6553 18.4568C10.3786 18.7903 9.9642 19 9.5 19H5C4.44772 19 4 18.5523 4 18C4 17.5323 4.32202 17.1373 4.75776 17.0293C5.24452 16.9086 5.56662 16.4461 5.51095 15.9477C5.50374 15.8831 5.5 15.8172 5.5 15.75Z" fill="white"/>
<path d="M13.4065 4.01472C13.0415 3.9512 12.6714 4.0946 12.4445 4.38741C12.2176 4.68021 12.1712 5.07444 12.3238 5.41195C12.6197 6.06627 12.7849 6.79323 12.7849 7.56148C12.7849 9.88314 11.2698 11.8515 9.1748 12.5311C9.33207 12.6252 9.48181 12.7306 9.6229 12.8459C10.0396 13.1867 10.3822 13.6161 10.6215 14.1064C13.0814 12.9545 14.7849 10.4572 14.7849 7.56148C14.7849 7.20912 14.7596 6.86235 14.7107 6.52301C16.7302 7.52078 18.1192 9.6021 18.1192 12.0066C18.1192 15.0588 15.882 17.5885 12.9579 18.0453C12.8583 18.6809 12.5874 19.2606 12.1947 19.734C12.0812 19.8707 11.9574 19.9987 11.8244 20.1169C11.8851 20.1182 11.9459 20.1189 12.0069 20.1189C16.4872 20.1189 20.1192 16.4869 20.1192 12.0066C20.1192 8.00294 17.2199 4.67849 13.4065 4.01472Z" fill="#616AFB"/>
</svg>
