<svg width="24" height="24" viewBox="0 0 24 24" fill="none" xmlns="http://www.w3.org/2000/svg">
<path fill-rule="evenodd" clip-rule="evenodd" d="M17.5568 2.6072C18.326 2.91487 18.7001 3.78782 18.3924 4.557L17.5646 6.62655C17.0143 8.0024 17.1766 9.561 17.9985 10.794L18.4971 11.5418C19.867 13.5967 20.1375 16.1944 19.2203 18.4874L18.3924 20.557C18.0848 21.3262 17.2118 21.7003 16.4426 21.3926C15.6735 21.085 15.2993 20.212 15.607 19.4428L16.4348 17.3733C16.9852 15.9974 16.8229 14.4388 16.0009 13.2059L15.5024 12.4581C14.1324 10.4031 13.8619 7.80546 14.7792 5.51238L15.607 3.44282C15.9147 2.67365 16.7876 2.29953 17.5568 2.6072ZM12.5568 2.6072C13.326 2.91487 13.7001 3.78782 13.3924 4.557L12.5646 6.62655C12.0143 8.0024 12.1766 9.561 12.9985 10.794L13.4971 11.5418C14.867 13.5967 15.1375 16.1944 14.2203 18.4874L13.3924 20.557C13.0848 21.3262 12.2118 21.7003 11.4426 21.3926C10.6735 21.085 10.2993 20.212 10.607 19.4428L11.4348 17.3733C11.9852 15.9974 11.8229 14.4388 11.0009 13.2059L10.5024 12.4581C9.13238 10.4031 8.8619 7.80546 9.77914 5.51238L10.607 3.44282C10.9147 2.67365 11.7876 2.29953 12.5568 2.6072ZM7.55676 2.6072C8.32594 2.91487 8.70006 3.78782 8.39239 4.557L7.56457 6.62655C7.01423 8.0024 7.17651 9.561 7.99849 10.794L8.49702 11.5418C9.86697 13.5967 10.1375 16.1944 9.22021 18.4874L8.39239 20.557C8.08472 21.3262 7.21176 21.7003 6.44259 21.3926C5.67341 21.085 5.29929 20.212 5.60696 19.4428L6.43478 17.3733C6.98512 15.9974 6.82284 14.4388 6.00086 13.2059L5.50233 12.4581C4.13238 10.4031 3.8619 7.80546 4.77914 5.51238L5.60696 3.44282C5.91463 2.67365 6.78759 2.29953 7.55676 2.6072Z" fill="#FFC548"/>
</svg>
