<svg width="24" height="24" viewBox="0 0 24 24" fill="none" xmlns="http://www.w3.org/2000/svg">
<path d="M18.5 5.5C20.7091 5.5 22.5 7.29086 22.5 9.5C22.5 11.7091 20.7091 13.5 18.5 13.5H3C2.17157 13.5 1.5 12.8284 1.5 12C1.5 11.1716 2.17157 10.5 3 10.5H18.5C19.0523 10.5 19.5 10.0523 19.5 9.5C19.5 8.94772 19.0523 8.5 18.5 8.5C18.2148 8.5 17.9574 8.6183 17.7735 8.81295L17.6993 8.90092C17.2017 9.56328 16.2614 9.69687 15.5991 9.19931C14.9367 8.70175 14.8031 7.76144 15.3007 7.09908C16.0278 6.13114 17.1903 5.5 18.5 5.5ZM11 2.5C12.933 2.5 14.5 4.067 14.5 6C14.5 7.933 12.933 9.5 11 9.5H5C4.17157 9.5 3.5 8.82843 3.5 8C3.5 7.17157 4.17157 6.5 5 6.5H11C11.2762 6.5 11.5 6.27614 11.5 6C11.5 5.72386 11.2762 5.5 11 5.5C10.9064 5.5 10.8231 5.52432 10.7511 5.56597C10.034 5.98079 9.11641 5.73576 8.7016 5.01867C8.28678 4.30158 8.53181 3.38398 9.2489 2.96917C9.76524 2.67048 10.365 2.5 11 2.5ZM5 3C5.55228 3 6 3.44772 6 4C6 4.55228 5.55228 5 5 5C4.44772 5 4 4.55228 4 4C4 3.44772 4.44772 3 5 3ZM17 3C17.5523 3 18 3.44772 18 4C18 4.55228 17.5523 5 17 5C16.4477 5 16 4.55228 16 4C16 3.44772 16.4477 3 17 3ZM9 19C9.55228 19 10 19.4477 10 20C10 20.5523 9.55228 21 9 21C8.44772 21 8 20.5523 8 20C8 19.4477 8.44772 19 9 19ZM14.5 14.5C16.1569 14.5 17.5 15.8431 17.5 17.5C17.5 19.1569 16.1569 20.5 14.5 20.5C14.152 20.5 13.8148 20.4401 13.5001 20.3289C12.7191 20.0528 12.3097 19.1959 12.5857 18.4148C12.7429 17.97 13.0885 17.6458 13.5011 17.5H7C6.17157 17.5 5.5 16.8284 5.5 16C5.5 15.1716 6.17157 14.5 7 14.5H14.5ZM21 17C21 17.5523 20.5523 18 20 18C19.4477 18 19 17.5523 19 17C19 16.4477 19.4477 16 20 16C20.5523 16 21 16.4477 21 17Z" fill="white"/>
</svg>
