<svg width="24" height="24" viewBox="0 0 24 24" fill="none" xmlns="http://www.w3.org/2000/svg">
<path d="M12 5C18.0751 5 23 9.92487 23 16V17C23 17.5523 22.5523 18 22 18C21.4477 18 21 17.5523 21 17V16C21 11.0294 16.9706 7 12 7C7.02944 7 3 11.0294 3 16V17C3 17.5523 2.55228 18 2 18C1.44772 18 1 17.5523 1 17V16C1 9.92487 5.92487 5 12 5ZM12 9C15.866 9 19 12.134 19 16V17C19 17.5523 18.5523 18 18 18C17.4477 18 17 17.5523 17 17V16C17 13.2386 14.7614 11 12 11C9.23858 11 7 13.2386 7 16V17C7 17.5523 6.55228 18 6 18C5.44772 18 5 17.5523 5 17V16C5 12.134 8.13401 9 12 9ZM12 13C13.6569 13 15 14.3431 15 16V17C15 17.5523 14.5523 18 14 18C13.4477 18 13 17.5523 13 17V16C13 15.4477 12.5523 15 12 15C11.4477 15 11 15.4477 11 16V17C11 17.5523 10.5523 18 10 18C9.44771 18 9 17.5523 9 17V16C9 14.3431 10.3431 13 12 13Z" fill="white"/>
</svg>
